<svg width="21" height="21" viewBox="0 0 21 21" fill="none" xmlns="http://www.w3.org/2000/svg">
<g clip-path="url(#clip0_3276_31298)">
<path d="M5.45598 4.6665H16.2893C16.4093 4.70859 16.5181 4.7776 16.6073 4.86822C16.6966 4.95885 16.7639 5.0687 16.8041 5.18936C16.8443 5.31001 16.8564 5.43827 16.8394 5.56431C16.8224 5.69035 16.7767 5.81082 16.706 5.9165L12.5393 10.4998V16.3332L9.20598 13.8332V10.4998L5.03931 5.9165C4.96856 5.81082 4.92293 5.69035 4.90592 5.56431C4.88892 5.43827 4.90098 5.31001 4.9412 5.18936C4.98142 5.0687 5.04872 4.95885 5.13795 4.86822C5.22718 4.7776 5.33597 4.70859 5.45598 4.6665Z" stroke="#A9A9A9" stroke-width="1.66667" stroke-linecap="round" stroke-linejoin="round"/>
</g>
<defs>
<clipPath id="clip0_3276_31298">
<rect width="20" height="20" fill="white" transform="translate(0.873047 0.5)"/>
</clipPath>
</defs>
</svg>
