<svg width="24" height="24" viewBox="0 0 24 24" fill="none" xmlns="http://www.w3.org/2000/svg">
<path d="M21.323 8.61597L16.383 3.67597C16.1485 3.44203 15.8308 3.31065 15.4995 3.31065C15.1682 3.31065 14.8505 3.44203 14.616 3.67597L3.676 14.616C3.44175 14.8505 3.31018 15.1685 3.31018 15.5C3.31018 15.8315 3.44175 16.1494 3.676 16.384L8.616 21.324C8.73208 21.4401 8.86989 21.5322 9.02157 21.595C9.17325 21.6579 9.33582 21.6902 9.5 21.6902C9.66418 21.6902 9.82675 21.6579 9.97843 21.595C10.1301 21.5322 10.2679 21.4401 10.384 21.324L21.324 10.384C21.5582 10.1494 21.6898 9.83147 21.6898 9.49997C21.6898 9.16848 21.5572 8.85053 21.323 8.61597ZM14 5.70697L19.293 11L11.5 18.793L6.207 13.5L14 5.70697ZM9.677 20.617C9.65378 20.6403 9.62619 20.6587 9.59582 20.6713C9.56544 20.6839 9.53288 20.6904 9.5 20.6904C9.46712 20.6904 9.43456 20.6839 9.40418 20.6713C9.37381 20.6587 9.34622 20.6403 9.323 20.617L7.853 19.147L8.353 18.647L6.353 16.647L5.853 17.147L4.383 15.677C4.35972 15.6537 4.34125 15.6262 4.32864 15.5958C4.31604 15.5654 4.30955 15.5329 4.30955 15.5C4.30955 15.4671 4.31604 15.4345 4.32864 15.4042C4.34125 15.3738 4.35972 15.3462 4.383 15.323L5.5 14.207L10.793 19.5L9.677 20.617ZM20.617 9.67697L20 10.293L14.707 4.99997L15.323 4.38397C15.3462 4.36069 15.3738 4.34222 15.4042 4.32962C15.4346 4.31701 15.4671 4.31053 15.5 4.31053C15.5329 4.31053 15.5654 4.31701 15.5958 4.32962C15.6262 4.34222 15.6538 4.36069 15.677 4.38397L20.617 9.32397C20.6637 9.37083 20.6899 9.4343 20.6899 9.50047C20.6899 9.56664 20.6637 9.63011 20.617 9.67697ZM22.011 15.942V18C22.0102 18.7954 21.6939 19.558 21.1314 20.1204C20.569 20.6829 19.8064 20.9992 19.011 21H15.719L17.354 22.634L16.647 23.341L13.799 20.494L16.647 17.646L17.354 18.353L15.707 20H19.011C19.5413 19.9994 20.0497 19.7886 20.4246 19.4136C20.7996 19.0386 21.0105 18.5302 21.011 18V15.942H22.011ZM4 8.99997H3V6.99997C3.00079 6.20457 3.31712 5.44197 3.87956 4.87953C4.44199 4.31709 5.20459 4.00077 6 3.99997H9.293L7.646 2.35397L8.353 1.64697L11.201 4.49397L8.354 7.33997L7.647 6.63297L9.28 4.99997H6C5.46973 5.0005 4.96133 5.21139 4.58637 5.58634C4.21141 5.9613 4.00053 6.4697 4 6.99997V8.99997Z" fill="#007261"/>
</svg>
