<svg xmlns="http://www.w3.org/2000/svg" width="48" height="48" viewBox="0 0 48 48" fill="none">
  <path fill-rule="evenodd" clip-rule="evenodd" d="M0 18.4603C7.6613 16.9797 16.1238 16.7229 25.8796 17.8508C34.0724 26.6222 37.9844 34.0111 40.7682 41.2914C30.5577 30.4065 17.7556 22.0332 0 18.4603Z" fill="#4DA2E7"/>
  <path fill-rule="evenodd" clip-rule="evenodd" d="M9.71875 10.913C17.5515 9.8336 22.7174 10.1331 30.6138 11.3112C35.2092 15.27 42.53 23.1498 45.3138 30.4301C35.1033 19.5452 28.2775 14.0584 9.71875 10.913Z" fill="#82BEEE"/>
  <path fill-rule="evenodd" clip-rule="evenodd" d="M14.6328 6C22.6127 6.1734 27.1889 6.7151 35.0854 7.8932C38.815 11.2993 42.6817 15.1215 47.3876 21.4673C35.1797 10.8801 33.1917 9.1453 14.6328 6Z" fill="#A6D0F3"/>
</svg>