<svg xmlns="http://www.w3.org/2000/svg" width="48" height="48" viewBox="0 0 48 48" fill="none">
  <path fill-rule="evenodd" clip-rule="evenodd" d="M25.9403 48H22.0603V45.058H20.2933V41.427L12.4713 41.419L12.4803 32.166H10.6373L10.6313 31.352H8.35528V30.108H6.92728V28.254H8.35528V26.624H10.5773L9.93728 25.638H6.22728C5.71128 25.638 5.37428 26.278 5.37428 26.278L4.73828 26.078C4.79688 25.8151 4.87928 25.558 4.98428 25.31C5.08428 25.027 5.31128 24.472 5.31128 24.472L5.34128 24.397C5.39228 24.275 5.44128 24.154 5.50228 24.036C5.80228 23.3163 6.33518 22.7175 7.01528 22.336C7.10618 22.2918 7.20008 22.2541 7.29628 22.223C7.46918 22.168 7.64818 22.1345 7.82928 22.123C7.88428 22.123 7.93928 22.123 7.99428 22.123L8.00928 22.086L8.03228 22.032C8.09848 21.8836 8.18318 21.7442 8.28428 21.617C8.34998 21.5386 8.42218 21.466 8.50028 21.4C8.81488 21.117 9.19778 20.9209 9.61128 20.831L9.59228 17.356L11.4653 17.362L11.4603 14.9L13.2933 14.889L13.3003 13.248L14.4173 13.243L13.1213 11H11.3813L14.2813 8.093L19.2723 8.099V2.599H22.1003V0H25.9003V2.6H28.7243V8.1L33.7153 8.094L36.6193 11H34.8793L33.5793 13.245L34.6963 13.25L34.7033 14.891L36.5363 14.902L36.5283 17.36L38.4023 17.354L38.3833 20.829C38.7991 20.9185 39.1843 21.1154 39.5003 21.4C39.5802 21.469 39.6538 21.545 39.7203 21.627C39.8214 21.7542 39.9061 21.8936 39.9723 22.042L39.9953 22.096L40.0093 22.133C40.0643 22.133 40.1193 22.133 40.1743 22.133C40.3554 22.1445 40.5344 22.178 40.7073 22.233C40.8035 22.2641 40.8974 22.3018 40.9883 22.346C41.6684 22.7275 42.2013 23.3263 42.5013 24.046C42.5583 24.165 42.6113 24.286 42.6623 24.407L42.6923 24.482C42.6923 24.482 42.9193 25.038 43.0193 25.32C43.1243 25.568 43.2067 25.8251 43.2653 26.088L42.6293 26.288C42.6293 26.288 42.2923 25.648 41.7763 25.648H38.0663L37.4263 26.634H39.6483V28.264H41.0773V30.1H39.6423V31.344H37.3733L37.3673 32.158H35.5253L35.5343 41.411L27.7123 41.419V45.05H25.9403V48Z" fill="url(#paint0_linear_520_5025)"/>
  <path fill-rule="evenodd" clip-rule="evenodd" d="M25.1249 47.2001H22.8749V44.258H21.1109V41.419H22.8789V43.047H25.1219V41.419H26.8899V44.258H25.1249V47.2001ZM34.6949 40.619H13.3059V31.719H34.6939L34.6949 40.619ZM31.1719 39.55C31.1811 39.5994 31.1773 39.6505 31.1609 39.698C31.1402 39.76 31.1137 39.82 31.0819 39.877C31.0444 39.9459 30.995 40.0075 30.9359 40.059C30.9123 40.0876 30.8794 40.1071 30.8429 40.114C30.8052 40.1013 30.771 40.0801 30.7429 40.052C30.7009 40.0173 30.6569 39.9817 30.6109 39.945C30.5758 39.9185 30.5424 39.8897 30.5109 39.859C30.4884 39.8423 30.473 39.8176 30.4679 39.79C30.4959 39.731 30.5179 39.685 30.5319 39.653C30.5799 39.5517 30.6156 39.4783 30.6389 39.433C30.6816 39.3663 30.7246 39.2953 30.7679 39.22L30.8109 39.158C30.8241 39.1707 30.8385 39.182 30.8539 39.192L30.9109 39.226C30.9833 39.2789 31.0503 39.3389 31.1109 39.405C31.1443 39.4467 31.1663 39.4963 31.1749 39.549L31.1719 39.55ZM25.8159 38.558C26.1385 38.5589 26.4604 38.5279 26.7769 38.465C27.0573 38.4104 27.3333 38.3355 27.6029 38.241C27.8467 38.1533 28.0775 38.0329 28.2889 37.883C28.4887 37.7453 28.669 37.5811 28.8249 37.3951C28.8676 37.3397 28.9342 37.2527 29.0249 37.134C29.0679 37.074 29.0989 37.034 29.1179 37.01C29.1369 36.986 29.1419 36.991 29.1469 36.996C29.1526 37.0038 29.1551 37.0134 29.1539 37.023L29.1469 37.099C29.1422 37.1404 29.1316 37.2287 29.1149 37.364C29.0994 37.4827 29.091 37.6023 29.0899 37.722C29.084 37.9005 29.1142 38.0785 29.1789 38.245C29.2304 38.3769 29.3626 38.4608 29.5039 38.451C29.6039 38.451 29.7016 38.3767 29.7969 38.228C29.9101 38.0329 29.9898 37.8203 30.0329 37.599L30.0509 37.51C30.057 37.4827 30.0606 37.4549 30.0619 37.427C30.0619 37.381 30.0499 37.358 30.0259 37.358C30.0019 37.358 29.9909 37.379 29.9799 37.42C29.9689 37.461 29.9569 37.498 29.9479 37.53C29.8959 37.672 29.8362 37.743 29.7689 37.743C29.6904 37.7453 29.613 37.7236 29.5469 37.681C29.4321 37.5853 29.373 37.4376 29.3899 37.289V37.182C29.3899 37.0993 29.3972 36.9767 29.4119 36.814C29.4279 36.6334 29.4492 36.4533 29.4759 36.274L29.6259 35.552C29.6326 35.5167 29.6396 35.4813 29.6469 35.446L29.8139 35.333L30.4819 34.827C30.6732 34.7038 30.8639 34.579 31.0539 34.453C31.2186 34.3438 31.3806 34.231 31.5399 34.115C31.7972 33.927 31.9902 33.7837 32.1189 33.685C32.2902 33.5517 32.4119 33.4557 32.4839 33.397C32.5559 33.3383 32.6262 33.274 32.6949 33.204C32.7809 33.122 32.8632 33.037 32.9419 32.949C33.0124 32.8678 33.0769 32.7816 33.1349 32.691C33.1929 32.6123 33.2388 32.5253 33.2709 32.433C33.2805 32.4163 33.2853 32.3973 33.2849 32.378C33.2849 32.386 33.1062 32.5373 32.7489 32.832C32.5629 32.9893 32.3746 33.1447 32.1839 33.298C31.9792 33.4607 31.7696 33.6184 31.5549 33.771C31.2509 33.9831 30.9459 34.1937 30.6399 34.403C30.3447 34.6124 30.0618 34.8388 29.7929 35.081C29.729 35.136 29.6734 35.2001 29.6279 35.271C29.6192 35.283 29.6112 35.2952 29.6039 35.308C29.5713 35.3629 29.5419 35.4197 29.5159 35.478L29.4839 35.541C29.4233 35.6541 29.3708 35.7714 29.3269 35.892L29.2269 36.284C29.177 36.4656 29.0972 36.6376 28.9909 36.793C28.8435 36.9884 28.6559 37.15 28.4409 37.267C27.8522 37.5922 27.1967 37.778 26.5249 37.81C26.3629 37.824 26.1462 37.831 25.8749 37.831C25.5484 37.8757 25.2164 37.8027 24.9389 37.625C24.8799 37.5596 24.8447 37.476 24.8389 37.388C24.8319 37.298 24.8209 37.254 24.8069 37.254C24.7689 37.254 24.7392 37.3321 24.7179 37.488C24.6969 37.6384 24.6863 37.7901 24.6859 37.942C24.6751 38.0807 24.7145 38.2188 24.7969 38.331C24.9128 38.4354 25.0595 38.4993 25.2149 38.513C25.3803 38.5389 25.5475 38.5507 25.7149 38.548L25.8159 38.558ZM18.4719 36.7C18.4673 36.7925 18.4552 36.8844 18.4359 36.975C18.4119 37.103 18.3879 37.2153 18.3639 37.312L18.2779 37.649C18.2299 37.777 18.1919 37.871 18.1639 37.931C18.1287 38.0042 18.0893 38.0753 18.0459 38.144C18.0162 38.1922 17.9787 38.2351 17.9349 38.271C17.8741 38.3143 17.8095 38.3522 17.7419 38.384L17.4849 38.484C17.4298 38.5011 17.3737 38.5148 17.3169 38.525C17.2617 38.5385 17.2055 38.5479 17.1489 38.553C17.1249 38.553 17.1109 38.545 17.1059 38.529C17.102 38.5086 17.1071 38.4874 17.1199 38.471C17.1697 38.4041 17.2306 38.3463 17.2999 38.3C17.3979 38.2267 17.4946 38.1557 17.5899 38.087C17.6992 37.9903 17.7802 37.9147 17.8329 37.86C17.9148 37.7746 17.9867 37.6799 18.0469 37.578C18.0712 37.5328 18.0917 37.4857 18.1079 37.437C18.1339 37.3663 18.1756 37.2507 18.2329 37.09L18.3189 36.842C18.3282 36.8053 18.3426 36.7607 18.3619 36.708C18.3809 36.656 18.4049 36.629 18.4339 36.629C18.4518 36.6484 18.4642 36.6722 18.4699 36.698L18.4719 36.7ZM23.7009 37.479V37.4851C23.8009 37.3871 23.8602 37.327 23.8789 37.305C23.9534 37.2206 24.0139 37.1247 24.0579 37.021C24.1157 36.8766 24.1576 36.7264 24.1829 36.573C24.2128 36.4311 24.2305 36.2869 24.2359 36.142C24.2359 36.022 24.2359 35.896 24.2359 35.764C24.2359 35.632 24.2442 35.4987 24.2609 35.364C24.2609 35.239 24.2679 35.1641 24.2679 35.1301C24.2679 35.1241 24.2679 35.118 24.2679 35.113C24.2829 35.105 24.3019 35.093 24.3239 35.079L24.5349 34.9351L25.0459 34.5891C25.2459 34.4604 25.4432 34.3304 25.6379 34.1991C25.8086 34.0851 25.9752 33.9671 26.1379 33.8451C26.4046 33.6451 26.6046 33.4943 26.7379 33.393C26.9166 33.255 27.0432 33.155 27.1179 33.093C27.1926 33.031 27.2666 32.9623 27.3399 32.8871C27.4306 32.7998 27.5176 32.709 27.6009 32.615C27.6764 32.5271 27.7455 32.4337 27.8079 32.336C27.8708 32.2498 27.9213 32.1553 27.9579 32.055C27.9685 32.0364 27.9743 32.0154 27.9749 31.994C27.9749 32.0033 27.7879 32.1637 27.4139 32.475C27.2192 32.6418 27.0226 32.8063 26.8239 32.969C26.6106 33.141 26.3922 33.3077 26.1689 33.469C25.8536 33.691 25.5372 33.9114 25.2199 34.1301C24.976 34.292 24.7422 34.4686 24.5199 34.659C24.4525 34.7173 24.3936 34.7845 24.3449 34.8591C24.2969 34.9336 24.2545 35.0113 24.2179 35.092L24.2059 35.12V35.126L23.9639 35.687C23.9413 35.7434 23.9291 35.8033 23.9279 35.864C23.9232 35.942 23.9209 36.0323 23.9209 36.135L23.9279 36.583C23.9346 36.7291 23.9104 36.8749 23.8569 37.011C23.8347 37.0573 23.8072 37.101 23.7749 37.141C23.7523 37.1713 23.7245 37.1973 23.6929 37.218L23.6499 37.238C23.616 37.2419 23.5817 37.2374 23.5499 37.225C23.5259 37.261 23.5019 37.2941 23.4779 37.3251C23.4399 37.3751 23.3876 37.4124 23.3279 37.432C23.2996 37.4474 23.2643 37.442 23.2419 37.419C23.2089 37.45 23.1779 37.4821 23.1489 37.5131C23.104 37.5608 23.0424 37.5894 22.9769 37.593C22.9123 37.5933 22.8478 37.5887 22.7839 37.579C22.6786 37.6503 22.5759 37.7217 22.4759 37.793C22.3907 37.8477 22.2911 37.8755 22.1899 37.8731C22.02 37.8879 21.855 37.8083 21.7609 37.666C21.7039 37.5617 21.6769 37.4437 21.6829 37.3251C21.6829 37.271 21.6829 37.185 21.6969 37.064C21.7089 36.9207 21.7256 36.778 21.7469 36.636L21.8689 35.82L21.8979 35.646C21.9063 35.611 21.9087 35.5748 21.9049 35.539L21.8759 35.552C21.8332 35.6367 21.7762 35.7613 21.7049 35.926C21.6336 36.0907 21.5956 36.182 21.5909 36.2001C21.5576 36.4188 21.5146 36.7341 21.4619 37.146C21.4092 37.558 21.3829 37.7914 21.3829 37.8461C21.384 37.9076 21.3887 37.969 21.3969 38.03C21.4018 38.0882 21.4135 38.1456 21.4319 38.201C21.4818 38.4086 21.6694 38.5559 21.8829 38.555C22.0804 38.5457 22.2594 38.4341 22.3549 38.261C22.4882 38.065 22.5956 37.967 22.6769 37.967L22.7769 37.9771C22.8041 37.9807 22.8317 37.9807 22.8589 37.9771C22.9104 37.9573 22.9576 37.9277 22.9979 37.89C23.0387 37.854 23.0817 37.8205 23.1269 37.7901C23.1576 37.7729 23.1918 37.7626 23.2269 37.76C23.2573 37.7579 23.2868 37.7487 23.3129 37.733C23.3509 37.697 23.3829 37.669 23.4129 37.649C23.4371 37.63 23.4637 37.6143 23.4919 37.6021C23.5179 37.591 23.5719 37.565 23.6529 37.525L23.6959 37.4911L23.7009 37.479ZM17.7859 34.785C17.7909 34.7698 17.7883 34.7531 17.7789 34.7401C17.7653 34.7236 17.7482 34.7103 17.7289 34.701C17.6406 34.7202 17.5561 34.754 17.4789 34.801C17.387 34.8478 17.2984 34.9009 17.2139 34.96C17.1232 35.0227 17.0492 35.0778 16.9919 35.125C16.8622 35.2398 16.7403 35.3631 16.6269 35.494C16.475 35.6646 16.3474 35.8554 16.2479 36.0611C16.1695 36.2084 16.1231 36.3705 16.1119 36.537C16.1079 36.6063 16.128 36.6749 16.1689 36.731C16.2132 36.7828 16.2695 36.823 16.3329 36.848C16.365 36.8629 16.3985 36.8746 16.4329 36.883C16.4616 36.8897 16.5092 36.9028 16.5759 36.9221C16.6426 36.9413 16.6759 36.9703 16.6759 37.009C16.6714 37.0878 16.6454 37.1639 16.6009 37.229C16.5394 37.3251 16.4662 37.4132 16.3829 37.4911C16.2785 37.5899 16.1577 37.6698 16.0259 37.7271C15.8399 37.8127 15.6376 37.857 15.4329 37.857C15.2299 37.8695 15.0282 37.8162 14.8579 37.7051C14.7272 37.6099 14.6521 37.4556 14.6579 37.294C14.6819 37.0372 14.752 36.7869 14.8649 36.555L14.9509 36.3741C15.0082 36.2533 15.0512 36.167 15.0799 36.1151C15.1319 36.0151 15.1669 35.945 15.1799 35.904C15.1929 35.863 15.2189 35.81 15.2479 35.745C15.2584 35.7229 15.2632 35.6986 15.2619 35.674C15.2619 35.635 15.2449 35.6161 15.2119 35.6161C15.1979 35.6161 15.1799 35.633 15.1579 35.668C15.1359 35.703 15.1159 35.7371 15.0969 35.7681L14.9329 36.086L14.7259 36.494C14.6395 36.6635 14.5653 36.839 14.5039 37.0191C14.4667 37.1281 14.4379 37.2397 14.4179 37.3531C14.3985 37.4654 14.3888 37.5791 14.3889 37.6931C14.39 37.7906 14.4044 37.8874 14.4319 37.981C14.4624 38.0859 14.5134 38.1838 14.5819 38.2691C14.7462 38.4621 14.9945 38.5635 15.2469 38.541C15.4902 38.5461 15.7301 38.4833 15.9399 38.3601C16.0459 38.2985 16.1443 38.2248 16.2329 38.14C16.3179 38.0597 16.3968 37.9731 16.4689 37.8811C16.61 37.6802 16.7187 37.4585 16.7909 37.224C16.8656 37.0079 16.9068 36.7817 16.9129 36.5531C16.9277 36.4448 16.8843 36.3363 16.7989 36.2681C16.776 36.2514 16.7507 36.2383 16.7239 36.229L16.6349 36.197L16.5059 36.1381C16.4767 36.1085 16.459 36.0695 16.4559 36.028C16.4742 35.9641 16.5086 35.9058 16.5559 35.8591C16.6417 35.7556 16.7386 35.6622 16.8449 35.5801C16.9328 35.5018 17.0315 35.4365 17.1379 35.3861C17.2091 35.3493 17.287 35.3272 17.3669 35.321C17.3834 35.3218 17.3994 35.3274 17.4129 35.3371L17.4669 35.3731C17.4959 35.3731 17.5289 35.347 17.5669 35.2951C17.5769 35.2821 17.6039 35.2311 17.6489 35.1431C17.6857 35.0758 17.7191 35.0068 17.7489 34.9361C17.768 34.8869 17.7824 34.8359 17.7919 34.784L17.7859 34.785ZM20.7709 37.563L20.6709 37.8171C20.6284 37.9081 20.5768 37.9944 20.5169 38.0751C20.4768 38.1351 20.4276 38.1883 20.3709 38.233C20.303 38.2715 20.2313 38.3027 20.1569 38.326L20.0069 38.3811C19.9302 38.405 19.8539 38.4304 19.7779 38.4571C19.7037 38.4821 19.6269 38.4981 19.5489 38.5051L19.5199 38.4911C19.5199 38.459 19.6056 38.3904 19.7769 38.285L20.0559 38.093C20.1032 38.061 20.1556 38.022 20.2129 37.976C20.2794 37.9219 20.3419 37.8631 20.3999 37.8C20.459 37.7395 20.5041 37.6668 20.5319 37.587C20.5326 37.5731 20.535 37.5595 20.5389 37.5461L20.3529 37.5601C20.274 37.563 20.197 37.5345 20.1389 37.481C20.086 37.4394 20.0587 37.3728 20.0669 37.306C20.0739 37.2612 20.0859 37.2171 20.1029 37.175C20.1219 37.125 20.1649 37.0331 20.2319 36.9001C20.2688 36.8234 20.312 36.7497 20.3609 36.68C20.4229 36.597 20.4829 36.556 20.5399 36.556C20.6363 36.5566 20.7277 36.5994 20.7899 36.673C20.861 36.7495 20.8994 36.8507 20.8969 36.955C20.8969 37.0103 20.8922 37.0655 20.8829 37.12L20.8579 37.264C20.8509 37.305 20.8399 37.355 20.8259 37.412C20.8139 37.4628 20.7971 37.5124 20.7759 37.5601L20.7709 37.563ZM19.6939 36.646C19.6892 36.7385 19.6772 36.8304 19.6579 36.921C19.6339 37.049 19.6099 37.1614 19.5859 37.258L19.4999 37.6C19.4519 37.7287 19.4139 37.8228 19.3859 37.882C19.3507 37.9552 19.3113 38.0263 19.2679 38.095C19.238 38.143 19.2005 38.186 19.1569 38.222C19.096 38.2654 19.0314 38.3032 18.9639 38.335L18.7069 38.435C18.6518 38.4521 18.5957 38.4658 18.5389 38.476C18.4837 38.4895 18.4275 38.4989 18.3709 38.504C18.3469 38.504 18.3329 38.496 18.3279 38.48C18.324 38.4596 18.3291 38.4384 18.3419 38.422C18.3921 38.3545 18.4537 38.2963 18.5239 38.25C18.6219 38.1768 18.7186 38.1057 18.8139 38.037C18.9232 37.941 19.0042 37.8653 19.0569 37.81C19.1388 37.7245 19.2107 37.6299 19.2709 37.528C19.2952 37.4828 19.3156 37.4357 19.3319 37.387C19.3579 37.3157 19.3996 37.2 19.4569 37.04L19.5429 36.792C19.5529 36.7551 19.5669 36.711 19.5859 36.658C19.6049 36.605 19.6289 36.579 19.6579 36.579C19.6754 36.5979 19.6878 36.621 19.6939 36.646ZM30.7639 37.19C30.7639 37.135 30.7639 37.0461 30.7779 36.9221C30.7899 36.7747 30.8066 36.628 30.8279 36.482L30.9499 35.6431L30.9789 35.4641C30.9875 35.4281 30.9899 35.3909 30.9859 35.354L30.9569 35.368C30.9142 35.4553 30.8569 35.5837 30.7849 35.753C30.7129 35.9223 30.6749 36.0163 30.6709 36.035C30.6376 36.2598 30.5946 36.584 30.5419 37.008C30.4892 37.432 30.4629 37.6707 30.4629 37.724C30.457 37.9025 30.4872 38.0806 30.5519 38.2471C30.6034 38.379 30.7356 38.4627 30.8769 38.453C30.9769 38.453 31.0746 38.3787 31.1699 38.23C31.2831 38.035 31.3628 37.8223 31.4059 37.6011L31.4239 37.5121C31.43 37.4847 31.4336 37.457 31.4349 37.4291C31.4349 37.383 31.4229 37.3601 31.3989 37.3601C31.3749 37.3601 31.3649 37.3811 31.3529 37.4221L31.3209 37.5321C31.2682 37.674 31.2086 37.745 31.1419 37.745C31.0634 37.7472 30.986 37.7256 30.9199 37.683C30.8051 37.5872 30.746 37.4397 30.7629 37.291V37.1911L30.7639 37.19ZM18.7999 35.1431C18.8091 35.1926 18.8053 35.2435 18.7889 35.291C18.768 35.353 18.7416 35.413 18.7099 35.4701C18.6724 35.5389 18.623 35.6006 18.5639 35.6521C18.5403 35.6808 18.5074 35.7002 18.4709 35.7071C18.4332 35.6945 18.3989 35.6732 18.3709 35.6451C18.3269 35.6083 18.2816 35.5727 18.2349 35.538C18.1998 35.5115 18.1664 35.4828 18.1349 35.452C18.1124 35.4353 18.097 35.4106 18.0919 35.383C18.1206 35.3237 18.1419 35.278 18.1559 35.246C18.2039 35.146 18.2389 35.0721 18.2629 35.0261C18.3059 34.9571 18.3489 34.8861 18.3919 34.813L18.4349 34.751C18.4481 34.764 18.4625 34.7757 18.4779 34.786L18.5349 34.82C18.6074 34.8728 18.6744 34.9328 18.7349 34.9991C18.7686 35.0406 18.791 35.0903 18.7999 35.1431ZM22.5469 34.229C22.5383 34.1763 22.5162 34.1267 22.4829 34.085C22.4223 34.0188 22.3553 33.9589 22.2829 33.906L22.2259 33.872C22.2105 33.8621 22.1961 33.8507 22.1829 33.838L22.1399 33.9C22.0972 33.9733 22.0542 34.0443 22.0109 34.113C21.9869 34.159 21.9512 34.2323 21.9039 34.333C21.8899 34.3651 21.8679 34.411 21.8399 34.47C21.8451 34.4976 21.8604 34.5222 21.8829 34.539C21.9144 34.5697 21.9478 34.5985 21.9829 34.625C22.0289 34.659 22.0742 34.6943 22.1189 34.731C22.1468 34.7593 22.1811 34.7806 22.2189 34.793C22.2554 34.7862 22.2884 34.7668 22.3119 34.738C22.3713 34.6866 22.421 34.625 22.4589 34.556C22.4907 34.499 22.5171 34.439 22.5379 34.377C22.5543 34.3295 22.5581 34.2785 22.5489 34.229H22.5469ZM23.2829 34.188C23.2921 34.2375 23.2883 34.2884 23.2719 34.336C23.2511 34.398 23.2247 34.458 23.1929 34.515C23.1555 34.584 23.1061 34.6456 23.0469 34.697C23.0234 34.7258 22.9904 34.7452 22.9539 34.752C22.9162 34.7393 22.882 34.7181 22.8539 34.69C22.8099 34.6533 22.7646 34.6177 22.7179 34.583C22.6828 34.5565 22.6494 34.5278 22.6179 34.497C22.5954 34.4802 22.5801 34.4556 22.5749 34.428C22.6039 34.369 22.6249 34.322 22.6389 34.291C22.6736 34.217 22.7092 34.1437 22.7459 34.071C22.7826 33.9983 22.8256 33.9273 22.8749 33.858L22.9179 33.796C22.931 33.8088 22.9454 33.8202 22.9609 33.83L23.0179 33.865C23.0903 33.9179 23.1573 33.9779 23.2179 34.044C23.2519 34.0855 23.2737 34.1352 23.2829 34.188ZM29.8499 34.1371C29.859 34.1866 29.8552 34.2374 29.8389 34.285C29.8182 34.347 29.7917 34.407 29.7599 34.4641C29.7223 34.5329 29.6729 34.5944 29.6139 34.646C29.5903 34.6748 29.5574 34.6942 29.5209 34.701C29.4832 34.6884 29.449 34.6671 29.4209 34.639C29.3769 34.6023 29.3316 34.5667 29.2849 34.5321C29.2497 34.5056 29.2163 34.4769 29.1849 34.446C29.1624 34.4293 29.147 34.4046 29.1419 34.377C29.1706 34.3177 29.1919 34.272 29.2059 34.24C29.2539 34.14 29.2889 34.0661 29.3129 34.0201C29.3559 33.951 29.3989 33.8801 29.4419 33.807L29.4849 33.745C29.4981 33.758 29.5125 33.7697 29.5279 33.78L29.5849 33.814C29.6574 33.8668 29.7245 33.9268 29.7849 33.993C29.8191 34.0345 29.8408 34.0842 29.8499 34.1371ZM22.9109 33.337C22.902 33.2842 22.8796 33.2346 22.8459 33.1931C22.7855 33.1267 22.7185 33.0667 22.6459 33.014L22.5889 32.98C22.5734 32.9702 22.559 32.9588 22.5459 32.946L22.5029 33.008C22.4599 33.0811 22.4169 33.1521 22.3739 33.2211C22.3499 33.2671 22.3139 33.34 22.2669 33.441C22.2529 33.473 22.2309 33.5191 22.2019 33.578C22.207 33.6056 22.2224 33.6303 22.2449 33.647C22.2739 33.675 22.3079 33.704 22.3449 33.737L22.4809 33.844C22.5094 33.8707 22.5436 33.8907 22.5809 33.9021C22.6174 33.8952 22.6503 33.8758 22.6739 33.847C22.733 33.7956 22.7824 33.7339 22.8199 33.6651C22.8516 33.608 22.8781 33.548 22.8989 33.486C22.9153 33.4384 22.919 33.3876 22.9099 33.3381L22.9109 33.337ZM19.5439 8.84905L20.8149 11.049V21.48L23.5999 23.5061V30.923H20.3569V24.091L17.1569 20.891V13.18L15.2869 9.94105H13.5789L14.6789 8.84105L19.5439 8.84905ZM16.7609 21.627L19.5609 24.427V30.927H16.9309L12.9719 24.839H6.04688C6.59887 23.402 7.50687 22.539 8.64687 23.114C8.65887 22.2 8.98888 21.631 10.5309 21.631L16.7609 21.627ZM12.5369 25.635L15.9759 30.923H14.3399L10.9089 25.635H12.5369ZM27.6429 30.923H24.3999V23.5061L27.1849 21.481V11.05L28.4559 8.85005H33.3179L34.4179 9.95005H32.7099L30.8399 13.189V20.9L27.6399 24.1L27.6429 30.923ZM35.0279 24.835L31.0689 30.923H28.4429V24.423L31.2429 21.623H37.4699C39.0119 21.623 39.3429 22.192 39.3539 23.106C40.4969 22.528 41.4049 23.394 41.9539 24.831L35.0279 24.835ZM32.0279 30.923L35.4669 25.635H37.0959L33.6599 30.923H32.0279ZM12.4579 29.492H10.5339V28.582H11.8669L12.4579 29.492ZM37.4669 29.492H35.5419L36.1329 28.582H37.4659L37.4669 29.492ZM25.0789 3.40005H27.8999L27.9089 8.20005L26.3849 10.84V21.077L24.3999 22.517V20.143L25.1119 19.625V4.83605H22.8879V19.624L23.5999 20.142V22.516L21.6149 21.072V10.836L20.0909 8.20005L20.0999 3.40005H22.9209V0.800049H25.0799L25.0789 3.40005ZM13.9419 20.827H14.7419V18.442H13.9419V20.827ZM15.5619 20.827H16.3619V13.4L14.8299 10.746H13.9229L15.5619 13.585V20.827ZM33.2619 20.827H34.0619V18.442H33.2619V20.827ZM32.4419 20.827H31.6419V13.4L33.1739 10.746H34.0809L32.4419 13.585V20.827Z" fill="#1F261A"/>
  <defs>
    <linearGradient id="paint0_linear_520_5025" x1="43.2653" y1="0" x2="4.73828" y2="0" gradientUnits="userSpaceOnUse">
      <stop stop-color="#D8AC4E"/>
      <stop offset="1" stop-color="#ECE482"/>
    </linearGradient>
  </defs>
</svg>