<svg xmlns="http://www.w3.org/2000/svg" width="48" height="48" viewBox="0 0 48 48" fill="none">
  <path fill-rule="evenodd" clip-rule="evenodd" d="M44.8415 47.9999H24.7581V28.3585C25.0269 25.193 25.5031 22.2776 26.671 20.1966C27.3652 20.5862 28.6042 22.3089 28.9739 25.6422C29.8799 24.0062 30.9832 22.1721 32.985 21.0089C33.1199 24.6193 32.905 25.9931 31.8932 28.5065C30.4727 32.0351 26.5639 32.8566 26.5639 32.8566V46.1941H43.0357C43.0357 35.339 43.2405 24.4819 43.034 13.6287C43.0304 13.5198 43.0243 13.4113 43.0154 13.3027C42.9655 12.7786 42.8416 12.2654 42.6363 11.7801C42.1312 10.5859 41.1658 9.61252 39.9804 9.09342L39.9789 9.09272C40.3367 8.54462 40.7024 8.05132 41.0642 7.60922C41.712 7.93862 42.3071 8.37022 42.8215 8.88462C43.5484 9.61142 44.11 10.4996 44.4516 11.4693C44.7112 12.2064 44.8366 12.9803 44.8415 13.761V47.9999ZM23.2397 47.9999H3.15625V13.761C3.16115 12.9803 3.28655 12.2064 3.54615 11.4693C3.88775 10.4996 4.44925 9.61142 5.17615 8.88462C5.69055 8.37022 6.28575 7.93862 6.93355 7.60922C7.29535 8.05132 7.66105 8.54462 8.01885 9.09272L8.01725 9.09342C6.83185 9.61252 5.86655 10.5859 5.36145 11.7801C5.15615 12.2654 5.03225 12.7786 4.98235 13.3027C4.97335 13.4113 4.96725 13.5198 4.96375 13.6287C4.75725 24.4819 4.96205 35.339 4.96205 46.1941H21.4338V32.8566C21.4338 32.8566 17.525 32.0351 16.1046 28.5065C15.0928 25.9931 14.8778 24.6193 15.0127 21.0089C17.0145 22.1721 18.1179 24.0062 19.0239 25.6422C19.3934 22.3089 20.6325 20.5862 21.3267 20.1966C22.4946 22.2776 22.9708 25.193 23.2397 28.3585V47.9999ZM31.5885 1.22852C31.5719 1.39282 31.5494 1.55662 31.5207 1.71972C31.4805 1.94822 31.4289 2.17452 31.3671 2.39802C30.8577 4.23762 29.6737 5.80252 28.3891 7.17782C28.1506 7.43312 27.9069 7.68352 27.6609 7.93152C27.4291 8.16502 27.1952 8.39632 26.9615 8.62772C27.3434 9.74832 27.7841 10.8486 28.2786 11.9242C28.4802 12.3626 28.6912 12.7963 28.91 13.2261C29.5305 12.2663 30.2164 11.3487 30.9587 10.4813C31.5244 9.82032 32.1238 9.18702 32.7556 8.58782C32.2769 7.67892 32.0025 6.67222 31.8278 5.66252C31.5751 4.20112 31.526 2.71002 31.5885 1.22852ZM16.4093 1.22852C16.4258 1.39282 16.4483 1.55662 16.477 1.71972C16.5173 1.94822 16.5688 2.17452 16.6307 2.39802C17.1401 4.23762 18.324 5.80252 19.6087 7.17782C19.8472 7.43312 20.0908 7.68352 20.3368 7.93152C20.5686 8.16502 20.8026 8.39632 21.0363 8.62772C20.6544 9.74832 20.2136 10.8486 19.7192 11.9242C19.5176 12.3626 19.3066 12.7963 19.0878 13.2261C18.4673 12.2663 17.7812 11.3487 17.0391 10.4813C16.4734 9.82032 15.8738 9.18702 15.2421 8.58782C15.7207 7.67892 15.9953 6.67222 16.17 5.66252C16.4227 4.20112 16.4718 2.71002 16.4093 1.22852Z" fill="#B27D53"/>
  <path fill-rule="evenodd" clip-rule="evenodd" d="M42.9827 4.55519C39.8103 6.84139 36.0996 11.8376 35.6623 17.095C35.3062 21.3773 34.5745 23.2484 34.0281 24.0496C34.2702 22.6058 34.2687 20.6425 33.9976 19.0596C33.3913 19.3279 32.3851 19.9462 31.4638 20.8622C31.3493 20.4876 30.4092 18.5632 27.3123 19.4166C27.4613 18.9371 27.6256 18.4628 27.8084 17.9947C28.2457 16.875 28.7751 15.7915 29.3841 14.7543C29.3882 14.7476 29.3921 14.7409 29.3959 14.7341C30.0515 13.6199 30.7989 12.5594 31.6224 11.565C32.3227 10.7192 33.0803 9.91889 33.8914 9.17739C33.9157 9.15859 33.9386 9.13769 33.96 9.11489C34.5509 8.57909 35.17 8.07449 35.8156 7.60629C37.6233 6.29539 39.6645 5.24999 41.8518 4.75539C42.2259 4.67089 42.603 4.60509 42.9827 4.55519ZM5.01953 4.55519C8.19193 6.84139 11.9026 11.8376 12.3399 17.095C12.696 21.3773 13.4277 23.2484 13.9741 24.0496C13.732 22.6058 13.7335 20.6425 14.0046 19.0596C14.6109 19.3279 15.6171 19.9462 16.5384 20.8622C16.6529 20.4876 17.593 18.5632 20.6899 19.4166C20.5409 18.9371 20.3766 18.4628 20.1938 17.9947C19.7565 16.875 19.2271 15.7915 18.6181 14.7543C18.614 14.7476 18.6101 14.7409 18.6063 14.7341C17.9507 13.6199 17.2033 12.5594 16.3798 11.565C15.6795 10.7192 14.9219 9.91889 14.1108 9.17739C14.0865 9.15859 14.0636 9.13769 14.0422 9.11489C13.4513 8.57909 12.8322 8.07449 12.1866 7.60629C10.3789 6.29539 8.33773 5.24999 6.15043 4.75539C5.77633 4.67089 5.39923 4.60509 5.01953 4.55519ZM25.9189 19.8861C25.5716 19.6322 25.0221 19.176 23.9884 19.1792C22.9546 19.1825 22.4184 19.6411 22.0833 19.8861C21.8253 18.2621 20.7586 16.314 19.8214 14.4305C20.2422 13.635 21.5003 10.869 21.836 9.82179C22.7275 7.04109 23.5054 3.63249 24.0011 1.79459C24.4775 3.63759 25.2559 7.16369 26.1662 9.82179C26.5225 10.8622 27.76 13.635 28.1808 14.4305C27.2436 16.314 26.1769 18.2621 25.9189 19.8861ZM32.9318 3.22739C33.1717 1.32319 35.3229 1.18269 36.6494 1.62689C38.5556 2.26529 39.2131 4.04589 37.682 5.03469C36.9431 5.51189 36.1493 5.90119 35.4308 6.40259C34.8273 6.82379 34.2452 7.27519 33.6854 7.75299L33.6764 7.73329C33.0317 5.66069 32.7978 4.29069 32.9318 3.22739ZM15.0704 3.22739C14.8305 1.32319 12.6793 1.18269 11.3528 1.62689C9.44663 2.26529 8.78913 4.04589 10.3202 5.03469C11.0591 5.51189 11.8529 5.90119 12.5714 6.40259C13.1749 6.82379 13.757 7.27519 14.3168 7.75299L14.3258 7.73329C14.9705 5.66069 15.2044 4.29069 15.0704 3.22739ZM25.4592 2.33879C25.2383 0.834591 26.8126 -0.146709 27.9387 0.0179909C28.6788 0.126191 30.6874 0.639091 30.1228 2.36189C29.9027 3.03359 29.5752 3.66849 29.1908 4.26089C28.5178 5.29789 27.6739 6.20649 26.8085 7.08359C26.7235 7.16879 26.6383 7.25379 26.5531 7.33869C26.2184 6.21039 25.9423 5.06489 25.7224 3.90869C25.6232 3.38719 25.5363 2.86379 25.4592 2.33879ZM22.543 2.33879C22.7639 0.834591 21.1896 -0.146709 20.0635 0.0179909C19.3234 0.126191 17.3148 0.639091 17.8794 2.36189C18.0995 3.03359 18.427 3.66849 18.8114 4.26089C19.4844 5.29789 20.3283 6.20649 21.1937 7.08359C21.2787 7.16879 21.3639 7.25379 21.4491 7.33869C21.7838 6.21039 22.0599 5.06489 22.2798 3.90869C22.379 3.38719 22.4659 2.86379 22.543 2.33879Z" fill="black"/>
</svg>