<svg xmlns="http://www.w3.org/2000/svg" width="48" height="48" viewBox="0 0 48 48" fill="none">
  <path fill-rule="evenodd" clip-rule="evenodd" d="M27.0213 0.20752C38.7784 1.69579 47.9206 11.7752 47.9206 23.9206C47.9206 37.0855 37.1792 47.823 24.0091 47.823C10.8393 47.823 0.0976562 37.0855 0.0976562 23.9206C0.0976562 20.4977 0.823802 17.2389 2.12997 14.2902L3.36591 15.879L3.43781 15.9675C3.43781 15.9675 3.67274 16.2446 3.95204 16.486C4.20743 16.7038 4.53472 16.9001 4.7652 16.9949C4.9412 17.0657 5.11599 17.1266 5.29968 17.1621C6.1088 17.3208 6.93897 17.3113 7.53988 17.2839C8.01786 17.2623 8.35852 17.2357 8.35852 17.2357C11.483 17.0899 12.6783 18.4978 13.4911 19.456C14.2362 20.3321 21.5277 30.0434 21.5277 30.0434L25.153 26.4148C25.153 26.4148 22.109 22.535 20.7585 20.7957C19.2488 18.8524 18.1552 17.4555 17.4878 16.892C16.03 15.6636 12.8059 15.518 12.0679 15.3911C12.0679 15.3911 9.34626 15.0585 7.72216 13.3935C7.33978 13.0014 7.07467 12.6551 7.07467 12.6551L4.74237 9.79144C5.33967 8.98032 5.98689 8.208 6.67941 7.47907L9.19477 10.7178C9.6855 11.3436 9.95345 11.7066 10.4493 12.2007C11.712 13.4606 13.4961 13.631 13.4961 13.631C17.2173 14.3006 19.2493 14.4771 20.4286 15.8431C21.8439 17.4811 22.1173 17.8558 23.3001 19.3804C23.7359 19.942 27.1561 24.4123 27.1561 24.4123L30.669 20.8932C30.669 20.8932 28.4199 17.9964 27.1136 16.2797C26.4744 15.4389 25.4617 14.1266 24.7152 13.5909C23.1757 12.4889 21.8056 12.6525 20.4096 12.5047C19.2104 12.3766 18.1041 12.3522 16.6658 11.6677C16.6658 11.6677 16.0438 11.5293 14.7599 9.87615C13.4745 8.22438 13.1142 7.74539 13.1142 7.74539L10.3585 4.31421C11.1697 3.74767 12.0175 3.23006 12.8974 2.76572L15.6128 6.28664L16.9689 8.05356C18.9228 10.5473 20.186 10.576 21.488 10.7291C23.5539 10.9739 25.499 10.8432 27.1812 12.1112C28.1548 12.8445 28.6635 13.6226 29.3639 14.5243C30.4213 15.885 32.7006 18.8491 32.7006 18.8491L36.2165 15.3288C36.2165 15.3288 34.1924 12.7134 33.406 11.7197C33.1451 11.3912 32.6969 10.9749 32.0333 10.5443C30.9841 9.86203 29.9368 9.65228 27.2503 9.25578C24.5645 8.85968 23.6914 8.39359 22.4223 7.00603C21.8157 6.3423 21.4797 5.87138 21.0712 5.34499L17.5542 0.905419C18.6509 0.596931 19.7791 0.364987 20.9326 0.215765L23.329 3.5226C24.1333 4.49793 24.8507 5.76771 26.8926 6.67709C29.3499 7.77121 31.2059 7.51467 32.8881 7.94929C32.8881 7.94929 33.3465 8.06082 33.8512 8.28227C34.3865 8.51843 34.7348 8.87097 35.0696 9.24872C35.6258 9.87615 36.1128 10.4878 36.2242 10.6318C36.2471 10.6603 38.3099 13.2311 38.3099 13.2311L41.7847 9.75373C41.7847 9.75373 40.9825 8.72899 40.3462 7.92469C39.9522 7.42714 39.7807 7.24785 39.4502 7.04596C39.1887 6.88684 38.8608 6.72832 38.4183 6.62364C37.9129 6.50586 37.2233 6.41853 36.0337 6.37053C32.9007 6.2459 31.7432 5.99682 29.7495 3.61013L28.2702 1.81638L27.0213 0.20752Z" fill="#14763E"/>
</svg>