<svg xmlns="http://www.w3.org/2000/svg" width="48" height="48" viewBox="0 0 48 48" fill="none">
  <path fill-rule="evenodd" clip-rule="evenodd" d="M16.437 8.38092L16.4368 8.38072C18.3011 5.64392 20.9577 2.88752 23.844 0.292725C25.515 2.29622 26.9759 4.80682 27.4994 7.70462C29.5678 6.51612 31.8978 5.52752 34.3542 4.70362C35.9713 4.16132 37.6397 3.69112 39.32 3.28102C39.1121 7.03822 38.3996 11.0282 36.7703 14.6105V14.6106L36.7704 14.6105C40.6103 14.6896 44.4792 15.8171 48 17.3511C45.1882 20.9651 42.0341 24.3486 38.6891 26.7556L38.689 26.7558L38.6892 26.7557C41.0904 28.7392 42.7487 31.5121 43.866 34.2944C40.0817 35.8835 36.2745 37.1408 32.8978 37.5795L32.8973 37.5797L32.8979 37.5796C33.3329 39.9907 32.8979 42.5557 32.1644 44.8133C30.9606 44.7134 29.7715 44.5755 28.6277 44.3894C26.8766 44.1061 25.2259 43.7065 23.7809 43.149L23.7795 43.1486L23.7809 43.1491C22.963 44.9443 21.5448 46.4929 20.0993 47.7073C18.2027 46.5275 16.3945 45.1718 15.1109 43.6844L15.1105 43.684L15.111 43.6846C13.7876 44.6336 12.1477 45.1905 10.6257 45.5061C9.6845 44.0016 8.8458 42.3523 8.4359 40.7525C7.564 40.8647 6.6481 40.8157 5.7584 40.6693C5.2163 40.5814 4.6805 40.4581 4.1681 40.3136C3.9591 38.7621 3.8854 37.088 4.1528 35.5971V35.5965L4.1527 35.597C2.877 35.108 1.6494 34.2006 0.5926 33.2324C0.9916 31.7653 1.5686 30.2242 2.4061 28.9937L2.4062 28.9936C1.4262 27.8548 0.6306 26.3116 0 24.7608C0.9779 23.5202 2.1835 22.2858 3.5183 21.5148L3.5076 21.4723C3.0575 19.6712 2.9467 17.4997 3.0065 15.3546C3.5968 15.067 4.2168 14.8082 4.8565 14.5922C5.9099 14.2406 7.0016 14.0193 8.0606 14.038H8.0608C8.5035 11.5888 9.5184 8.83792 10.733 6.15092C12.723 6.41072 14.8222 7.04502 16.4367 8.38072L16.437 8.38092Z" fill="#7DCDF1"/>
  <path fill-rule="evenodd" clip-rule="evenodd" d="M19.7027 14.4643V14.4642C20.9041 13.0325 22.3447 11.5709 24.0254 10.1366C25.0649 9.23809 26.2365 8.43499 27.4995 7.70459C27.7034 8.83629 27.7617 10.0116 27.6311 11.2141C27.4167 13.2003 26.9874 15.1164 26.3906 16.9015C28.2327 16.1262 30.2896 15.4715 32.5193 14.9935C33.9093 14.6981 35.333 14.5793 36.7705 14.6106C36.1544 15.9617 35.4119 17.241 34.5305 18.4132C33.1094 20.3045 31.6056 21.9531 30.0931 23.3506C31.9013 23.631 33.7645 24.1368 35.6064 24.8905C36.737 25.3543 37.7626 25.9906 38.6894 26.7557C37.4512 27.644 36.1886 28.3991 34.9011 28.9869C32.8428 29.9263 30.8812 30.6122 29.0604 31.0793V31.0794L29.0604 31.0793C30.1505 32.1641 31.1313 33.4294 31.9317 34.8496C32.4118 35.6966 32.7239 36.6203 32.8981 37.5795C31.6411 37.7438 30.4356 37.7961 29.2997 37.7104C27.4613 37.5752 25.7945 37.2869 24.3116 36.8825C24.5293 38.1653 24.5747 39.5095 24.43 40.8574C24.344 41.649 24.1133 42.4177 23.781 43.1492C22.8803 42.8008 22.0516 42.3942 21.323 41.908C20.1211 41.1078 19.083 40.2435 18.2114 39.3474L18.2046 39.3418L18.2113 39.3486C17.7891 40.3917 17.2297 41.3896 16.537 42.3063C16.1405 42.8375 15.6531 43.2927 15.111 43.6844C14.6109 43.108 14.1847 42.504 13.857 41.8738C13.3038 40.8214 12.8927 39.7622 12.6073 38.7234V38.7233C11.8453 39.3508 11.0016 39.8815 10.0954 40.2917C9.57435 40.532 9.01505 40.6759 8.43615 40.7525C8.27305 40.1151 8.17675 39.4812 8.16785 38.8591C8.15015 37.803 8.24715 36.779 8.44215 35.8102V35.81L8.44205 35.8102C7.56195 35.9813 6.65075 36.0363 5.73545 35.9685C5.20355 35.9296 4.67315 35.7985 4.15295 35.5969C4.26395 34.9935 4.42925 34.4136 4.66435 33.8833C5.07215 32.97 5.57035 32.1272 6.14295 31.3717V31.3716C5.30485 31.0842 4.47875 30.6786 3.69025 30.1524C3.22745 29.8432 2.80065 29.4502 2.40625 28.9938C2.75085 28.4894 3.13685 28.0365 3.57305 27.6612C4.32865 27.0129 5.14165 26.4801 5.98605 26.0651L5.98625 26.0649L5.98605 26.065C5.34345 25.3167 4.75445 24.4502 4.24275 23.4673C3.93865 22.8849 3.69985 22.226 3.51845 21.5134C4.07145 21.1974 4.64315 20.9588 5.22615 20.8345C6.23745 20.6181 7.25125 20.5562 8.23645 20.6373C7.98235 19.452 7.83645 18.145 7.81485 16.7309C7.79835 15.879 7.88955 14.9757 8.06085 14.0379C8.75615 14.0523 9.42995 14.1736 10.0596 14.4322C11.1381 14.8711 12.1251 15.4823 12.9998 16.2255L13.0001 16.2257L12.9999 16.2254C13.3867 14.7302 13.9427 13.131 14.692 11.4579C15.1514 10.4294 15.7424 9.40249 16.4368 8.38069C17.0882 8.91639 17.651 9.56199 18.0837 10.3287C18.8153 11.6226 19.3524 13.0258 19.7026 14.4642L19.7027 14.4643Z" fill="#00AAE7"/>
  <path fill-rule="evenodd" clip-rule="evenodd" d="M15.9901 20.2413C15.9672 20.2932 16.0131 20.2939 15.9901 20.2413L15.9909 20.2395L15.9901 20.2378C16.7967 18.4087 18.0377 16.4441 19.701 14.4641C20.2031 16.5547 20.2992 18.6871 20.0194 20.6667C19.9821 20.6978 19.9797 20.7352 20.0033 20.7786C20.0088 20.7414 20.0142 20.7041 20.0195 20.6667C21.707 19.2627 23.8582 17.964 26.3889 16.9013C25.5486 19.4119 24.3943 21.632 23.0652 23.4272L23.0649 23.4273H23.0652C23.4702 23.3468 23.8836 23.2813 24.3097 23.2282C26.0989 23.0075 28.0543 23.0343 30.0914 23.3513C28.0078 25.2717 25.8964 26.7181 23.9165 27.6649C25.7187 28.3708 27.4922 29.5245 29.0589 31.0792C27.035 31.5972 25.1618 31.8424 23.5004 31.848C23.1031 31.8488 22.7171 31.8356 22.3447 31.8101L22.3446 31.81L22.3447 31.8101C23.3044 33.2396 23.9889 34.9798 24.3097 36.882C22.237 36.313 20.4895 35.5037 19.1252 34.5339V34.5329L19.1251 34.5337C19.1578 36.1111 18.8478 37.7667 18.2096 39.3472C16.9575 38.0634 16.0202 36.6892 15.4219 35.3144C15.3979 35.259 15.4396 35.2812 15.4219 35.3144C14.736 36.5962 13.7725 37.7651 12.6056 38.7232C12.1887 37.1905 12.0459 35.6778 12.1702 34.2734L12.1703 34.2733H12.1702V34.2734C11.0645 35.0252 9.78807 35.5503 8.44027 35.8101C8.73548 34.3528 9.25857 33.0037 9.97318 31.8531C10.0166 31.8492 10.0043 31.8029 9.97327 31.8531C9.71937 31.8759 9.46657 31.8881 9.21007 31.8881C8.19147 31.8906 7.15488 31.7203 6.14118 31.3716C7.01017 30.2179 8.04418 29.2635 9.17138 28.5755C8.02428 28.0217 6.94017 27.171 5.98438 26.0649C7.01867 25.5558 8.09697 25.2291 9.16097 25.0977C9.42587 25.0636 9.69247 25.0448 9.95867 25.0372C9.98807 25.083 10.0149 25.0355 9.95858 25.0372C9.19198 23.846 8.60047 22.3566 8.23697 20.6374C9.73277 20.7633 11.142 21.2224 12.3408 21.9681V21.9682C12.3436 22.0194 12.3852 21.9958 12.3408 21.9682V21.9681C12.2438 20.2829 12.4548 18.3364 12.9981 16.2254C14.3033 17.3365 15.3264 18.723 15.9901 20.2378L15.9893 20.2396L15.9901 20.2413Z" fill="#006FBA"/>
  <path fill-rule="evenodd" clip-rule="evenodd" d="M20.0229 20.644C20.0219 20.6516 20.0209 20.6593 20.0198 20.6669C18.6648 21.7953 17.5908 23.0077 16.8416 24.2445C16.8501 22.9027 16.5578 21.5369 15.9905 20.2415C15.3307 21.7406 14.9475 23.1751 14.8594 24.4872C14.2543 23.4743 13.3866 22.6183 12.3412 21.9684C12.4198 23.3808 12.7167 24.6372 13.2225 25.6779C12.2401 25.2099 11.1259 25.0014 9.95898 25.0374C9.94578 25.0169 9.91967 25.0196 9.88377 25.0399C9.90887 25.039 9.93397 25.0381 9.95907 25.0374C10.6134 26.0581 11.4078 26.8773 12.311 27.4379C11.2411 27.5645 10.1714 27.9643 9.17188 28.5757C10.1714 29.0611 11.2297 29.3192 12.2856 29.3141C11.3849 29.9638 10.6024 30.8359 9.97368 31.8533C11.085 31.753 12.1585 31.4286 13.1195 30.8824C12.5968 31.899 12.2812 33.0527 12.1707 34.2735C13.159 33.6044 14.001 32.7641 14.6326 31.7901C14.6411 32.951 14.914 34.1426 15.4223 35.3146C16.0282 34.1806 16.4022 32.9763 16.5039 31.7837C17.109 32.8009 17.999 33.7321 19.1255 34.5339L19.1256 34.5338C19.0982 33.1669 18.8139 31.8828 18.2735 30.7813C19.3974 31.3522 20.773 31.7017 22.345 31.8102C21.5345 30.6049 20.5414 29.6387 19.4316 28.9866C20.8099 28.8694 22.3302 28.4245 23.9168 27.6651C22.4424 27.0881 20.9596 26.8217 19.5663 26.876C20.8006 26.0478 21.9898 24.8801 23.0656 23.4275L23.0655 23.4274C21.3669 23.7634 19.8525 24.3347 18.5949 25.1114C19.3037 23.8204 19.7885 22.3077 20.0199 20.6669C20.0259 20.6619 20.0266 20.6542 20.0229 20.644Z" fill="white"/>
</svg>