<svg xmlns="http://www.w3.org/2000/svg" width="48" height="48" viewBox="0 0 48 48" fill="none">
  <path d="M14.1875 16.416V30.43C23.1665 30.2602 32.1455 26.8255 41.1251 16.1047L41.0867 0.0666504C32.9525 9.84575 24.14 16.0947 14.1875 16.416Z" fill="#1F1F48"/>
  <path d="M33.2885 41.971C33.2885 45.2917 30.5801 48.0001 27.2591 48.0001C23.9384 48.0001 21.23 45.2917 21.23 41.971C21.23 38.65 23.9384 35.9416 27.2591 35.9416C30.5801 35.9416 33.2885 38.65 33.2885 41.971Z" fill="#1F1F48"/>
  <path fill-rule="evenodd" clip-rule="evenodd" d="M33.0274 17.6367V31.6506C23.0752 31.9719 14.2624 38.2209 6.12824 48L6.08984 31.962C15.0694 21.2412 24.0484 17.8065 33.0274 17.6367Z" fill="#AFB2AE"/>
</svg>