<svg xmlns="http://www.w3.org/2000/svg" width="48" height="48" viewBox="0 0 48 48" fill="none">
  <path fill-rule="evenodd" clip-rule="evenodd" d="M7.64991 34.9634C4.52029 31.3519 2.59442 26.6938 2.50337 21.5923C2.29492 9.91778 11.7753 0.214107 23.6205 0.00335437L24.0752 0L24.3795 0.00335437C36.2242 0.214107 45.7051 9.91778 45.4966 21.5923C45.4056 26.6938 43.4797 31.3519 40.3501 34.9629C40.8858 35.2898 41.3497 35.7992 41.7048 36.5041C42.1082 37.2988 42.0862 38.2422 41.654 39.0059C40.9309 40.3043 40.1172 42.009 39.4137 43.4427C38.9312 44.4252 38.4927 45.2907 38.0571 45.8823C37.5717 46.5409 37.0312 46.9442 36.5007 47.1335C35.1753 47.6974 33.8546 47.9822 32.5392 47.9999C32.4525 48.0008 32.3662 47.9956 32.2809 47.9832C30.3397 47.7084 29.2323 46.8635 28.757 45.7065C27.2049 45.0943 25.6245 44.7622 24.0043 44.7607C24.0043 44.7607 23.9564 44.7607 23.9578 44.7607C22.3477 44.7679 20.7813 45.0995 19.2431 45.706C18.7677 46.8635 17.6603 47.7084 15.7191 47.9832C15.6333 47.9956 15.547 48.0008 15.4608 47.9999C14.1454 47.9822 12.8247 47.6974 11.4993 47.1335C10.9688 46.9442 10.4278 46.5409 9.94286 45.8823C9.5068 45.2907 9.06834 44.4252 8.58627 43.4427C7.88281 42.009 7.06913 40.3043 6.35178 39.0164C5.91284 38.2408 5.89225 37.2974 6.29238 36.5094C6.6489 35.8016 7.11369 35.2907 7.64991 34.9634ZM8.89056 35.2597C5.45858 31.6764 3.31656 26.8754 3.22216 21.5794C3.02042 10.2972 12.1865 0.923304 23.6334 0.720199L24.0805 0.716844L24.3666 0.720199C35.8135 0.923304 44.9796 10.2972 44.7778 21.5794C44.6834 26.8754 42.541 31.6764 39.109 35.2601C39.914 35.3834 40.5978 35.9039 41.0636 36.8281C41.3583 37.4083 41.343 38.0969 41.0253 38.658C40.2969 39.966 39.4765 41.6831 38.7678 43.1277C38.3078 44.0649 37.8937 44.8931 37.4778 45.458C37.0887 45.986 36.6646 46.3191 36.2391 46.4654C34.9975 46.9963 33.7612 47.2668 32.5297 47.283C32.4803 47.2835 32.4309 47.2807 32.382 47.2735C30.622 47.0245 29.6497 46.2651 29.3267 45.1636C27.5906 44.4381 25.8214 44.0453 24.0024 44.0439H23.9545C22.1489 44.052 20.3946 44.4443 18.6728 45.1636C18.3498 46.2651 17.378 47.0245 15.618 47.2735C15.5691 47.2807 15.5197 47.2835 15.4703 47.283C14.2383 47.2668 13.002 46.9963 11.7604 46.4654C11.3354 46.3191 10.9113 45.986 10.5222 45.458C10.1063 44.8931 9.69224 44.0649 9.23174 43.1273C8.52301 41.6831 7.70264 39.966 6.97762 38.6637C6.65704 38.0974 6.64171 37.4088 6.93498 36.8315C7.40171 35.9043 8.086 35.3834 8.89056 35.2597Z" fill="#E95B00"/>
  <path fill-rule="evenodd" clip-rule="evenodd" d="M23.949 43.0888C21.8515 43.0983 19.8188 43.5887 17.8259 44.489C17.7377 45.5055 16.9566 46.1191 15.4816 46.3284C14.3584 46.3131 13.2314 46.0613 12.099 45.5719C11.3903 45.3583 10.809 44.1707 10.0912 42.7084C9.37528 41.2494 8.54626 39.5155 7.8107 38.1946C7.64777 37.9065 7.63963 37.5562 7.78961 37.2613C8.22808 36.3906 8.94735 36.0432 9.78594 36.2549C10.003 36.3093 10.1866 36.4541 10.2896 36.6525C10.4127 36.89 10.5713 37.1958 10.5713 37.1958C11.4684 37.4897 12.3832 37.7268 13.3363 37.8419L13.4542 37.744C13.4283 37.7292 13.4039 37.7115 13.3794 37.6967C7.95543 34.2893 4.30014 28.3538 4.1789 21.5634C3.98627 10.8045 12.733 1.87071 23.6485 1.67668L24.0856 1.67334C24.1728 1.67382 24.2605 1.67525 24.3477 1.67668C35.2637 1.87071 44.0104 10.8045 43.8178 21.5634C43.6965 28.3538 40.0412 34.2893 34.6173 37.6967C34.5928 37.7115 34.5684 37.7292 34.5425 37.744L34.6604 37.8419C35.6135 37.7268 36.5283 37.4897 37.4254 37.1958C37.4254 37.1958 37.584 36.89 37.7071 36.6525C37.8101 36.4541 37.9937 36.3093 38.2107 36.2549C39.0493 36.0432 39.7686 36.3906 40.2071 37.2613C40.3571 37.5562 40.3489 37.9065 40.186 38.1946C39.4504 39.5155 38.6214 41.2494 37.9055 42.7084C37.1876 44.1707 36.6064 45.3583 35.8977 45.5719C34.7654 46.0613 33.6383 46.3131 32.515 46.3284C31.0401 46.1191 30.259 45.5055 30.1708 44.489C28.162 43.5815 26.113 43.0907 23.9983 43.0888H23.949ZM10.8603 37.9662C10.8603 37.9662 11.3855 39.4104 11.6677 40.1253C12.0334 41.0496 13.0521 43.5122 13.0521 43.5122C13.2908 44.0952 13.7757 44.5358 12.5264 45.191C12.5418 45.235 12.5566 45.278 12.5729 45.3358C13.3387 45.5858 14.0306 45.8219 14.7485 45.809C14.8347 45.7636 14.9224 45.7325 14.9957 45.7019L11.5733 38.6644C11.2134 37.9241 11.1167 37.885 10.8603 37.9662ZM37.1364 37.9662C37.1364 37.9662 36.6112 39.4104 36.3289 40.1253C35.9633 41.0496 34.9446 43.5122 34.9446 43.5122C34.7059 44.0952 34.221 44.5358 35.4702 45.191C35.4549 45.235 35.4401 45.278 35.4238 45.3358C34.658 45.5858 33.966 45.8219 33.2482 45.809C33.1619 45.7636 33.0743 45.7325 33.0009 45.7019L36.4234 38.6644C36.7832 37.9241 36.88 37.885 37.1364 37.9662ZM32.4873 37.1743C30.0827 35.873 27.0494 35.3598 23.9983 35.4453L23.8948 35.4429C19.5236 35.3392 15.2028 36.4699 12.7306 39.3927C12.6836 39.776 14.9306 44.0407 15.4011 44.6587C15.6096 44.8599 15.6834 44.8876 15.8602 44.9134C17.9327 43.1605 20.9593 42.4183 23.9983 42.4603L24.0697 42.4594C27.0848 42.4302 30.0798 43.1738 32.1365 44.9134C32.3133 44.8876 32.3871 44.8599 32.5955 44.6587C33.0661 44.0407 35.313 39.776 35.2661 39.3927C34.5147 38.5038 33.5923 37.7813 32.5496 37.2083C32.5328 37.2326 32.4983 37.2704 32.4456 37.3206C32.308 37.4501 32.1561 37.5705 31.9898 37.6795C31.8221 37.7903 31.6515 37.8783 31.4771 37.9461L31.0435 38.1244C30.8973 38.1684 30.7483 38.2133 30.5987 38.2577C30.4497 38.3041 30.3002 38.3423 30.1502 38.3738C30.1392 38.3767 30.1291 38.3796 30.1196 38.382L29.9581 38.6224C29.8872 38.7351 29.8182 38.8479 29.7506 38.9621L29.6404 39.1629C29.5603 39.3019 29.4889 39.4453 29.4276 39.5954C29.3658 39.7449 29.3088 39.894 29.2551 40.0431L29.2541 40.0451C29.1861 40.2329 29.1597 40.381 29.1741 40.4905C29.189 40.6004 29.2508 40.6749 29.3605 40.7146C29.3998 40.7289 29.4372 40.7299 29.4717 40.7179C29.5057 40.706 29.5378 40.6873 29.5671 40.6625C29.5968 40.6376 29.6241 40.6094 29.6485 40.5774C29.6734 40.5449 29.6945 40.5153 29.7118 40.4881C29.7434 40.4431 29.7673 40.4255 29.7841 40.4355C29.8014 40.445 29.8028 40.4699 29.7884 40.5096C29.7496 40.5965 29.6979 40.6955 29.6332 40.8068C29.5685 40.9182 29.4961 41.02 29.4156 41.1127C29.3356 41.2049 29.2513 41.2766 29.1636 41.3272C29.0759 41.3779 28.9891 41.3879 28.9029 41.3569C28.8104 41.3234 28.7467 41.2713 28.7122 41.2011C28.6777 41.1308 28.6599 41.0525 28.659 40.9664C28.6585 40.8804 28.6705 40.7939 28.694 40.7074C28.7179 40.6204 28.7414 40.5459 28.7639 40.4828L28.7649 40.4823C28.8037 40.3839 28.8483 40.2826 28.8976 40.1755C28.9474 40.068 28.9959 39.9633 29.0409 39.8591C29.0639 39.8157 29.0744 39.7856 29.0725 39.7698C29.0701 39.754 29.0395 39.7684 28.9796 39.8099C28.8162 39.9304 28.6547 40.0331 28.496 40.121C28.3379 40.2075 28.1678 40.2759 27.9891 40.327C27.7241 40.404 27.4529 40.4422 27.174 40.4408C26.8955 40.4398 26.6157 40.4087 26.3334 40.3485C26.1149 40.3026 25.8936 40.2434 25.6717 40.1688C25.4489 40.0948 25.2208 40.002 24.9874 39.8926C24.8844 39.8443 24.7948 39.7923 24.7162 39.7387C24.639 39.6842 24.5762 39.6216 24.5302 39.5485C24.4838 39.4754 24.4531 39.3899 24.4402 39.2919C24.4272 39.1939 24.4373 39.0783 24.4703 38.9445C24.4929 38.8594 24.525 38.7724 24.5652 38.6835C24.6036 38.5956 24.6476 38.5115 24.696 38.4317C24.7392 38.3605 24.7742 38.3304 24.7991 38.339C24.823 38.348 24.824 38.3958 24.801 38.4799C24.7809 38.5588 24.7751 38.6314 24.7837 38.6983C24.7928 38.7653 24.8211 38.8274 24.8681 38.8862C24.986 39.0257 25.1273 39.1342 25.2922 39.2116C25.4575 39.2895 25.6238 39.3607 25.7915 39.4247C26.3986 39.6623 27.07 39.7913 27.8036 39.8123C27.9522 39.8171 28.0983 39.8099 28.2411 39.7908C28.3854 39.7712 28.5248 39.7339 28.6618 39.6785C28.8713 39.5963 29.0467 39.483 29.1866 39.3382C29.327 39.192 29.3624 39.1638 29.4784 38.9703C29.5028 38.9239 29.5302 38.8842 29.5608 38.8513L29.8584 38.5468C29.9092 38.4957 29.9624 38.4455 30.0175 38.3963C30.0079 38.3891 30.028 38.3605 30.0779 38.3093C30.1426 38.2539 30.2073 38.197 30.2715 38.1383C30.3362 38.0795 30.4085 38.0317 30.4876 37.9968C30.5547 37.9691 30.6428 37.9337 30.754 37.8912C30.8513 37.8539 31.3343 37.6828 31.4781 37.6255C31.7661 37.5093 32.0507 37.3817 32.3339 37.2412L32.4873 37.1743ZM35.6471 44.8178C35.4793 44.7385 35.2311 44.6032 35.2369 44.3112C35.6054 44.2013 36.0735 44.1803 36.2542 44.7667C36.074 44.899 35.7798 44.8804 35.6471 44.8178ZM12.3496 44.8178C12.5173 44.7385 12.7656 44.6032 12.7593 44.3112C12.3913 44.2013 11.9231 44.1803 11.7425 44.7667C11.9227 44.899 12.2169 44.8804 12.3496 44.8178ZM9.66567 36.7022C8.81798 36.435 8.18018 37.0993 8.35029 37.7746L11.5331 44.3256C11.8503 43.9366 12.1637 43.8969 12.4742 43.8783L9.66567 36.7022ZM38.331 36.7022C39.1787 36.435 39.8165 37.0993 39.6464 37.7746L36.4636 44.3256C36.1464 43.9366 35.833 43.8969 35.5225 43.8783L38.331 36.7022ZM29.6178 42.6099C29.636 42.5602 29.7146 42.4728 29.8536 42.3471C29.9926 42.2214 30.0755 42.1636 30.1018 42.1731C30.1881 42.2042 30.2566 42.2744 30.3069 42.3839C30.3567 42.4938 30.3678 42.5879 30.339 42.6673C30.3127 42.7399 30.2422 42.8183 30.1277 42.9024C30.0127 42.986 29.9341 43.0204 29.891 43.0051C29.8709 42.998 29.8177 42.9335 29.73 42.8125C29.6998 42.7719 29.6696 42.7313 29.6394 42.6902C29.6169 42.6601 29.6097 42.6329 29.6178 42.6099ZM17.4492 42.6916C17.4468 42.674 17.4804 42.5774 17.5503 42.4006C17.6203 42.2243 17.6658 42.1344 17.6869 42.1311C17.7458 42.1215 17.8211 42.1468 17.9131 42.2071C18.0051 42.2711 18.0563 42.3356 18.0669 42.4016C18.0793 42.478 18.0544 42.5817 17.9931 42.7122C17.9313 42.8393 17.8829 42.9057 17.8484 42.9115C17.8306 42.9139 17.8024 42.9034 17.7631 42.8795C17.7233 42.8556 17.684 42.8302 17.6442 42.8049C17.5982 42.7872 17.5556 42.77 17.5153 42.7533C17.4751 42.7361 17.453 42.7155 17.4492 42.6916ZM16.9647 42.101C16.9604 42.0732 16.9964 41.9643 17.0735 41.7741C17.1502 41.5844 17.1991 41.4873 17.2197 41.484C17.2652 41.4773 17.3361 41.4979 17.4334 41.5466C17.5268 41.5958 17.5934 41.646 17.6337 41.6967C17.6701 41.6126 17.7084 41.528 17.7487 41.4434C17.8048 41.3239 17.8397 41.2637 17.8536 41.2613C17.9164 41.2513 17.9989 41.2775 18.1014 41.3397C18.2054 41.4085 18.2629 41.4792 18.2744 41.5523C18.2878 41.6355 18.2571 41.7454 18.1824 41.8816C18.1095 42.0073 18.054 42.0728 18.0156 42.079C17.9878 42.0833 17.9399 42.0642 17.8728 42.0216C17.777 41.9585 17.6984 41.9136 17.6375 41.8878C17.5407 42.1559 17.4525 42.2959 17.3725 42.3088C17.3586 42.3108 17.2877 42.2792 17.1593 42.2142C17.0314 42.1492 16.9662 42.1115 16.9647 42.101ZM31.3957 38.9163C31.4 38.9124 31.4043 38.9081 31.4086 38.9043C31.4258 38.8881 31.4397 38.878 31.4503 38.8742C31.4608 38.8709 31.4656 38.8761 31.4642 38.8904C31.4627 38.9053 31.4484 38.9335 31.422 38.976C31.26 39.247 31.1086 39.5256 30.9673 39.8128C30.5877 40.5836 30.8637 40.0183 30.6682 40.501V40.5014C30.5997 40.6897 30.5733 40.8388 30.5877 40.9488C30.6026 41.0582 30.6644 41.1332 30.7741 41.1724C30.8134 41.1868 30.8508 41.1877 30.8848 41.1758C30.9193 41.1638 30.9514 41.1457 30.9807 41.1208C31.0104 41.096 31.0377 41.0673 31.0626 41.0353C31.087 41.0028 31.1081 40.9731 31.1254 40.9459C31.1565 40.901 31.181 40.8833 31.1977 40.8933C31.215 40.9034 31.2164 40.9277 31.2021 40.9679C31.1632 41.0544 31.1115 41.1538 31.0468 41.2646C30.9821 41.376 30.9097 41.4783 30.8292 41.5705C30.7487 41.6627 30.6649 41.7344 30.5772 41.7856C30.4895 41.8357 30.4028 41.8458 30.3165 41.8147C30.2235 41.7813 30.1603 41.7296 30.1258 41.6594C30.0913 41.5887 30.0736 41.5108 30.0731 41.4243C30.0721 41.3382 30.0836 41.2517 30.1076 41.1652C30.1315 41.0787 30.1545 41.0037 30.1775 40.9411L30.1857 40.9335C30.2432 40.7762 30.3333 40.5774 30.455 40.3375C30.73 39.7951 30.3213 40.577 30.8594 39.5528C30.9059 39.4649 30.9624 39.3808 31.0295 39.3C31.0683 39.2546 31.1158 39.2011 31.1709 39.1409L31.3957 38.9163ZM19.9075 39.3669C20.2046 39.3273 20.4926 39.2766 20.7719 39.2145C21.0513 39.1528 21.3264 39.0649 21.5971 38.9507C21.8377 38.8484 22.0696 38.7289 22.2924 38.5927C22.5148 38.4561 22.7285 38.3112 22.9321 38.1578C23.2192 37.9418 23.4875 37.7153 23.7372 37.4783C23.9864 37.2412 24.2423 37.0028 24.5034 36.7624C24.581 36.6893 24.6591 36.62 24.7382 36.5545C24.8168 36.4885 24.9016 36.4269 24.9927 36.37C25.077 36.3175 25.1369 36.3017 25.1724 36.3227C25.2078 36.3438 25.2093 36.3963 25.1762 36.48C25.1542 36.5435 25.1307 36.6095 25.1057 36.6778C25.0808 36.7457 25.0516 36.8087 25.0181 36.8675C25.0018 36.8986 24.9835 36.9239 24.9634 36.943C24.9433 36.9621 24.917 36.9813 24.8844 37.0009C24.8379 37.0257 24.7732 37.0773 24.6888 37.1543C24.605 37.2317 24.4981 37.3325 24.3678 37.4558C24.2159 37.6011 24.0645 37.7488 23.9135 37.8988C23.7626 38.0489 23.6088 38.197 23.4516 38.3428C23.2944 38.4885 23.1348 38.6305 22.9734 38.7676C22.8114 38.9058 22.6437 39.0343 22.4697 39.1543C21.7409 39.6646 20.9272 39.9906 20.0292 40.1325L19.4374 40.2128C19.2725 40.2333 19.1331 40.2405 19.0176 40.2338C18.8911 40.2252 18.766 40.2114 18.6414 40.1918C18.5173 40.1722 18.3961 40.1416 18.2792 40.0995C18.2336 40.0818 18.1972 40.068 18.1709 40.058C18.144 40.0479 18.1201 40.0427 18.0985 40.0427C18.0774 40.0427 18.0573 40.0513 18.0386 40.068C18.0199 40.0852 17.996 40.1143 17.9667 40.154C17.9404 40.1903 17.9131 40.2319 17.8848 40.2792C17.8565 40.3265 17.823 40.3834 17.7837 40.4498C17.7089 40.565 17.615 40.652 17.5009 40.7108C17.3874 40.7696 17.2609 40.7887 17.1219 40.7681C17.0453 40.7552 16.9753 40.7413 16.912 40.7265C16.8492 40.7117 16.7779 40.7141 16.6993 40.7337C16.6269 40.7519 16.5579 40.7772 16.4918 40.8087C16.4252 40.8407 16.3614 40.8866 16.2991 40.9464C16.2057 41.0319 16.1443 41.0711 16.1146 41.0635C16.0849 41.0558 16.1003 40.9956 16.1606 40.8828C16.2292 40.7509 16.3092 40.6228 16.4017 40.4976C16.4946 40.3729 16.5991 40.2601 16.7151 40.1602C16.7745 40.1077 16.8392 40.0594 16.9087 40.0145C16.9782 39.97 17.0534 39.9447 17.1349 39.939C17.2019 39.9356 17.269 39.9423 17.3361 39.9605C17.4032 39.9781 17.4712 39.9906 17.5403 39.9973C17.6164 40.0068 17.684 39.9982 17.742 39.971C17.8 39.9442 17.8517 39.9041 17.8968 39.8505C17.949 39.7961 17.995 39.7387 18.0357 39.679C18.076 39.6193 18.1162 39.5595 18.157 39.4998C18.2154 39.4195 18.271 39.3655 18.3237 39.3373C18.3765 39.3096 18.456 39.3067 18.5633 39.3287C18.8058 39.3722 19.032 39.398 19.2419 39.4056C19.4517 39.4133 19.6741 39.4004 19.9075 39.3669ZM30.1775 38.8904C30.1943 38.8441 30.2724 38.7581 30.4114 38.6324C30.5503 38.5072 30.6332 38.4489 30.6601 38.4584C30.7463 38.4895 30.8144 38.5598 30.8647 38.6697C30.915 38.7791 30.9256 38.8732 30.8968 38.9526C30.8705 39.0257 30.8005 39.1031 30.6865 39.1853C30.5724 39.2675 30.4938 39.301 30.4507 39.2852C30.4306 39.2785 30.3769 39.214 30.2897 39.0931C30.2581 39.0558 30.2274 39.0166 30.1972 38.9755C30.1756 38.9421 30.1694 38.9134 30.1775 38.8904ZM32.539 36.5822C32.9449 36.7547 34.0379 37.408 33.9325 37.376C33.9881 37.3411 34.1371 37.246 34.1941 37.2107C39.4854 33.9218 43.0583 28.155 43.1757 21.5519C43.3626 11.1414 34.899 2.49771 24.3362 2.3099L23.9983 2.30702C23.8857 2.30702 23.7731 2.30799 23.6605 2.3099C13.0976 2.49771 4.63413 11.1414 4.82054 21.5519C4.93842 28.155 8.5113 33.9218 13.8025 37.2107C13.8596 37.246 13.9827 37.3249 14.0388 37.3598C14.0273 37.3239 15.0949 36.7093 15.2981 36.6592C15.1472 36.6276 14.9986 36.5846 14.8539 36.5297C14.3431 36.3361 13.8945 36.0011 13.5227 35.6049C13.4407 35.5175 13.3617 35.4267 13.2869 35.3325C13.2107 35.2369 13.1384 35.1385 13.0718 35.0362L12.9951 34.911C12.8216 34.857 12.6534 34.7891 12.4919 34.705C12.0559 34.478 11.684 34.1411 11.3812 33.7569C11.3313 33.6933 11.2829 33.6283 11.2364 33.5619C11.1593 33.452 11.087 33.3383 11.0199 33.2216C10.9667 33.1289 10.9169 33.0343 10.8723 32.9368L10.7942 32.7576C10.8268 32.7509 10.8584 32.7447 10.8909 32.738C10.6221 32.6138 10.3691 32.457 10.1449 32.2639C9.77206 31.9433 9.48789 31.5304 9.28136 31.0869C9.24734 31.0138 9.21521 30.9392 9.18502 30.8642C9.13518 30.7395 9.0911 30.6123 9.05276 30.4833C9.02209 30.381 8.99526 30.2773 8.97417 30.1727L8.93969 29.9801L9.16633 29.9877C8.80789 29.7593 8.4835 29.4745 8.23432 29.1294C7.94681 28.7313 7.76613 28.264 7.66885 27.7846C7.65304 27.7058 7.63915 27.626 7.62717 27.5462C7.608 27.4128 7.59459 27.279 7.58693 27.1447C7.58118 27.0382 7.57925 26.9311 7.58356 26.8241L7.59459 26.6291C7.65353 26.6453 7.71295 26.6611 7.77189 26.6773C7.86917 26.7046 7.96499 26.738 8.05939 26.7744C8.14277 26.8064 8.22569 26.8413 8.30715 26.8785C8.27552 26.858 8.24437 26.837 8.2137 26.8154C8.1471 26.7696 8.08192 26.7218 8.01818 26.6721C7.63195 26.371 7.29318 26.0016 7.06413 25.5667C6.83555 25.1323 6.72246 24.6444 6.6937 24.156C6.68891 24.0757 6.68652 23.9949 6.68604 23.9142C6.68556 23.7794 6.6913 23.6451 6.7028 23.5113C6.71238 23.4047 6.72534 23.2986 6.74451 23.193L6.78332 23.0014C6.83938 23.0257 6.89592 23.0496 6.95199 23.074C7.04447 23.1146 7.13456 23.1615 7.22274 23.2107C7.33295 23.2719 7.52989 23.3947 7.5227 23.3875C7.46424 23.3316 7.40723 23.2738 7.35213 23.2145C7.01861 22.8566 6.74307 22.4379 6.5859 21.9724C6.4292 21.5075 6.39564 21.0076 6.44451 20.5216C6.45266 20.4413 6.4632 20.361 6.47566 20.2812C6.49675 20.1483 6.52359 20.0164 6.55665 19.886C6.58253 19.7823 6.61225 19.6795 6.64819 19.5787L6.71669 19.3956C6.76845 19.4281 6.82022 19.4611 6.87197 19.4936C6.95679 19.5486 7.03823 19.6088 7.1173 19.6714C7.2256 19.7565 7.3296 19.8472 7.42975 19.9419C7.47048 19.9815 7.51121 20.0212 7.55098 20.0623L7.55625 20.0499C7.47958 19.9505 7.40675 19.8477 7.3387 19.7421C7.2951 19.6742 7.25292 19.605 7.21314 19.5347C6.97163 19.1094 6.80008 18.6386 6.75504 18.1498C6.71047 17.6609 6.79339 17.1672 6.95392 16.7056C6.98028 16.6291 7.00901 16.5536 7.03967 16.4786C7.09047 16.3543 7.14749 16.232 7.20931 16.113C7.25915 16.0179 7.31187 15.9247 7.36985 15.8348L7.47862 15.6724C7.52175 15.7163 7.5644 15.7598 7.60705 15.8038C7.67701 15.8764 7.74219 15.9538 7.80497 16.0332C7.81311 16.0432 7.82124 16.0537 7.82939 16.0642C7.7139 15.68 7.65641 15.2781 7.6842 14.8776C7.71823 14.3878 7.87875 13.9137 8.11116 13.4831C8.1495 13.4119 8.18974 13.3417 8.23239 13.2728C8.30236 13.1581 8.37806 13.0468 8.45857 12.9388C8.5223 12.8532 8.5894 12.7691 8.66128 12.6898L8.79497 12.5469C8.82995 12.5966 8.8654 12.6468 8.90038 12.697C8.95788 12.7801 9.01011 12.8666 9.05899 12.9546L9.06092 12.9579C9.04223 12.5851 9.07673 12.2095 9.18359 11.8511C9.32351 11.3808 9.58421 10.9527 9.90527 10.5828C9.95798 10.5221 10.0131 10.4623 10.0691 10.404C10.1631 10.3075 10.2608 10.2153 10.3629 10.1273C10.4443 10.0576 10.5282 9.99016 10.6154 9.92851L10.7769 9.81764L10.8704 10.0466C10.9192 9.75695 11.0031 9.47404 11.1291 9.20833C11.3395 8.76436 11.6629 8.38156 12.0362 8.06472C12.098 8.01263 12.1613 7.96198 12.226 7.91323C12.3333 7.83199 12.4445 7.75553 12.5586 7.68432C12.6496 7.62745 12.7426 7.57393 12.8384 7.52614L13.0152 7.44155C13.0296 7.50081 13.0445 7.56006 13.0588 7.61932C13.0818 7.71776 13.0986 7.81765 13.1125 7.91705C13.1307 8.05325 13.1432 8.19088 13.1489 8.32804C13.1513 8.38491 13.1528 8.44177 13.1528 8.49864L13.1796 8.48766C13.2562 8.29603 13.3559 8.11395 13.4824 7.95003C13.5189 7.90224 13.5581 7.85588 13.5989 7.81192C13.8342 7.55815 14.1318 7.36746 14.449 7.23174C14.6047 7.16531 14.7662 7.11037 14.931 7.07309L15.1328 7.03198C15.1318 7.09602 15.1304 7.16006 15.129 7.2241C15.1266 7.29674 15.1198 7.36939 15.1107 7.44155C15.0997 7.53187 15.0839 7.62171 15.0647 7.7106C14.9814 8.08814 14.8256 8.45612 14.5759 8.7548C14.4106 8.95265 14.2075 9.11562 13.9851 9.24609L13.9818 9.25755C14.0345 9.25229 14.0867 9.248 14.1394 9.24418C14.2204 9.23892 14.3019 9.23605 14.3833 9.23509C14.4169 9.23461 14.4169 9.23461 14.4499 9.23461C14.5678 9.23556 14.6852 9.23987 14.8026 9.2523L14.9972 9.27571C14.9761 9.33736 14.9555 9.399 14.9334 9.46065C14.897 9.56101 14.8544 9.65946 14.8088 9.75599C14.7542 9.87117 14.6943 9.98443 14.6301 10.0943C14.5899 10.1636 14.5477 10.232 14.5031 10.2989C14.2295 10.7132 13.8816 11.0855 13.4575 11.3503C13.3018 11.4473 13.137 11.529 12.9664 11.5968C12.9505 11.6661 12.9323 11.735 12.9127 11.8033C12.8744 11.9352 12.8298 12.0657 12.7795 12.1937C12.7502 12.2683 12.7186 12.3424 12.6856 12.415C12.4704 12.8843 12.1685 13.3206 11.7679 13.6513C11.627 13.7679 11.4751 13.8707 11.3165 13.96C11.3155 13.9806 11.3141 14.0007 11.3131 14.0207C11.3045 14.1579 11.2896 14.2951 11.2686 14.4308C11.2561 14.5101 11.2417 14.589 11.225 14.6669C11.1176 15.172 10.9183 15.6633 10.5996 16.0733C10.4731 16.2358 10.3298 16.3844 10.1741 16.5187C10.1851 16.588 10.1937 16.6573 10.2004 16.7271C10.2143 16.8637 10.2215 17.0014 10.222 17.139C10.2225 17.2188 10.2211 17.2991 10.2172 17.3789C10.1918 17.8946 10.0735 18.4112 9.82475 18.8661C9.71933 19.0597 9.59186 19.2398 9.4481 19.4071L9.49794 19.5132C9.54011 19.605 9.57606 19.6996 9.60864 19.7952C9.65369 19.9251 9.69249 20.057 9.72508 20.1909C9.74424 20.2688 9.76102 20.3471 9.77588 20.4255C9.87076 20.933 9.87507 21.463 9.7385 21.9634C9.67908 22.1813 9.59377 22.3916 9.48931 22.5913L9.54827 22.6783C9.60434 22.7624 9.65464 22.8499 9.70256 22.9388C9.76725 23.0601 9.82668 23.1844 9.88035 23.3115C9.9115 23.3851 9.94073 23.4597 9.96757 23.5352C10.142 24.0212 10.2306 24.5435 10.1755 25.0592C10.1252 25.5275 9.95989 25.9782 9.72987 26.3873L9.59808 26.6066C9.61773 26.6253 9.63691 26.6439 9.65608 26.663C9.66902 26.6334 9.68148 26.6042 9.69489 26.5756C9.75048 26.4532 9.81135 26.3333 9.87795 26.2162C9.93067 26.123 9.98719 26.0317 10.0485 25.9442L10.1631 25.7856C10.2043 25.831 10.2455 25.8764 10.2867 25.9218C10.3538 25.9968 10.4161 26.0766 10.476 26.1579C10.5574 26.2687 10.6336 26.3839 10.7046 26.502C10.7458 26.5703 10.7855 26.6401 10.8229 26.7113C11.064 27.1677 11.2254 27.6723 11.2432 28.1908C11.248 28.3256 11.2432 28.4599 11.2298 28.5937L11.2417 28.565C11.2921 28.5994 11.3428 28.6339 11.3932 28.6683C11.4761 28.7261 11.5556 28.7892 11.6328 28.8546C11.7377 28.9435 11.8388 29.0377 11.9351 29.1361C11.9912 29.193 12.0458 29.2518 12.0985 29.3125C12.4397 29.7005 12.7143 30.154 12.8523 30.6539C12.8782 30.7466 12.8988 30.8398 12.9156 30.934C12.9975 30.9679 13.0775 31.0061 13.1566 31.0467C13.2797 31.1093 13.3995 31.1777 13.516 31.2513C13.5835 31.2943 13.6502 31.3392 13.7158 31.3856C14.1289 31.68 14.4945 32.0499 14.7437 32.4938C14.795 32.5861 14.8414 32.6802 14.8831 32.7772C14.944 32.7949 15.0044 32.8145 15.0643 32.8355C15.1946 32.8804 15.323 32.932 15.4486 32.9894C15.5214 33.0224 15.5938 33.0577 15.6647 33.095C16.1233 33.3344 16.5435 33.6589 16.8531 34.0757C17.1387 34.4604 17.3251 34.9115 17.4334 35.3755C17.4516 35.4539 17.4674 35.5323 17.4813 35.6111C17.4875 35.6451 17.4928 35.679 17.4981 35.7129L17.5081 35.7096C19.2697 35.0773 21.0168 34.7997 23.6222 34.7958C23.7473 34.7911 23.8728 34.7877 23.9983 34.7863L24.3745 34.7958C27.2952 34.8001 29.1372 35.1485 31.1292 35.9543C31.1052 35.874 31.0851 35.7927 31.0684 35.7105C30.9922 35.3421 30.9831 34.954 31.0827 34.5894C31.1824 34.2243 31.388 33.8945 31.6415 33.6159C31.7546 33.4912 31.8782 33.3746 32.0124 33.2723L32.1786 33.1514C32.204 33.2102 32.2299 33.269 32.2553 33.3273C32.2831 33.3946 32.3075 33.463 32.3296 33.5323C32.3569 33.6193 32.3799 33.7067 32.3995 33.7956C32.4312 33.9409 32.4523 34.0895 32.4604 34.2391C32.5074 34.2123 32.5548 34.1875 32.6032 34.1641C32.5333 33.8056 32.5275 33.4295 32.6248 33.0754C32.7245 32.7108 32.9295 32.3806 33.183 32.1019C33.2966 31.9772 33.4202 31.8606 33.5544 31.7583L33.7207 31.6374C33.7461 31.6962 33.7715 31.755 33.7969 31.8138C33.8252 31.8807 33.8496 31.9495 33.8712 32.0188C33.8985 32.1053 33.922 32.1932 33.9411 32.2821C33.9728 32.4274 33.9938 32.576 34.002 32.7251C34.0092 32.7208 34.0168 32.717 34.024 32.7127C33.9603 32.3657 33.9584 32.0035 34.0518 31.6618C34.152 31.2967 34.3571 30.9669 34.6106 30.6883C34.7241 30.5636 34.8473 30.447 34.9814 30.3447L35.1477 30.2238L35.2513 30.4675C35.2575 30.3978 35.267 30.328 35.2809 30.2592C35.3538 29.8879 35.5345 29.5442 35.7669 29.2475C35.8708 29.1151 35.9858 28.9899 36.1119 28.8781L36.269 28.7457L36.3812 28.9626C36.3797 28.9129 36.3802 28.8628 36.3826 28.8126C36.4008 28.435 36.5297 28.0685 36.7166 27.7416C36.8 27.5954 36.8953 27.4549 37.0041 27.3263L37.1402 27.1724C37.1781 27.2241 37.2155 27.2762 37.2533 27.3278C37.2955 27.387 37.3338 27.4487 37.3702 27.5117C37.4158 27.5901 37.4574 27.6714 37.4958 27.7536C37.5581 27.8888 37.6113 28.0293 37.6515 28.1732C37.6784 28.1488 37.7061 28.1254 37.7339 28.102C37.5461 27.8152 37.4062 27.4922 37.3573 27.1514C37.3036 26.7767 37.3602 26.393 37.4819 26.037C37.536 25.8773 37.6031 25.7216 37.6855 25.5744L37.79 25.3975C37.8365 25.4415 37.8834 25.485 37.9299 25.529C37.9826 25.5791 38.0325 25.6327 38.0799 25.6876C38.1393 25.756 38.1959 25.8276 38.2491 25.9012C38.3358 26.0221 38.4144 26.1502 38.4815 26.284L38.5179 26.2372C38.2898 25.9729 38.1067 25.6656 38.0138 25.3278C37.9136 24.9631 37.9218 24.5751 37.9975 24.2066C38.0315 24.0417 38.0785 23.8788 38.1417 23.7225L38.2227 23.5342C38.275 23.5715 38.3267 23.6093 38.3785 23.647C38.4369 23.69 38.493 23.7368 38.5471 23.7856C38.6152 23.8463 38.6799 23.9098 38.7417 23.9767C38.7652 24.0016 38.8045 24.046 38.8073 24.0494C38.8073 24.0499 38.8078 24.0499 38.8073 24.0494C38.6966 23.9127 38.6018 23.7641 38.5275 23.6045C38.3689 23.2609 38.3133 22.8766 38.3277 22.5005C38.3339 22.3323 38.3531 22.1641 38.3904 21.9997L38.4393 21.8004C38.4968 21.8291 38.5543 21.8578 38.6118 21.8864C38.6703 21.9165 38.7278 21.9495 38.7838 21.9849C38.7503 21.9433 38.7187 21.9008 38.689 21.8563C38.4772 21.5428 38.3607 21.1725 38.3142 20.7992C38.2936 20.632 38.286 20.4628 38.296 20.2946L38.3123 20.09C38.3737 20.1091 38.435 20.1282 38.4963 20.1474C38.5658 20.1698 38.6334 20.1961 38.7005 20.2248C38.7839 20.2606 38.8658 20.3008 38.9458 20.3443C39.0771 20.415 39.2036 20.4962 39.3225 20.5875C39.3268 20.5665 39.3316 20.545 39.3364 20.524C39.0838 20.3873 38.8524 20.2105 38.6679 19.9906C38.4244 19.7005 38.2702 19.344 38.1853 18.9775C38.1475 18.8136 38.1221 18.6458 38.1144 18.4776L38.1101 18.2726C38.1729 18.285 38.2356 18.2979 38.2984 18.3103C38.3559 18.3228 38.413 18.3376 38.469 18.3543C38.4546 18.3414 38.4403 18.3285 38.4259 18.3151C38.1504 18.0556 37.9553 17.7197 37.8279 17.3655C37.7708 17.2069 37.7263 17.0434 37.699 16.8771L37.6702 16.674C37.7339 16.6793 37.7982 16.6845 37.8619 16.6898C37.9343 16.6965 38.0066 16.7075 38.078 16.7209C38.0933 16.7237 38.1087 16.7266 38.1235 16.7295C38.0991 16.7137 38.0751 16.697 38.0512 16.6798C37.7445 16.4575 37.5078 16.1488 37.3362 15.8138C37.2595 15.6637 37.1944 15.5075 37.146 15.3459L37.0913 15.1481C37.1599 15.1452 37.2284 15.1414 37.2969 15.139L37.4589 15.1404C37.4364 15.1314 37.4138 15.1218 37.3918 15.1118C37.0468 14.9541 36.754 14.6984 36.5192 14.4035C36.4143 14.2716 36.3194 14.1311 36.2398 13.9825L36.1473 13.7995C36.214 13.7827 36.2801 13.7655 36.3467 13.7498C36.4224 13.7326 36.5589 13.7034 36.5589 13.7034C36.5086 13.6857 36.4588 13.6661 36.4099 13.6442C36.0884 13.5013 35.8081 13.2752 35.5766 13.0129C35.465 12.8867 35.3629 12.751 35.2757 12.6066L35.1741 12.4284C35.2397 12.4083 35.3049 12.3878 35.3711 12.3687C35.3979 12.361 35.4247 12.3538 35.452 12.3476C35.1194 12.2 34.8324 11.9624 34.5976 11.6876C34.4884 11.5596 34.3882 11.4224 34.3039 11.2762L34.2052 11.0965L34.3523 11.054C34.0116 10.8982 33.7207 10.6468 33.4869 10.3567C33.381 10.2258 33.2851 10.0857 33.2046 9.9376L33.1112 9.75505C33.1246 9.75122 33.1193 9.75265 33.1299 9.74978C32.874 9.61788 32.6449 9.43485 32.448 9.22649C32.332 9.10367 32.2251 8.97176 32.1336 8.8303L32.0258 8.6554C32.0905 8.63341 32.1552 8.61047 32.2204 8.58945C32.3219 8.55743 32.4254 8.53211 32.5299 8.51251C32.689 8.48241 32.8505 8.4652 33.012 8.46138H33.1351C33.0786 8.34 33.0316 8.21383 32.9933 8.08623C32.9449 7.9247 32.9085 7.75935 32.8903 7.59161L32.872 7.38754C32.9358 7.39615 32.999 7.40475 33.0628 7.41288C33.1346 7.42387 33.2065 7.4382 33.277 7.4554C33.3656 7.47691 33.4533 7.50272 33.5396 7.53187C33.714 7.59161 33.8846 7.66712 34.0441 7.76078C34.0489 7.58062 34.0729 7.40093 34.1127 7.22554C34.1496 7.06115 34.1999 6.89913 34.266 6.74429L34.3513 6.55744C34.4026 6.59615 34.4534 6.63485 34.5047 6.67356C34.5622 6.718 34.6173 6.7658 34.6705 6.81503C34.7371 6.87715 34.8008 6.94214 34.8612 7.01C35.1276 7.30773 35.3399 7.6628 35.431 8.05372C35.4362 8.07714 35.4525 8.10964 35.4525 8.10964L35.5009 8.01311L35.5943 7.84489C35.6422 7.88742 35.6902 7.92996 35.7381 7.97249C35.7918 8.02123 35.843 8.07332 35.8924 8.12685C35.9537 8.19375 36.0122 8.264 36.0673 8.33616C36.2877 8.62529 36.4598 8.95839 36.534 9.31538L36.6352 9.11896C36.684 9.16005 36.7334 9.20115 36.7823 9.24225C36.8378 9.29004 36.8901 9.34023 36.9409 9.39232C37.0041 9.45779 37.0645 9.52612 37.1215 9.59685C37.317 9.83962 37.4781 10.1154 37.5729 10.4126L37.7191 10.5311C37.7752 10.5775 37.8283 10.6272 37.8801 10.6783C37.9443 10.7424 38.0057 10.8098 38.0641 10.8795C38.32 11.1863 38.5198 11.5481 38.5975 11.9419C38.5998 11.9529 38.6018 11.9639 38.6037 11.9749L38.643 11.9056C38.6904 11.9481 38.7383 11.9906 38.7858 12.0336C38.8394 12.0829 38.8902 12.135 38.9391 12.189C39 12.2563 39.058 12.3266 39.1126 12.3992C39.3527 12.7185 39.5338 13.0903 39.5913 13.4874C39.6272 13.7364 39.6148 13.9902 39.5678 14.2368L39.5683 14.2353C39.632 14.1321 39.7025 14.0327 39.7791 13.939L39.9133 13.7837C39.9516 13.8348 39.99 13.8865 40.0283 13.9376C40.071 13.9964 40.1103 14.0575 40.1476 14.1201C40.1941 14.198 40.2368 14.2783 40.2761 14.3605C40.4476 14.7209 40.5521 15.1204 40.5295 15.5213C40.5238 15.6207 40.5109 15.7187 40.4912 15.8157L40.6431 15.679C40.6747 15.735 40.7064 15.7904 40.7375 15.8463C40.7725 15.9103 40.8037 15.9758 40.8324 16.0427C40.8683 16.1259 40.9009 16.2109 40.9292 16.2974C41.0538 16.6764 41.106 17.086 41.0322 17.4807C41.0116 17.5901 40.9824 17.6977 40.9445 17.8023L41.0226 17.7426L41.1798 17.6322C41.2047 17.691 41.2292 17.7502 41.2536 17.809C41.2809 17.8769 41.3044 17.9457 41.325 18.015C41.3509 18.1025 41.3729 18.1904 41.3912 18.2793C41.4702 18.6707 41.4736 19.0836 41.3542 19.4668C41.302 19.6341 41.2277 19.7937 41.1372 19.9433L41.2646 19.864L41.4324 19.7698C41.4511 19.8315 41.4693 19.8926 41.4875 19.9538C41.5076 20.0236 41.5239 20.0948 41.5373 20.166C41.5541 20.2554 41.5665 20.3452 41.5752 20.4355C41.613 20.8327 41.5737 21.2441 41.4151 21.6131C41.3178 21.8391 41.1793 22.0446 41.0145 22.2277L41.0207 22.2243C41.1353 22.1588 41.2546 22.101 41.3773 22.0527L41.5704 21.982C41.579 22.0456 41.5871 22.1091 41.5953 22.1722C41.6039 22.2444 41.6082 22.317 41.6101 22.3897C41.6125 22.4805 41.6106 22.5713 41.6049 22.6621C41.5785 23.0602 41.4736 23.4597 41.2575 23.7985C41.1209 24.0131 40.9441 24.199 40.7447 24.3572C40.8545 24.3185 40.9661 24.286 41.0797 24.2621L41.2819 24.2238C41.2795 24.2879 41.2776 24.3519 41.2752 24.4155C41.2718 24.4881 41.2642 24.5607 41.2541 24.6324C41.2416 24.7223 41.2249 24.8116 41.2043 24.9C41.1127 25.2886 40.9441 25.6661 40.6752 25.9648C40.4313 26.2367 40.1151 26.437 39.7787 26.5751C39.6972 26.6085 39.6148 26.6391 39.5304 26.6649C39.5304 26.6955 39.5295 26.7261 39.5285 26.7567C39.69 26.6759 39.8606 26.6133 40.0346 26.566C40.1975 26.522 40.3647 26.49 40.5329 26.4761L40.7385 26.4632C40.728 26.5263 40.7179 26.5894 40.7073 26.653C40.6949 26.7242 40.6786 26.7954 40.6594 26.8652C40.6354 26.9531 40.6077 27.0396 40.5761 27.1246C40.4371 27.4984 40.2219 27.8515 39.9181 28.1149C39.6421 28.3543 39.3028 28.5139 38.9516 28.609C38.8433 28.6386 38.7326 28.6625 38.6214 28.6793C38.6123 28.7313 38.6018 28.783 38.5898 28.8346C38.7633 28.7863 38.943 28.7567 39.1227 28.7433C39.1849 28.7385 39.2477 28.7361 39.3105 28.7352C39.334 28.7347 39.3575 28.7347 39.3809 28.7347L39.6421 28.7505L39.8333 28.7748C39.8098 28.8393 39.7868 28.9039 39.7624 28.9679C39.7005 29.1246 39.6224 29.2752 39.5338 29.4181C39.3344 29.7378 39.0733 30.0255 38.7489 30.2219C38.4244 30.4183 38.0478 30.5163 37.6716 30.545C37.6079 30.5497 37.5432 30.5526 37.479 30.5536C37.4733 30.5693 37.467 30.5846 37.4608 30.6004H37.4618C37.5586 30.588 37.6563 30.5818 37.7541 30.5798L37.9429 30.5832C38.0483 30.5884 38.1537 30.5994 38.2582 30.6162L38.515 30.6692L38.7 30.7213C38.6674 30.7815 38.6353 30.8417 38.6017 30.9015C38.5184 31.0477 38.4187 31.1853 38.3099 31.3144C38.0665 31.6016 37.7661 31.8486 37.4167 31.9958C37.1479 32.1086 36.8575 32.1602 36.5661 32.166C36.6792 32.1755 36.7914 32.1913 36.9025 32.2133C37.0147 32.2358 37.1263 32.2639 37.2351 32.3007L37.4287 32.3705C37.3918 32.4279 37.3554 32.4862 37.3175 32.543C37.2231 32.6831 37.1143 32.813 36.9965 32.9335C36.7329 33.2025 36.4152 33.4272 36.0558 33.5485C35.9005 33.6011 35.74 33.6336 35.5776 33.6494C35.5723 33.6479 35.7271 33.6871 35.8076 33.7144L36.0012 33.7841C35.9643 33.842 35.9279 33.8998 35.89 33.9571C35.7956 34.0967 35.6868 34.2267 35.5689 34.3471C35.3049 34.6162 34.9877 34.8408 34.6283 34.9621C34.2689 35.0835 33.8798 35.0983 33.5065 35.0448C33.4279 35.0334 33.3493 35.0195 33.2717 35.0018C33.2592 35.031 33.2458 35.0592 33.2324 35.0874L33.3915 35.084C33.5736 35.0859 33.7547 35.1055 33.9335 35.1409C34.0456 35.1633 34.1572 35.1915 34.266 35.2279L34.4596 35.2976C34.4222 35.3555 34.3863 35.4133 34.3484 35.4706C34.254 35.6107 34.1453 35.7406 34.0269 35.8611C33.7633 36.1301 33.4456 36.3543 33.0867 36.4761C32.9094 36.5359 32.7254 36.5698 32.539 36.5822ZM16.0255 36.3165C15.669 36.2099 15.3273 36.0527 15.0259 35.8338C14.6775 35.581 14.391 35.2527 14.1619 34.89C13.9108 34.9077 13.6612 34.9488 13.4177 35.0114L13.4091 35.0133C13.5212 35.1677 13.6449 35.3134 13.7771 35.4501C13.826 35.5012 13.8768 35.5504 13.9281 35.5987C14.2535 35.9017 14.6339 36.1526 15.0575 36.294C15.289 36.371 15.53 36.4154 15.7725 36.4331C15.7533 36.4422 15.9225 36.3633 16.0255 36.3165ZM31.8658 36.2472C31.93 36.2601 31.9942 36.2702 32.0588 36.2783C32.3876 36.3189 32.7293 36.3003 33.0412 36.1836C33.3038 36.0857 33.5386 35.9246 33.7418 35.7335C33.7863 35.6914 33.8295 35.6479 33.8712 35.603L34.0001 35.4534C33.944 35.4391 33.887 35.4271 33.83 35.4166C33.6848 35.3903 33.5372 35.376 33.3891 35.3741C33.379 35.3741 33.3685 35.3741 33.3584 35.3741C33.2554 35.375 33.1524 35.3822 33.0508 35.3975C32.9962 35.4759 32.9358 35.5509 32.8701 35.6212C32.6205 35.8874 32.2999 36.0809 31.9606 36.2123L31.8658 36.2472ZM17.0194 35.8936C16.9034 35.6384 16.763 35.3942 16.5948 35.1696C16.428 34.9459 16.234 34.7423 16.0112 34.5736C15.7534 34.3786 15.4601 34.2348 15.1539 34.1335C14.9962 34.0814 14.8347 34.0403 14.6718 34.0092C14.46 33.9691 14.2448 33.9457 14.0292 33.938H14.0211C14.022 33.9404 14.0225 33.9433 14.0235 33.9461C14.0949 34.1416 14.1802 34.3318 14.2793 34.5148C14.3579 34.6596 14.4456 34.7997 14.5424 34.933C14.7312 35.193 14.9564 35.4281 15.219 35.6145C15.4606 35.786 15.7308 35.9146 16.0121 36.0078C16.1582 36.0561 16.3073 36.0948 16.4582 36.1249L16.6374 36.0489C16.4544 35.9251 16.2752 35.7956 16.0969 35.6651C15.8956 35.5141 15.6958 35.3607 15.5022 35.1992C15.3077 35.0381 15.117 34.8723 14.9358 34.6917L14.9368 34.6907C15.1706 34.7944 15.3939 34.9134 15.6139 35.0372C15.8343 35.1605 16.0495 35.2919 16.2627 35.4252C16.474 35.5614 16.6844 35.6991 16.889 35.8448C16.9192 35.8663 16.9494 35.8878 16.9796 35.9093L17.0194 35.8936ZM31.8729 35.9347C31.8835 35.9304 31.894 35.9261 31.905 35.9218C32.2112 35.7966 32.4997 35.613 32.7144 35.3588C32.8946 35.1452 33.0201 34.8895 33.1025 34.6243C33.1208 34.5655 33.137 34.5062 33.1514 34.447L33.1898 34.253L33.0009 34.3127C32.943 34.3332 32.8859 34.3557 32.8294 34.3801C32.5582 34.4981 32.3032 34.6625 32.1044 34.8833C31.906 35.1041 31.7704 35.375 31.6822 35.6565C31.6793 35.667 31.676 35.6776 31.6726 35.6881C31.7546 35.592 31.8399 35.4993 31.9266 35.4071C32.043 35.2871 32.1614 35.1691 32.2874 35.0572C32.413 34.9445 32.5433 34.8365 32.6871 34.7395L32.688 34.7404C32.6152 34.8976 32.5289 35.0429 32.4379 35.1844C32.3468 35.3263 32.2491 35.462 32.149 35.5958C32.0593 35.711 31.9688 35.8252 31.8729 35.9347ZM32.1724 34.4279C32.1758 34.2807 32.1638 34.133 32.1398 33.9887C32.1298 33.928 32.1178 33.8678 32.1034 33.8085L32.0512 33.6178L31.9089 33.7555C31.8667 33.7994 31.8255 33.8453 31.7862 33.8921C31.5964 34.1187 31.4421 34.3796 31.364 34.6659C31.2859 34.9516 31.2859 35.2546 31.3338 35.5457C31.3429 35.5997 31.3669 35.7005 31.3669 35.7005C31.3683 35.6957 31.3698 35.6905 31.3707 35.6857C31.468 35.322 31.6343 34.9712 31.8878 34.6893C31.9726 34.5947 32.0665 34.5091 32.1671 34.4317L32.1724 34.4279ZM17.1718 35.5428C17.1329 35.3526 17.0802 35.1653 17.0122 34.9832C16.9149 34.7222 16.7855 34.4723 16.6187 34.2487C16.4266 33.9896 16.1856 33.7688 15.9196 33.5863C15.7773 33.4883 15.6278 33.4009 15.473 33.323C15.2866 33.2293 15.0935 33.15 14.8951 33.085L14.887 33.0821C14.8874 33.0855 14.8874 33.0878 14.8874 33.0907C14.9009 33.2986 14.9291 33.505 14.9732 33.7086C14.9785 33.7335 14.9842 33.7583 14.99 33.7827C15.3532 33.8764 15.704 34.0193 16.0183 34.2238C16.0926 34.2721 16.1645 34.3237 16.2335 34.3782C16.4314 34.5344 16.6082 34.7156 16.7644 34.9125C16.9202 35.1089 17.0553 35.3211 17.1718 35.5428ZM33.4073 34.7337C33.4715 34.7461 33.5357 34.7562 33.6004 34.7643C33.9292 34.8049 34.2708 34.7863 34.5832 34.6697C34.8454 34.5722 35.0806 34.4107 35.2833 34.22C35.3279 34.1779 35.371 34.134 35.4127 34.089L35.5416 33.9395C35.4779 33.9232 35.4132 33.9098 35.348 33.8988C35.21 33.8749 35.0706 33.862 34.9307 33.8606H34.9C34.797 33.8611 34.6944 33.8687 34.5928 33.884C34.5377 33.9624 34.4778 34.0369 34.4117 34.1072C34.162 34.3739 33.8419 34.5674 33.5022 34.6984C33.471 34.7108 33.4394 34.7222 33.4073 34.7337ZM13.4034 34.7151C13.4882 34.6945 13.6775 34.6577 13.6938 34.6549C13.3315 34.4972 12.9917 34.2854 12.7061 34.0116C12.3956 33.7139 12.157 33.3492 11.9802 32.9583C11.9231 32.9545 11.8661 32.9521 11.8096 32.9507C11.7693 32.9497 11.7291 32.9493 11.6893 32.9493C11.5427 32.9502 11.3965 32.9583 11.2503 32.9736L11.2173 32.9774C11.2312 33.0028 11.2451 33.0281 11.259 33.053C11.4382 33.3684 11.6562 33.6632 11.9145 33.9194C12.1187 34.1215 12.3492 34.2993 12.6031 34.435C12.8538 34.5688 13.1254 34.6596 13.4034 34.7151L13.4019 34.7156L13.4034 34.7151ZM14.4087 33.6752C14.2482 33.3588 14.0407 33.0654 13.7786 32.8245C13.5557 32.619 13.2975 32.4537 13.0239 32.3237C12.7009 32.1708 12.3554 32.0647 12.0041 32.0016L11.9711 31.9963C11.972 31.9987 11.9725 32.0016 11.973 32.0044C12.0166 32.208 12.0746 32.4083 12.1479 32.6028C12.2059 32.7571 12.2734 32.9077 12.3511 33.053C12.4977 33.3287 12.6822 33.5858 12.9079 33.8023C13.1341 34.0188 13.3986 34.1927 13.6804 34.3289C13.7556 34.3653 13.8323 34.3987 13.9099 34.4303C13.8668 34.338 13.8265 34.2448 13.7891 34.1502C13.7556 34.0637 13.7005 33.8979 13.7024 33.9031C13.5538 33.7545 13.4072 33.6035 13.2654 33.4477C13.0948 33.2618 12.9285 33.0711 12.7742 32.868L12.7751 32.8666C12.9922 33.0018 13.1973 33.15 13.3981 33.3029C13.5462 33.4147 13.6904 33.5304 13.8332 33.6479L13.9453 33.646C14.1001 33.6475 14.2549 33.6575 14.4087 33.6752ZM33.4586 34.403C33.7605 34.2778 34.0442 34.0957 34.256 33.8448C34.4361 33.6317 34.5617 33.376 34.6446 33.1103C34.6628 33.052 34.6786 32.9927 34.693 32.933L34.7318 32.7394L34.5425 32.7987C34.485 32.8193 34.4275 32.8417 34.3714 32.8661C34.1002 32.9841 33.8448 33.1485 33.6464 33.3693C33.4988 33.5332 33.3857 33.7253 33.3014 33.9285L33.46 33.9017L33.4682 33.8936C33.5846 33.7731 33.703 33.6551 33.8295 33.5433C33.955 33.431 34.0854 33.3225 34.2286 33.2255L34.2301 33.2264C34.1572 33.3837 34.0705 33.5289 33.9795 33.6704C33.8889 33.8128 33.7907 33.9485 33.6905 34.0819C33.6177 34.176 33.5439 34.2692 33.4672 34.36C33.4643 34.3743 33.4615 34.3887 33.4586 34.403ZM32.9573 34.0202C33.058 33.7115 33.2118 33.4176 33.4294 33.1753C33.5161 33.0792 33.6115 32.9923 33.714 32.9139C33.7174 32.7667 33.7054 32.6195 33.6814 32.4747C33.6718 32.414 33.6594 32.3543 33.6455 32.2945L33.5927 32.1043L33.4509 32.2415C33.4083 32.2859 33.367 32.3313 33.3278 32.3786C33.138 32.6047 32.9837 32.8661 32.9056 33.1519C32.8275 33.4381 32.8275 33.7407 32.8754 34.0322L32.8783 34.0479L32.9573 34.0202ZM14.5918 32.8384C14.5534 32.7533 14.5103 32.6702 14.4629 32.5894C14.3047 32.3208 14.0982 32.0823 13.8653 31.8754C13.5922 31.6326 13.2826 31.431 12.9548 31.2704L12.9472 31.2671C12.9467 31.2699 12.9467 31.2728 12.9462 31.2757C12.9304 31.4898 12.9304 31.7053 12.9477 31.9199C12.9491 31.938 12.951 31.9567 12.9524 31.9748C13.3631 32.143 13.7474 32.3786 14.0613 32.6926C14.2928 32.9239 14.483 33.193 14.6358 33.4811L14.6052 33.2216C14.5956 33.1151 14.5918 32.8384 14.5918 32.8384ZM34.8784 33.3282C34.9278 33.3368 34.9781 33.3445 35.0279 33.3507C35.3567 33.3913 35.6983 33.3727 36.0108 33.2561C36.2729 33.1586 36.5082 32.997 36.7109 32.8064C36.7554 32.7643 36.7986 32.7203 36.8403 32.6754L36.9691 32.5258C36.9054 32.5096 36.8407 32.4962 36.7756 32.4852C36.6375 32.4613 36.4981 32.4484 36.3582 32.447C36.3481 32.447 36.3376 32.447 36.3275 32.447C36.2245 32.4475 36.1219 32.4551 36.0204 32.4699C35.9652 32.5488 35.9053 32.6233 35.8392 32.6936C35.5896 32.9602 35.2695 33.1538 34.9297 33.2847C34.9158 33.29 34.9019 33.2957 34.888 33.3005C34.8846 33.3096 34.8813 33.3187 34.8784 33.3282ZM34.9819 32.3915C35.0711 32.3017 35.1616 32.2138 35.257 32.1297C35.3821 32.0174 35.5124 31.9089 35.6562 31.8119L35.6576 31.8128C35.5843 31.97 35.498 32.1153 35.407 32.2568C35.3164 32.3987 35.2182 32.5344 35.118 32.6682C35.0845 32.7113 35.0514 32.7538 35.0174 32.7963C35.0092 32.846 34.9997 32.8948 34.9891 32.944C35.2522 32.8217 35.4961 32.6534 35.6835 32.4312C35.8637 32.2176 35.9892 31.9624 36.0721 31.6967C36.0898 31.6379 36.1061 31.5791 36.1205 31.5194L36.1588 31.3258L35.97 31.3851C35.9121 31.4056 35.855 31.4281 35.7989 31.4525C35.5272 31.5705 35.2723 31.7349 35.0739 31.9557C34.9465 32.0972 34.8454 32.2592 34.7653 32.4312L34.9819 32.3915ZM11.5748 32.6606C11.1579 32.3944 10.7822 32.0541 10.5124 31.6374C10.279 31.2766 10.13 30.8671 10.0476 30.446C9.81518 30.3748 9.57558 30.3246 9.33406 30.295L9.30099 30.2912C9.30194 30.2936 9.30243 30.2964 9.30338 30.2993C9.35753 30.5 9.42704 30.6969 9.5109 30.8876C9.57702 31.0381 9.65274 31.1849 9.73803 31.3258C9.89952 31.593 10.0979 31.8396 10.3351 32.0436C10.5665 32.2429 10.8325 32.3992 11.1128 32.5187C11.2436 32.5741 11.5216 32.6625 11.5216 32.6625C11.5393 32.6616 11.557 32.6611 11.5748 32.6606ZM34.4079 32.5387C34.5085 32.2549 34.6551 31.9863 34.8568 31.7617C34.9431 31.6656 35.039 31.5786 35.1415 31.5003C35.1449 31.3531 35.1329 31.2059 35.1089 31.0611C35.0988 31.0004 35.0869 30.9407 35.073 30.8809L35.0203 30.6902L34.8784 30.8279C34.8358 30.8723 34.7946 30.9177 34.7553 30.9645C34.5655 31.1911 34.4112 31.452 34.3331 31.7383C34.2579 32.0126 34.255 32.3022 34.2972 32.5822L34.4079 32.5387ZM12.2605 31.7574C12.2471 31.6981 12.2327 31.6398 12.2164 31.5815C12.1412 31.3134 12.0338 31.0534 11.8872 30.8159C11.7171 30.5416 11.4957 30.3017 11.2465 30.0972C11.1128 29.9877 10.971 29.8878 10.8239 29.7971C10.6461 29.6881 10.4602 29.5925 10.268 29.5108L10.2603 29.5079C10.2603 29.5108 10.2603 29.5132 10.2603 29.516C10.2555 29.7244 10.2661 29.9323 10.2929 30.1387C10.314 30.3022 10.3452 30.4642 10.3869 30.6233C10.4693 30.9335 10.5943 31.2341 10.7716 31.5022C10.9398 31.7555 11.1517 31.9777 11.3879 32.1689C11.5149 32.2721 11.7856 32.4422 11.7856 32.4422C11.7583 32.3538 11.7343 32.2644 11.7128 32.1746C11.7018 32.1282 11.6912 32.0814 11.6816 32.0346C11.6452 31.9782 11.6088 31.9213 11.5724 31.8649C11.4397 31.6518 11.3088 31.4367 11.1861 31.2164C11.063 30.9966 10.9451 30.7729 10.8416 30.5397L10.8426 30.5387C11.0227 30.7203 11.1886 30.911 11.3491 31.1055C11.5048 31.2933 11.6529 31.4859 11.7986 31.6804L11.6275 31.6656L11.8105 31.6814C11.9112 31.6909 12.0113 31.7067 12.1105 31.7258C12.1608 31.7354 12.2107 31.7459 12.2605 31.7574ZM36.3481 31.7899L36.3217 31.8692C36.3404 31.8706 36.3587 31.8716 36.3773 31.8725C36.708 31.8893 37.0472 31.8463 37.3501 31.7072C37.6045 31.5911 37.8274 31.4128 38.0157 31.2078C38.0574 31.1629 38.0972 31.116 38.1355 31.0683L38.2534 30.9096C38.1182 30.8857 37.9817 30.8738 37.8451 30.8704C37.8212 30.8699 37.7972 30.8699 37.7733 30.8699C37.6151 30.8718 37.4565 30.8881 37.3027 30.9225C37.2533 31.0047 37.1992 31.084 37.1388 31.1586C36.927 31.42 36.6515 31.624 36.352 31.7765L36.3481 31.7899ZM12.6592 31.214C12.6438 31.051 12.6151 30.889 12.5715 30.7313C12.4838 30.4126 12.3333 30.1139 12.1455 29.8429C12.0516 29.7072 11.9481 29.5782 11.8374 29.4563C11.6974 29.3019 11.546 29.1581 11.3845 29.0262L11.3778 29.021C11.3769 29.0238 11.3759 29.0267 11.3749 29.0291C11.3122 29.2274 11.2643 29.4305 11.2317 29.636C11.2278 29.6613 11.224 29.6862 11.2207 29.7115C11.5815 29.9691 11.9016 30.2859 12.1349 30.6635C12.3573 31.0224 12.4977 31.4267 12.5749 31.8405C12.6007 31.8487 12.6261 31.8563 12.652 31.8649C12.6496 31.8329 12.6481 31.8013 12.6467 31.7693C12.6414 31.635 12.6419 31.5003 12.6486 31.3665C12.651 31.3153 12.6544 31.2647 12.6592 31.214ZM36.4722 31.1571L36.4439 31.3889C36.6438 31.2604 36.824 31.1008 36.9639 30.9082C37.1282 30.6821 37.2346 30.4183 37.2979 30.1473C37.3118 30.0876 37.3238 30.0279 37.3333 29.9672L37.3578 29.7712L37.1738 29.8444C37.1177 29.8687 37.0621 29.8955 37.0075 29.9237C36.7458 30.0608 36.5029 30.2434 36.3213 30.478C36.1852 30.6534 36.0865 30.8537 36.017 31.064C36.0692 31.0482 36.1224 31.0339 36.1751 31.0214L36.1818 31.0138C36.2892 30.8857 36.3989 30.7591 36.5168 30.6382C36.6332 30.5172 36.7554 30.3997 36.892 30.2926L36.893 30.2936C36.8316 30.4556 36.7559 30.6066 36.6754 30.7543C36.6126 30.8704 36.5451 30.9832 36.4756 31.0941L36.4722 31.1571ZM35.6791 31.1877C35.7563 30.869 35.889 30.5607 36.0908 30.3003C36.1689 30.1999 36.2561 30.1077 36.3505 30.0231L36.3553 30.0188C36.3486 29.8721 36.3256 29.7258 36.2911 29.583C36.2767 29.5237 36.2604 29.4644 36.2417 29.4061L36.1756 29.2202C36.1751 29.2207 36.1751 29.2207 36.1746 29.2212C36.1296 29.2685 36.086 29.3172 36.0438 29.3674C36.005 29.4147 35.9671 29.463 35.9312 29.5127C35.7587 29.7526 35.624 30.0241 35.5665 30.3146C35.5095 30.6057 35.5316 30.9082 35.6011 31.1949C35.603 31.2035 35.6049 31.2116 35.6073 31.2202C35.6308 31.2092 35.6547 31.1982 35.6791 31.1877ZM25.6271 28.0365C26.9171 28.5072 28.2967 28.7199 29.6859 28.6525C28.0542 29.181 26.3847 29.2436 24.8187 28.9149L24.8058 29.237L23.9983 30.3452L23.1909 29.237L23.178 28.9149C21.612 29.2436 19.942 29.181 18.3108 28.6525C19.6995 28.7199 21.0796 28.5072 22.3696 28.0365C20.2568 26.933 18.5581 25.0358 17.7621 22.5952C16.5828 18.9784 17.6979 15.009 20.5898 12.5287C17.4473 17.1648 18.5787 23.4267 23.0869 26.6902L22.7735 18.9622V12.8829C23.2618 12.6492 23.6835 12.296 23.9983 11.8568C24.3132 12.296 24.7349 12.6492 25.2227 12.8829V18.9622L24.9098 26.6902C29.4175 23.4267 30.5494 17.1648 27.4068 12.5287C30.2988 15.009 31.4138 18.9784 30.2346 22.5952C29.4386 25.0358 27.7399 26.933 25.6271 28.0365ZM37.5701 30.2601C37.6146 30.2582 37.6587 30.2549 37.7028 30.2506C38.0325 30.2195 38.3617 30.1273 38.6415 29.9462C38.8763 29.7942 39.0704 29.5858 39.2271 29.3555C39.2616 29.3048 39.2942 29.2532 39.3253 29.2002L39.4188 29.0262C39.391 29.0252 39.3637 29.0253 39.3359 29.0253C39.2808 29.0257 39.2257 29.0272 39.1706 29.031C38.9358 29.0463 38.7 29.0917 38.48 29.1763L38.4776 29.182C38.4417 29.2685 38.4 29.3531 38.3521 29.4338C38.1662 29.7478 37.8954 30.0064 37.5926 30.2076L37.5811 30.2152C37.5777 30.23 37.5739 30.2453 37.5701 30.2601ZM8.56351 27.3392C8.53859 27.3244 8.51321 27.3101 8.48781 27.2957C8.29374 27.1873 8.09055 27.0945 7.88163 27.0181L7.87347 27.0152C7.87347 27.0181 7.87348 27.0209 7.87396 27.0238C7.87971 27.2317 7.90128 27.4391 7.93866 27.6436C7.96789 27.8057 8.00719 27.9662 8.05702 28.123C8.15238 28.4202 8.28749 28.706 8.47102 28.9598C8.64928 29.2068 8.87165 29.4205 9.11652 29.6016C9.26267 29.7096 9.41744 29.8066 9.57749 29.8926C9.55928 29.874 9.5406 29.8549 9.52239 29.8362C9.1836 29.4826 8.90134 29.0683 8.73794 28.6052C8.59466 28.2004 8.5453 27.7674 8.56351 27.3392ZM10.4065 29.2542C10.4261 28.8465 10.3806 28.4341 10.2402 28.0494C10.1334 27.7569 9.97331 27.485 9.78211 27.2394C9.55737 26.9517 9.2895 26.6974 8.99576 26.4804L8.98903 26.4757C8.98855 26.4781 8.98759 26.4809 8.98663 26.4838C8.93392 26.685 8.89608 26.89 8.87356 27.0969C8.85631 27.2604 8.84864 27.4252 8.85247 27.5901C8.85966 27.9017 8.90853 28.2143 9.01252 28.5086C9.11698 28.8035 9.27512 29.0773 9.46536 29.3249C9.56168 29.4501 9.66614 29.5686 9.77731 29.6809C9.84152 29.7454 9.90719 29.8076 9.97523 29.8678L9.97043 29.7631C9.87891 29.5352 9.79648 29.3039 9.71598 29.0721C9.63595 28.8336 9.55929 28.5947 9.49124 28.3519C9.42272 28.1096 9.35994 27.8649 9.31394 27.614L9.31491 27.6135C9.44812 27.8315 9.56502 28.0556 9.67524 28.2821C9.78689 28.5082 9.88943 28.7376 9.98863 28.9684C10.0107 29.0205 10.0323 29.0726 10.0538 29.1246L10.1765 29.1648C10.2541 29.1911 10.3308 29.2212 10.4065 29.2542ZM37.6578 29.5806L37.6472 29.8057C37.8475 29.6403 38.0219 29.442 38.1427 29.2116C38.2721 28.9641 38.3391 28.6874 38.3622 28.4102C38.3674 28.3495 38.3703 28.2878 38.3713 28.2267L38.3665 28.0298L38.1954 28.1282C38.1432 28.1607 38.0924 28.1951 38.0425 28.2315C37.8034 28.4049 37.5897 28.6205 37.444 28.879C37.3343 29.074 37.2653 29.2891 37.2274 29.5094L37.364 29.463L37.3841 29.4291C37.4714 29.2867 37.5619 29.1457 37.6606 29.009C37.7589 28.8723 37.8624 28.7385 37.9817 28.6128L37.9826 28.6133C37.9457 28.7825 37.893 28.9431 37.8346 29.1012C37.7814 29.2479 37.7205 29.3908 37.6568 29.5328L37.6578 29.5806ZM36.915 29.6451C36.9476 29.3278 37.0334 29.0147 37.1901 28.7366C37.2538 28.6238 37.3281 28.5182 37.4115 28.4198C37.3827 28.2754 37.3391 28.134 37.284 27.9978C37.2614 27.9409 37.2365 27.885 37.2097 27.83L37.1172 27.6556L37.008 27.82C36.9763 27.8726 36.9461 27.9261 36.9179 27.9806C36.7818 28.2425 36.6879 28.5306 36.674 28.8264C36.6596 29.1208 36.7247 29.4147 36.8335 29.6871L36.915 29.6451ZM10.7371 29.4128C10.7841 29.2871 10.8248 29.1586 10.8574 29.0286C10.9279 28.75 10.9638 28.4618 10.9508 28.1741C10.9369 27.8611 10.8646 27.5524 10.753 27.2604C10.6202 26.912 10.4333 26.5851 10.2095 26.2874L10.1894 26.2611C10.188 26.2635 10.1866 26.2659 10.1851 26.2683C10.0778 26.4465 9.98335 26.6329 9.90381 26.825C9.89422 26.8484 9.88466 26.8723 9.87556 26.8962C10.1664 27.2303 10.4036 27.6126 10.5431 28.0341C10.6868 28.4685 10.7247 28.933 10.6897 29.388C10.6835 29.3846 10.7156 29.4013 10.7371 29.4128ZM38.7364 28.3624C38.8006 28.349 38.8639 28.3328 38.9267 28.3141C39.2444 28.2214 39.5501 28.0685 39.7902 27.8382C39.9919 27.6446 40.1433 27.4033 40.2535 27.1476C40.2775 27.0917 40.2995 27.0343 40.3201 26.9765L40.3786 26.7882L40.1845 26.8274C40.1251 26.8417 40.0657 26.8585 40.0072 26.8766C39.8251 26.934 39.6479 27.0119 39.4854 27.1127C39.4662 27.2064 39.4408 27.2991 39.4087 27.3899C39.286 27.733 39.069 28.0379 38.8102 28.2926C38.7858 28.3165 38.7618 28.3399 38.7364 28.3624ZM38.4163 27.6838C38.4297 27.6451 38.4436 27.6064 38.4575 27.5677C38.5165 27.4114 38.5783 27.2556 38.6492 27.1032C38.7196 26.9502 38.7963 26.7992 38.8893 26.6534L38.8907 26.6539C38.8864 26.8269 38.8648 26.9947 38.8375 27.1605C38.8112 27.3268 38.7752 27.4902 38.7369 27.6527C38.7105 27.755 38.6837 27.8568 38.654 27.9581L38.6588 28.0322C38.8826 27.799 39.0676 27.5218 39.161 27.2107C39.2415 26.9435 39.2544 26.6592 39.2247 26.3825C39.218 26.3218 39.2094 26.2611 39.1984 26.2009L39.1567 26.0078L39.0071 26.1373C38.9621 26.1789 38.9185 26.2224 38.8768 26.2673C38.6746 26.4828 38.5059 26.7347 38.412 27.0162C38.3358 27.2446 38.3104 27.4869 38.3205 27.7273L38.4259 27.68L38.4163 27.6838ZM38.0392 27.8831C38.009 27.561 38.033 27.2317 38.1355 26.9239C38.1767 26.8016 38.2299 26.684 38.2927 26.5713C38.2371 26.4351 38.1671 26.3046 38.0876 26.1813C38.0545 26.1297 38.0195 26.079 37.9826 26.0303L37.8585 25.8764L37.7828 26.059C37.7617 26.1163 37.7421 26.1741 37.7248 26.2329C37.641 26.5158 37.6036 26.8169 37.6458 27.1103C37.6879 27.4033 37.8087 27.6809 37.9687 27.929L38.0392 27.8831ZM30.4315 26.8193C30.4258 26.8274 30.42 26.8355 30.4142 26.8422C34.2037 24.6582 35.5004 19.8253 33.3096 16.0475C32.2352 14.1947 30.455 12.8552 28.3724 12.3357C32.953 15.7684 33.875 22.2535 30.4315 26.8193ZM14.6866 16.0475C12.4963 19.8253 13.793 24.6582 17.5824 26.8422C17.5767 26.8355 17.5709 26.8274 17.5652 26.8193C14.1217 22.2535 15.0432 15.7684 19.6238 12.3357C17.5417 12.8552 15.761 14.1947 14.6866 16.0475ZM8.98713 26.1225C9.04559 26.1588 9.1491 26.2319 9.14431 26.2291C9.26746 25.7488 9.30484 25.2394 9.19654 24.7529C9.13233 24.4652 9.01924 24.1894 8.87453 23.9333C8.69483 23.6159 8.46719 23.3254 8.20891 23.0683L8.18542 23.0449C8.18446 23.0477 8.18305 23.0501 8.18209 23.053C8.10158 23.2446 8.03497 23.4425 7.9837 23.6441C7.94297 23.8038 7.9123 23.9658 7.89265 24.1292C7.85623 24.4389 7.86055 24.7552 7.92237 25.0616C7.98371 25.3679 8.10156 25.6613 8.25538 25.9333C8.33637 26.0766 8.42743 26.2143 8.52662 26.3462C8.57406 26.4092 8.6234 26.4709 8.67468 26.5316L8.69576 26.446C8.63634 26.2047 8.58652 25.9615 8.53908 25.7177C8.49356 25.4707 8.45091 25.2231 8.41832 24.9732C8.3843 24.7237 8.35697 24.4723 8.34643 24.2176L8.34789 24.2171C8.449 24.4518 8.53285 24.6898 8.61048 24.9297C8.68907 25.1691 8.75759 25.4109 8.82372 25.6532C8.86158 25.7985 8.89848 25.9438 8.93346 26.0895L8.98713 26.1225ZM7.6425 23.8406C7.45226 23.6886 7.24766 23.5548 7.03394 23.4386L7.00469 23.4229C7.00469 23.4257 7.00421 23.4286 7.00373 23.4315C6.97977 23.6451 6.9721 23.8606 6.98121 24.0757C6.98792 24.2329 7.00422 24.3901 7.03058 24.5454C7.08425 24.8618 7.18201 25.172 7.33487 25.4554C7.47527 25.7158 7.66025 25.9505 7.8711 26.1579C8.00048 26.2855 8.1399 26.403 8.28653 26.5106C8.27072 26.4895 8.25492 26.4685 8.23959 26.447C7.95399 26.0499 7.73356 25.5997 7.63677 25.1184C7.55195 24.6974 7.56439 24.2621 7.6425 23.8406ZM39.5343 26.3576C39.5961 26.3361 39.657 26.3122 39.7164 26.2859C40.0202 26.154 40.3048 25.9648 40.5138 25.7063C40.6896 25.4888 40.8094 25.2307 40.8865 24.9636C40.9033 24.9048 40.9186 24.8451 40.9316 24.7854L40.9661 24.5908L40.7783 24.6544C40.7208 24.6759 40.6642 24.6998 40.6081 24.7251C40.4351 24.8049 40.2689 24.9039 40.1203 25.0243C40.1136 25.1199 40.0997 25.215 40.0791 25.3087C40.0005 25.6647 39.8232 25.9944 39.5985 26.2793C39.5774 26.3055 39.5563 26.3318 39.5343 26.3576ZM9.41312 26.3538C9.51327 26.1875 9.60194 26.014 9.67574 25.8343C9.78451 25.5686 9.86069 25.2881 9.88848 25.0018C9.91867 24.6898 9.89039 24.3744 9.82139 24.069C9.73897 23.7058 9.59953 23.3555 9.42032 23.0296L9.40402 23.0009C9.40211 23.0028 9.4002 23.0052 9.39876 23.0071C9.26746 23.1691 9.14767 23.3397 9.04176 23.5194C9.02883 23.5414 9.01635 23.5634 9.00389 23.5853C9.24492 23.9572 9.42606 24.3691 9.50417 24.8054C9.58899 25.2766 9.55498 25.7631 9.44477 26.2276C9.4347 26.2697 9.42414 26.3117 9.41312 26.3538ZM38.7786 25.9529C38.711 25.6422 38.6952 25.3182 38.7575 25.0057C38.7829 24.879 38.8208 24.7553 38.8692 24.6358C38.7968 24.5077 38.7115 24.3868 38.6171 24.2745C38.5773 24.2272 38.5361 24.1818 38.4939 24.1378L38.3512 24.0002L38.2994 24.1909C38.285 24.2506 38.273 24.3108 38.2634 24.371C38.2155 24.6621 38.216 24.965 38.2946 25.2508C38.3727 25.5342 38.5256 25.7928 38.7129 26.0174L38.7786 25.9529ZM39.4519 25.9892C39.6272 25.7421 39.7604 25.4621 39.8108 25.1624C39.8572 24.8867 39.8343 24.6033 39.77 24.3328C39.7557 24.2731 39.7394 24.2138 39.7211 24.1555L39.6555 23.9691L39.5233 24.1163C39.484 24.1631 39.4466 24.2114 39.4102 24.2611C39.2372 24.5005 39.1015 24.7715 39.0436 25.0621C38.999 25.2833 39.0009 25.5113 39.0345 25.7345L39.1461 25.6546C39.15 25.6379 39.1538 25.6207 39.1576 25.604C39.1964 25.4415 39.2381 25.2795 39.2899 25.1194C39.3402 24.9588 39.3972 24.7992 39.4715 24.6429L39.4729 24.6434C39.4902 24.8155 39.4902 24.9846 39.4839 25.1524C39.4787 25.3206 39.4634 25.4874 39.4456 25.6532C39.437 25.7216 39.4279 25.7904 39.4178 25.8582L39.4519 25.9892ZM40.1965 24.3724C40.2535 24.3409 40.3096 24.3075 40.3647 24.2721C40.6422 24.0924 40.8918 23.8587 41.0557 23.5696C41.1937 23.3268 41.2694 23.0525 41.302 22.7763C41.3087 22.7151 41.314 22.6539 41.3169 22.5928L41.3188 22.3954L41.1444 22.4886C41.0912 22.5196 41.0389 22.5521 40.9882 22.5865C40.8305 22.6936 40.6824 22.8183 40.5559 22.9612C40.5645 23.0568 40.5669 23.1524 40.5617 23.2484C40.5425 23.6126 40.4217 23.9662 40.2468 24.2845C40.2305 24.3141 40.2138 24.3433 40.1965 24.3724ZM38.8696 24.123C38.9228 24.1889 38.9736 24.2568 39.0206 24.327C39.0263 24.3175 39.0321 24.3075 39.0378 24.2979C38.9789 24.2425 38.9228 24.1842 38.8696 24.123ZM39.714 23.5251C39.7236 23.4138 39.7355 23.302 39.7518 23.1901C39.7758 23.0238 39.8055 22.857 39.8534 22.6907H39.8544C39.8999 22.8575 39.9277 23.0248 39.9488 23.1916C39.9713 23.3584 39.9838 23.5251 39.9934 23.6919C39.9981 23.8195 40.002 23.9471 40.001 24.0747C40.0044 24.0857 40.0077 24.0967 40.0111 24.1082L40.0163 24.0977C40.1702 23.8057 40.2727 23.4797 40.2732 23.1476C40.2737 22.8685 40.2047 22.5923 40.0969 22.3361C40.0729 22.2793 40.0475 22.2238 40.0197 22.1689L39.9243 21.9959L39.818 22.1627C39.7873 22.2157 39.7576 22.2692 39.7303 22.3242C39.5985 22.5885 39.5094 22.8781 39.4998 23.1744C39.4945 23.3392 39.5137 23.5036 39.552 23.6637C39.5654 23.6513 39.714 23.5251 39.714 23.5251ZM39.3177 23.9089C39.2415 23.6685 39.2003 23.4171 39.2084 23.1648C39.2127 23.0358 39.23 22.9077 39.2578 22.782C39.1658 22.6673 39.0613 22.5617 38.9496 22.4666C38.9032 22.4265 38.8548 22.3882 38.8054 22.3519L38.643 22.2396L38.6224 22.436C38.6185 22.4972 38.6166 22.5584 38.6166 22.6195C38.6171 22.9149 38.6674 23.2135 38.792 23.4826C38.8912 23.6967 39.035 23.8869 39.2027 24.0527L39.3177 23.9089ZM8.77965 23.1213C8.82086 23.0726 8.86063 23.0233 8.89944 22.9727C9.17019 22.6205 9.38391 22.2186 9.48358 21.7842C9.54923 21.497 9.56552 21.1992 9.54491 20.9058C9.51903 20.5421 9.43852 20.1827 9.31584 19.8401L9.30435 19.809C9.30243 19.8109 9.30004 19.8128 9.29812 19.8148C9.14238 19.9533 8.9972 20.1034 8.86446 20.264C8.84817 20.2836 8.83235 20.3032 8.81606 20.3232C8.99528 20.728 9.10837 21.1634 9.11652 21.6069C9.12515 22.0852 9.01396 22.5607 8.83139 23.0014C8.81509 23.0415 8.79786 23.0817 8.77965 23.1213ZM6.8686 19.8468L6.86621 19.8549C6.81014 20.0551 6.76941 20.2597 6.74401 20.4661C6.72388 20.6296 6.71382 20.7944 6.71526 20.9588C6.71813 21.2709 6.76222 21.5839 6.86238 21.8802C6.96205 22.1765 7.11587 22.4527 7.30276 22.7027C7.40147 22.8351 7.5093 22.9603 7.62431 23.0783C7.63006 23.0845 7.64106 23.095 7.64106 23.095C7.62956 23.0726 7.61808 23.0501 7.60658 23.0276C7.38807 22.5904 7.24142 22.111 7.22274 21.6207C7.20596 21.1916 7.28743 20.7634 7.43118 20.36L7.43165 20.3595C7.26777 20.1799 7.08711 20.015 6.89496 19.8668L6.8686 19.8468ZM8.52566 22.9765C8.60281 22.8021 8.66749 22.6219 8.71685 22.4379C8.79208 22.1607 8.83283 21.8731 8.82469 21.5858C8.81558 21.2723 8.74849 20.9627 8.64163 20.6683C8.58508 20.5125 8.51751 20.361 8.44084 20.2138C8.34165 20.0231 8.22711 19.8401 8.09917 19.6671L8.09437 19.6599C8.09246 19.6623 8.09104 19.6647 8.08961 19.6671C7.97556 19.8496 7.87588 20.0408 7.79154 20.2386C7.72637 20.3911 7.67077 20.5479 7.62621 20.7075C7.54283 21.009 7.49922 21.323 7.51504 21.636C7.52989 21.939 7.59844 22.2382 7.70386 22.5225C7.7604 22.6745 7.82698 22.8226 7.90222 22.9665L8.00622 22.7404L8.03161 22.6922C8.02634 22.5799 8.02202 22.4671 8.01818 22.3548C8.01291 22.1034 8.01005 21.8525 8.01772 21.6007C8.02394 21.3488 8.0364 21.0965 8.06659 20.8432H8.06802C8.1308 21.0903 8.17536 21.3392 8.21417 21.5882C8.25347 21.8367 8.28319 22.0862 8.30955 22.3361C8.3244 22.4905 8.33829 22.6449 8.34979 22.7992L8.52566 22.9765ZM40.4596 22.3481C40.5113 22.3084 40.5612 22.2664 40.6096 22.2224C40.8549 22.0011 41.0639 21.7306 41.1793 21.4191C41.2761 21.1572 41.3073 20.8742 41.2948 20.5966C41.292 20.5354 41.2872 20.4742 41.28 20.4136L41.2507 20.2181L41.0931 20.3381C41.0457 20.3768 40.9996 20.4174 40.9546 20.4594C40.8161 20.5899 40.6901 20.7366 40.588 20.8981C40.612 20.9909 40.6297 21.085 40.6398 21.1811C40.6796 21.5433 40.6173 21.9118 40.4951 22.2535C40.484 22.2855 40.472 22.317 40.4596 22.3481ZM39.5367 22.068C39.413 21.8324 39.3249 21.5782 39.2909 21.3139C39.2741 21.1858 39.2702 21.0568 39.2779 20.9282C39.1686 20.8298 39.0484 20.7424 38.9228 20.6659C38.8706 20.6339 38.8169 20.6038 38.7623 20.5756L38.5836 20.491L38.5951 20.6879C38.6008 20.749 38.6089 20.8097 38.619 20.8704C38.6669 21.1615 38.7647 21.4482 38.9305 21.6943C39.0699 21.9008 39.2549 22.0733 39.46 22.2143L39.5367 22.068ZM40.1783 21.8539C40.2095 21.906 40.2392 21.9596 40.2674 22.0136C40.3513 21.7268 40.3867 21.4234 40.3388 21.1275C40.2947 20.8518 40.1822 20.5899 40.0346 20.3543C40.002 20.3022 39.9679 20.2516 39.9315 20.2018L39.8098 20.0461L39.7317 20.2276C39.7097 20.2845 39.689 20.3423 39.6708 20.4011C39.5831 20.6826 39.5415 20.9827 39.5798 21.2771C39.6018 21.4506 39.6521 21.6188 39.7211 21.7794L39.8496 21.6183C39.84 21.4969 39.8328 21.3751 39.8314 21.2523C39.8275 21.0845 39.8304 20.9153 39.851 20.7433H39.8525C39.9239 20.9005 39.978 21.0611 40.0259 21.2222C40.0748 21.3832 40.1136 21.5462 40.1496 21.7091C40.1596 21.7574 40.1692 21.8052 40.1783 21.8539ZM40.4802 20.297C40.5272 20.252 40.5727 20.2047 40.6163 20.1564C40.8372 19.9108 41.0169 19.6202 41.0993 19.2986C41.1688 19.0281 41.1702 18.7433 41.1285 18.4685C41.1199 18.4078 41.1084 18.3476 41.095 18.2879L41.0457 18.0967L40.9014 18.232C40.8583 18.2754 40.8166 18.3209 40.7763 18.3672C40.6517 18.5115 40.542 18.6707 40.4572 18.8418C40.4907 18.9311 40.5181 19.0234 40.5382 19.117C40.6153 19.4735 40.5914 19.8468 40.5056 20.199C40.4979 20.232 40.4893 20.2645 40.4802 20.297ZM39.4907 20.047C39.3637 19.8434 39.2655 19.6226 39.2099 19.3894C39.1806 19.2656 39.1639 19.1395 39.1576 19.0133L39.1572 19.0066C39.0383 18.9201 38.9099 18.8456 38.7771 18.7825C38.7216 18.7562 38.665 18.7318 38.608 18.7094L38.4211 18.6434L38.4532 18.8384C38.4652 18.8982 38.4796 18.9579 38.4959 19.0171C38.574 19.3015 38.7005 19.5768 38.8912 19.8042C39.0383 19.9796 39.2204 20.1225 39.4183 20.2367L39.4907 20.047ZM39.5942 18.0762C39.5726 18.1378 39.553 18.1999 39.5357 18.263C39.5194 18.3218 39.5055 18.3815 39.4935 18.4418C39.4356 18.7309 39.425 19.0339 39.4935 19.3225C39.5276 19.4649 39.5803 19.6021 39.6464 19.7326L39.7475 19.5663L39.7935 19.6102C39.7729 19.4984 39.7547 19.3856 39.7413 19.2719C39.7207 19.1051 39.7058 18.9364 39.7082 18.7634L39.7092 18.7629C39.7969 18.9125 39.8673 19.0664 39.9315 19.2217C39.9972 19.377 40.0527 19.5347 40.1055 19.6934C40.1491 19.832 40.1917 19.9715 40.2272 20.1125C40.2296 20.1015 40.232 20.0905 40.2348 20.079C40.3062 19.7569 40.3197 19.4157 40.2334 19.095C40.1606 18.8255 40.0216 18.577 39.8501 18.3576C39.8122 18.3094 39.7729 18.2621 39.7322 18.2167L39.5946 18.0743L39.5942 18.0762ZM9.9067 16.7199C9.9067 16.7199 9.65464 16.8972 9.52142 16.9708C9.45242 17.009 9.38245 17.0458 9.31105 17.0802C9.38772 17.5084 9.39539 17.9505 9.30195 18.3763C9.1994 18.8437 8.98136 19.2805 8.70199 19.6676C8.6766 19.7029 8.65026 19.7378 8.6239 19.7722C8.67518 19.7345 8.72549 19.6958 8.77485 19.6551C9.11939 19.3746 9.42033 19.0329 9.61823 18.6329C9.74858 18.3686 9.83337 18.0833 9.88129 17.7928C9.93927 17.4387 9.94504 17.0764 9.9067 16.7199ZM8.39963 19.5863L8.40299 19.582C8.71064 19.1787 8.94928 18.7127 9.03793 18.2105C9.09016 17.9123 9.09014 17.6064 9.05133 17.3067C9.0058 16.9531 8.90807 16.6062 8.77102 16.2774L8.75806 16.2468C8.75614 16.2487 8.75423 16.2506 8.75183 16.2525C8.60376 16.3992 8.46672 16.5565 8.34213 16.7232C8.24342 16.8556 8.15284 16.9937 8.07185 17.1371C7.91947 17.4095 7.80256 17.7034 7.74171 18.0102C7.68133 18.3165 7.67797 18.6324 7.71582 18.9421C7.73547 19.1056 7.7671 19.2676 7.80783 19.4272C7.81646 19.4602 7.82555 19.4931 7.83465 19.5256L7.96835 19.3273C7.99662 19.1682 8.02825 19.0095 8.06036 18.8513C8.11307 18.6057 8.16867 18.3605 8.23432 18.1173C8.29854 17.874 8.36946 17.6312 8.45763 17.3918H8.45906C8.46242 17.647 8.44851 17.8993 8.42838 18.1502C8.40921 18.4016 8.37999 18.6511 8.34836 18.9001C8.3244 19.0711 8.29948 19.2422 8.2712 19.4124L8.39963 19.5863ZM7.52223 16.1464L7.51793 16.1536C7.4173 16.3361 7.33007 16.5254 7.25772 16.7204C7.20021 16.8747 7.15228 17.0329 7.11586 17.1935C7.0459 17.4974 7.01668 17.8124 7.04544 18.1235C7.07371 18.4346 7.15997 18.739 7.2836 19.0253C7.34877 19.1768 7.42497 19.323 7.5093 19.4649C7.51266 19.4702 7.51601 19.4759 7.51936 19.4817L7.5227 19.4869C7.51647 19.4616 7.51024 19.4363 7.50401 19.4109C7.38805 18.9158 7.35884 18.3949 7.46809 17.896C7.55579 17.4955 7.72781 17.118 7.95112 16.7749C7.82988 16.555 7.68707 16.3467 7.5275 16.1531L7.52223 16.1464ZM39.2362 18.2578C39.0925 18.0752 38.9736 17.8731 38.8936 17.6542C38.85 17.5347 38.8184 17.4119 38.7973 17.2872L38.7963 17.2809C38.6679 17.2083 38.5318 17.1495 38.3924 17.1022C38.3344 17.0826 38.2754 17.0649 38.216 17.0496L38.0229 17.0057L38.0775 17.1959C38.0967 17.2537 38.1178 17.3115 38.1408 17.3684C38.2515 17.6418 38.4101 17.9003 38.6262 18.1039C38.7906 18.2587 38.9851 18.3782 39.1921 18.4685L39.2362 18.2578ZM40.2622 18.4073C40.3034 18.3572 40.3427 18.3051 40.3805 18.252C40.5708 17.982 40.715 17.6728 40.7591 17.3436C40.796 17.0669 40.7644 16.7839 40.6911 16.5158C40.6748 16.4566 40.6565 16.3983 40.6364 16.34L40.5645 16.156L40.4376 16.3075C40.3997 16.3557 40.3633 16.4054 40.3293 16.4561C40.2224 16.6143 40.1318 16.7849 40.0681 16.9646C40.1117 17.0497 40.1496 17.1381 40.1807 17.2289C40.2991 17.5739 40.3192 17.9471 40.2761 18.3075C40.2717 18.3409 40.2674 18.3739 40.2622 18.4073ZM40.0029 18.0843C40.0163 17.7985 39.9823 17.5089 39.8755 17.2427C39.7715 16.9837 39.6042 16.7529 39.4083 16.555C39.3651 16.5115 39.3201 16.4695 39.2741 16.4289L39.1212 16.3036L39.0848 16.4977C39.0757 16.5584 39.0685 16.6191 39.0637 16.6802C39.0402 16.9746 39.0656 17.2762 39.1672 17.5548C39.2132 17.6795 39.2736 17.798 39.345 17.9094L39.4006 17.7775L39.483 17.604L39.4562 17.6604C39.4389 17.5992 39.4226 17.5376 39.4078 17.4759C39.367 17.3125 39.333 17.1467 39.3148 16.9746L39.3162 16.9741C39.4207 17.1123 39.5084 17.257 39.5908 17.4038C39.6737 17.5505 39.7475 17.7005 39.8189 17.8516C39.828 17.8726 39.8376 17.8936 39.8472 17.9146L40.0029 18.0843ZM38.7949 16.4671C38.6511 16.317 38.5265 16.1498 38.4307 15.9648C38.3717 15.852 38.3248 15.734 38.2879 15.6131L38.286 15.6069C38.1494 15.5514 38.0071 15.5103 37.8628 15.4812C37.8025 15.4692 37.7416 15.4592 37.6807 15.4511L37.4838 15.4324L37.5624 15.6136C37.5888 15.669 37.617 15.7235 37.6472 15.777C37.7919 16.0341 37.9822 16.2707 38.2227 16.4451C38.3881 16.5651 38.5744 16.6535 38.769 16.7156L38.7853 16.5378C38.7882 16.5144 38.7915 16.4905 38.7949 16.4671ZM9.96371 16.3161C10.1194 16.1837 10.2618 16.0365 10.3854 15.874C10.5756 15.6246 10.7175 15.3412 10.8196 15.0449C10.9403 14.6927 11.0064 14.3218 11.0251 13.9505L11.0266 13.917C11.0237 13.918 11.0213 13.919 11.0184 13.9199C10.8215 13.9887 10.6298 14.0719 10.4453 14.1694C10.4228 14.1813 10.4003 14.1933 10.3777 14.2057C10.3873 14.6482 10.325 15.0936 10.1616 15.506C9.99966 15.9166 9.74474 16.286 9.44094 16.6052L9.65608 16.4738C9.74904 16.4207 9.96371 16.3161 9.96371 16.3161ZM39.8836 16.5383C39.9186 16.4829 39.9507 16.4265 39.9814 16.3691C40.1361 16.0771 40.2396 15.7517 40.2411 15.4195C40.2425 15.1405 40.1745 14.8637 40.0676 14.6071C40.0437 14.5507 40.0183 14.4948 39.991 14.4403L39.8961 14.2669L39.7892 14.4332C39.7581 14.4857 39.7288 14.5397 39.701 14.5942C39.6152 14.7643 39.5472 14.945 39.507 15.1318C39.5616 15.2107 39.6105 15.2934 39.6526 15.3794C39.8141 15.7068 39.8822 16.0743 39.8846 16.437C39.885 16.4704 39.8846 16.5044 39.8836 16.5383ZM9.15773 16.4795C9.27034 16.3667 9.37624 16.2477 9.47352 16.1216C9.64938 15.8941 9.79745 15.6437 9.90047 15.3751C10.0126 15.0821 10.0696 14.7706 10.084 14.4575C10.1008 14.0857 10.0601 13.7115 9.9738 13.3493L9.96564 13.3173C9.96324 13.3192 9.96134 13.3206 9.95894 13.3225C9.78931 13.4434 9.62829 13.5768 9.47878 13.7221C9.36042 13.8368 9.24875 13.9586 9.14621 14.0876C8.94638 14.339 8.78012 14.6186 8.67134 14.9216C8.56879 15.2074 8.51752 15.5099 8.50554 15.8124C8.5017 15.9046 8.50171 15.9964 8.50507 16.0881C8.56305 16.0293 8.62342 15.9725 8.68523 15.9175L8.85007 15.7799L8.85534 15.7899L8.86014 15.7775C8.95166 15.5433 9.0456 15.3106 9.1491 15.0807C9.25165 14.8504 9.36043 14.6224 9.48598 14.3997L9.48691 14.4002C9.45001 14.6525 9.39588 14.8996 9.3355 15.1443C9.27656 15.389 9.20804 15.6308 9.13664 15.8716C9.10597 15.972 9.07434 16.0719 9.04223 16.1713C9.04894 16.1866 9.05516 16.2019 9.06139 16.2176C9.09637 16.3036 9.1285 16.3911 9.15773 16.4795ZM39.5903 16.3256C39.5745 16.0155 39.5041 15.7044 39.3517 15.432C39.2151 15.1882 39.0201 14.9804 38.8001 14.8093C38.7517 14.7715 38.7019 14.7357 38.6511 14.7013L38.4834 14.5966L38.4724 14.7935C38.4709 14.8547 38.4719 14.9163 38.4748 14.9775C38.4887 15.2719 38.5524 15.5682 38.6895 15.8315C38.7403 15.9299 38.8011 16.0231 38.8696 16.1101L38.9549 15.8492L38.9722 15.8602C38.9535 15.8143 38.9348 15.7689 38.9176 15.7225C38.8562 15.5658 38.8011 15.4062 38.7613 15.2375L38.7623 15.237C38.884 15.3603 38.9894 15.4927 39.0901 15.6279C39.1912 15.7627 39.2837 15.9022 39.3733 16.0432C39.4106 16.1039 39.4475 16.1641 39.4835 16.2257L39.5903 16.3256ZM9.08487 13.7106C9.00293 13.4817 8.89944 13.2609 8.77868 13.0501L8.76189 13.0215C8.75998 13.0239 8.75854 13.0262 8.75663 13.0282C8.62389 13.1978 8.50361 13.377 8.39867 13.5648C8.32152 13.7025 8.25205 13.8444 8.19311 13.9906C8.07571 14.2798 7.99614 14.5861 7.97458 14.8977C7.95301 15.2093 7.98943 15.5232 8.06562 15.8257C8.10588 15.9854 8.15718 16.1426 8.21803 16.2955C8.22139 16.3036 8.22424 16.3113 8.2276 16.3194C8.22808 16.3232 8.22376 16.2711 8.22137 16.242C8.18591 15.7345 8.24054 15.216 8.42838 14.7404C8.57885 14.3591 8.80934 14.014 9.08487 13.7106ZM38.1801 14.8236C37.9697 14.6917 37.7775 14.5297 37.6218 14.3362C37.5418 14.2368 37.4723 14.1307 37.4119 14.0193C37.4119 14.0193 37.3031 13.9959 37.25 13.9897C37.1757 13.9811 37.1009 13.9768 37.0257 13.9744C36.9979 13.9739 36.9696 13.9739 36.9414 13.9739C36.8891 13.9749 36.8374 13.9768 36.7851 13.9801L36.5882 14.0007C36.6467 14.0924 36.7113 14.1804 36.7808 14.2645C36.9921 14.5187 37.2533 14.739 37.56 14.868C37.7584 14.9517 37.9707 14.9966 38.1849 15.0129L38.1801 14.8236ZM38.6502 12.5665C38.6372 12.6024 38.5126 13.2336 38.5117 13.3068C38.5807 13.3737 38.6449 13.4454 38.7038 13.5213C38.9271 13.8105 39.0661 14.1569 39.1408 14.512C39.148 14.545 39.1543 14.578 39.16 14.6114C39.183 14.5503 39.2036 14.4886 39.2223 14.4265C39.3158 14.1096 39.3527 13.7703 39.2885 13.4444C39.2343 13.1706 39.113 12.913 38.9573 12.6826C38.9228 12.6315 38.8869 12.5823 38.849 12.5335L38.7215 12.3825L38.6502 12.5665ZM38.8332 14.4733C38.757 14.1679 38.6252 13.8726 38.4187 13.6322C38.2371 13.42 38.0042 13.2547 37.755 13.1304C37.6999 13.1027 37.6443 13.0774 37.5873 13.054L37.4023 12.9842L37.4301 13.1796C37.4412 13.2399 37.4541 13.2996 37.469 13.3593C37.5413 13.6451 37.6625 13.9233 37.8489 14.1541C37.951 14.2807 38.0708 14.3916 38.2021 14.4876L38.2381 14.2779C38.1734 14.188 38.1106 14.0967 38.0512 14.0026C37.9601 13.8607 37.8743 13.7149 37.8015 13.5577L37.8029 13.5567C37.9462 13.6542 38.0761 13.7627 38.2011 13.8759C38.3272 13.9878 38.4455 14.1063 38.5615 14.2267C38.6142 14.2836 38.6665 14.3404 38.7182 14.3983C38.757 14.4222 38.7954 14.4475 38.8332 14.4733ZM10.2699 13.3369C10.2968 13.4544 10.3433 13.6881 10.3433 13.6881C10.7137 13.4415 11.0457 13.1304 11.281 12.751C11.4363 12.5006 11.5479 12.2243 11.6237 11.94C11.7171 11.5873 11.7574 11.2212 11.7521 10.8575L11.7516 10.8241C11.7487 10.8255 11.7463 10.8265 11.7435 10.8274C11.5513 10.9092 11.3654 11.0043 11.1876 11.1132C11.0472 11.1992 10.9116 11.2939 10.7831 11.3976C10.5402 11.594 10.3221 11.8234 10.152 12.0862C9.98144 12.3486 9.8607 12.6406 9.78068 12.9421C9.76486 13.0023 9.75047 13.0626 9.73754 13.1232L9.94695 12.9808L10.1314 12.8709L10.1583 12.9498C10.291 12.7534 10.4261 12.5584 10.5694 12.3677C10.7194 12.1651 10.8756 11.9663 11.0462 11.7765L11.0477 11.777C10.9561 12.0155 10.8493 12.2444 10.7371 12.47C10.626 12.6965 10.5062 12.9173 10.384 13.1371C10.3461 13.2031 10.3082 13.2695 10.2694 13.3354L10.2699 13.3369ZM11.3107 13.5352C11.3136 13.5964 11.3146 13.6222 11.3146 13.6222C11.4372 13.5438 11.5537 13.4559 11.6625 13.3584C11.8939 13.1505 12.0866 12.902 12.2437 12.6344C12.4244 12.3266 12.5605 11.9926 12.6534 11.648L12.6553 11.6399C12.6529 11.6403 12.6501 11.6408 12.6472 11.6408C12.433 11.6661 12.2207 11.7077 12.0127 11.7656C11.995 11.7703 11.9773 11.7756 11.9596 11.7808C11.8724 12.2143 11.7137 12.6358 11.4646 13.0028C11.294 13.2537 11.0855 13.4764 10.8526 13.6704C10.9408 13.6384 11.0304 13.6088 11.121 13.5839L11.3107 13.5352ZM37.1546 13.2877C36.9768 13.1777 36.8134 13.0454 36.674 12.8896C36.5882 12.793 36.512 12.6888 36.4454 12.5785C36.3567 12.5665 36.2676 12.5598 36.178 12.5579C36.1583 12.5579 36.1382 12.5574 36.1186 12.5574C35.9533 12.5589 35.7884 12.5761 35.626 12.6066L35.6245 12.6071C35.6878 12.6955 35.7568 12.7801 35.8306 12.8604C36.0544 13.1037 36.3266 13.3106 36.6395 13.4238C36.8244 13.4907 37.019 13.5252 37.215 13.5347L37.2145 13.5323C37.1934 13.4602 37.1546 13.2877 37.1546 13.2877ZM10.8057 11.0167C10.8004 10.9737 10.7942 10.9311 10.7875 10.8886C10.7549 10.6831 10.7065 10.4805 10.6437 10.2822L10.6408 10.274C10.6389 10.276 10.6365 10.2774 10.6346 10.2793C10.3519 10.5106 10.0974 10.7782 9.88752 11.0764C9.70351 11.3388 9.55448 11.6265 9.46296 11.9338C9.37383 12.2334 9.34028 12.5479 9.34842 12.8594C9.35322 13.0243 9.36905 13.1887 9.39493 13.3512C9.39637 13.3598 9.39779 13.3684 9.39923 13.377L9.41025 13.2991C9.48309 12.816 9.63978 12.3405 9.90717 11.928C10.1415 11.5677 10.4549 11.2642 10.8057 11.0167ZM38.3286 12.6152C38.3574 12.3816 38.3507 12.1436 38.2932 11.9147C38.2251 11.6437 38.091 11.3928 37.9232 11.1701C37.8863 11.1214 37.8475 11.0736 37.8077 11.0272L37.6726 10.8824L37.6108 11.0697C37.5935 11.1285 37.5782 11.1883 37.5648 11.248C37.524 11.4339 37.5034 11.626 37.5106 11.8167L37.515 11.8205C37.5854 11.8826 37.6515 11.9491 37.7129 12.0208C37.9505 12.2979 38.1077 12.6372 38.2002 12.988C38.2074 13.0148 38.2141 13.0415 38.2203 13.0678L38.2285 13.074C38.2323 13.0621 38.2409 13.0277 38.2409 13.0277C38.2591 12.8881 38.2893 12.75 38.3286 12.6152ZM36.386 11.5519C36.3965 11.6164 36.409 11.6805 36.4238 11.744C36.4377 11.8038 36.4535 11.863 36.4718 11.9218C36.5585 12.2038 36.6941 12.4748 36.8915 12.6965C36.9562 12.7687 37.0271 12.8351 37.1024 12.8958L37.0985 12.6071L37.1455 12.6176C37.1254 12.5904 37.1052 12.5627 37.0856 12.5345C36.9878 12.3978 36.8944 12.2564 36.8139 12.1029L36.8149 12.102C36.9629 12.1923 37.0985 12.2941 37.2294 12.4002C37.3607 12.5058 37.4848 12.6181 37.6069 12.7328L37.6343 12.7591C37.6736 12.7744 37.7124 12.7906 37.7512 12.8074C37.7857 12.8231 37.8202 12.8389 37.8547 12.8556C37.7622 12.5947 37.6257 12.3476 37.434 12.146C37.2413 11.9433 37.0008 11.7904 36.7454 11.6786C36.6893 11.6537 36.6323 11.6313 36.5743 11.6107L36.3855 11.5505L36.386 11.5519ZM35.0888 11.2418C35.0255 11.2427 34.9623 11.2456 34.899 11.2508L34.6527 11.2829C34.7145 11.3722 34.7821 11.4583 34.8545 11.5395C35.074 11.7866 35.3428 11.9978 35.6542 12.1168C35.8526 12.1923 36.064 12.2301 36.2762 12.2401L36.1919 12.0026C36.0079 11.8869 35.8397 11.7474 35.6974 11.583C35.614 11.4865 35.5411 11.3827 35.4769 11.2733L35.4741 11.2681C35.4319 11.2614 35.2124 11.2265 35.0888 11.2418ZM26.0843 11.7651C25.4081 12.2391 24.4737 12.0776 23.9983 11.4028C23.523 12.0776 22.5885 12.2391 21.9124 11.7651C21.345 11.3679 21.1261 10.6339 21.3834 9.99112C21.5281 10.7567 22.268 11.2609 23.0357 11.1156C23.4401 11.0401 23.7923 10.7916 23.9983 10.436C24.2044 10.7916 24.5566 11.0401 24.9606 11.1156C25.7287 11.2609 26.4686 10.7567 26.6133 9.99112C26.8706 10.6339 26.6516 11.3679 26.0843 11.7651ZM37.3698 10.8652C37.3626 10.7878 37.3506 10.7113 37.3329 10.6353C37.2696 10.3634 37.1393 10.1101 36.9759 9.88502C36.9395 9.83532 36.9021 9.78706 36.8623 9.74023L36.73 9.59303L36.6649 9.77942C36.6466 9.8382 36.6304 9.89698 36.616 9.95672C36.5724 10.1421 36.5479 10.3338 36.5518 10.5245C36.6227 10.5885 36.6898 10.6578 36.7511 10.7319C36.9557 10.9794 37.0971 11.2738 37.1877 11.5806C37.1992 11.5878 37.2107 11.5949 37.2222 11.6021C37.2322 11.4224 37.2629 11.2432 37.3084 11.0697C37.3257 11.0033 37.3698 10.8652 37.3698 10.8652ZM35.4324 10.2406C35.4415 10.3056 35.453 10.3696 35.4669 10.4337C35.4793 10.4934 35.4947 10.5527 35.5114 10.6114C35.5939 10.8953 35.7242 11.1687 35.9183 11.3933C35.9724 11.4563 36.0314 11.5147 36.0937 11.5691C36.085 11.5113 36.0783 11.4525 36.074 11.3942L36.063 11.1892L36.0865 11.1935C36.0012 11.0678 35.9207 10.9383 35.8507 10.7988L35.8517 10.7978C35.9983 10.8905 36.132 10.9947 36.2609 11.1032C36.3242 11.1562 36.386 11.2102 36.4468 11.2661L36.7248 11.3565C36.7535 11.3675 36.7823 11.3785 36.8105 11.3904C36.7267 11.194 36.615 11.01 36.4698 10.8523C36.281 10.6463 36.0429 10.4891 35.7894 10.3734C35.7338 10.3476 35.6768 10.3242 35.6192 10.3022L35.4319 10.2392L35.4324 10.2406ZM12.8207 11.335L12.8398 11.3345C12.9846 11.2781 13.1245 11.2107 13.2577 11.1314C13.5351 10.966 13.7791 10.7486 13.9875 10.5029C14.0949 10.3768 14.1931 10.243 14.2832 10.1034C14.3996 9.92278 14.5017 9.73258 14.5889 9.53617L14.5927 9.52852L14.3867 9.52517C14.3105 9.5266 14.2343 9.529 14.1586 9.53426C14.0666 9.53999 13.9746 9.54907 13.883 9.56102C13.7307 9.97679 13.5093 10.3687 13.2069 10.6936C12.9251 10.9961 12.5811 11.2351 12.2111 11.4181L12.5011 11.367C12.607 11.3517 12.7138 11.3402 12.8207 11.335ZM12.0362 11.1801C12.1402 11.1304 12.2423 11.0759 12.341 11.0167C12.5801 10.8733 12.8029 10.7003 12.9932 10.4963C13.2131 10.2602 13.3861 9.983 13.5174 9.6891C13.585 9.53808 13.6415 9.38181 13.6885 9.22315C13.7498 9.01669 13.7944 8.80594 13.8231 8.5928L13.8241 8.5842C13.8212 8.58515 13.8183 8.58563 13.8159 8.58659C13.6137 8.63772 13.4149 8.70319 13.2227 8.78396C13.0703 8.84799 12.9223 8.92063 12.7795 9.00378C12.5092 9.16053 12.2586 9.35409 12.0501 9.58778C11.8469 9.81526 11.6859 10.0776 11.5618 10.3553C11.5201 10.4494 11.4823 10.5445 11.4483 10.6415C11.4741 10.6291 11.5 10.6172 11.5264 10.6052C11.6237 10.5613 11.7233 10.5202 11.8244 10.4853L11.9107 10.4571C12.076 10.2783 12.2442 10.101 12.4191 9.92947C12.5988 9.75265 12.7833 9.57965 12.9817 9.41812L12.9827 9.41908C12.8557 9.64035 12.7148 9.85062 12.5696 10.0566C12.4249 10.263 12.273 10.4633 12.1182 10.6616C12.0923 10.6941 12.0669 10.7261 12.041 10.7586C12.0429 10.8088 12.0439 10.859 12.0439 10.9092C12.0444 10.9995 12.0415 11.0898 12.0362 11.1801ZM35.279 10.8408C35.0174 10.6984 34.7773 10.5135 34.589 10.2826C34.5071 10.1823 34.4357 10.0743 34.3743 9.96102C34.3216 9.95146 34.2684 9.94381 34.2147 9.93808C34.1405 9.92995 34.0657 9.92612 33.9905 9.92469L33.7748 9.92996L33.553 9.95384C33.6124 10.0451 33.6776 10.1326 33.7475 10.2157C33.9603 10.469 34.2229 10.6874 34.5305 10.815C34.7126 10.89 34.9058 10.9331 35.1017 10.9512L35.3236 10.9584C35.3078 10.9197 35.2929 10.8805 35.279 10.8408ZM12.86 8.63008C12.8671 8.38731 12.8513 8.14405 12.8159 7.90415L12.8111 7.87165C12.8087 7.87309 12.8063 7.87452 12.8039 7.87596C12.6242 7.98157 12.4522 8.10056 12.2902 8.23199C12.1623 8.33569 12.0406 8.44751 11.927 8.56699C11.7061 8.8002 11.5158 9.06448 11.3812 9.35647C11.2537 9.63222 11.1761 9.92947 11.1377 10.2301C11.1157 10.4021 11.1061 10.5761 11.108 10.7495L11.131 10.674C11.2834 10.1885 11.524 9.72541 11.8724 9.35074C12.1522 9.05062 12.4924 8.81263 12.86 8.63008ZM35.6586 10.0074C35.5862 9.8511 35.4947 9.70391 35.3816 9.57296C35.1981 9.36221 34.9647 9.19876 34.7145 9.07547C34.6594 9.0487 34.6034 9.02338 34.5464 8.99996L34.3609 8.9321L34.3901 9.12708C34.4011 9.18729 34.4146 9.24703 34.4299 9.30629C34.5042 9.59207 34.6273 9.86925 34.8147 10.0991C34.9173 10.2243 35.037 10.3338 35.1683 10.4284C35.1477 10.3233 35.1329 10.2162 35.1252 10.1092V10.1087C35.0878 10.0552 35.0514 10.0012 35.016 9.9462C34.924 9.80474 34.8372 9.65946 34.7639 9.50271L34.7649 9.50175C34.9086 9.59828 35.0394 9.7063 35.1655 9.81812C35.1957 9.84489 35.2249 9.87165 35.2541 9.89841C35.2541 9.89841 35.2417 9.89602 35.3049 9.90796C35.3763 9.9223 35.4467 9.94046 35.5167 9.96149C35.5641 9.97535 35.6116 9.99112 35.6586 10.0074ZM37.5729 10.4126L37.5696 10.4098L37.5729 10.4131V10.4126ZM36.2144 10.2712C36.2872 9.98061 36.3098 9.67476 36.2499 9.3799C36.1943 9.10654 36.0711 8.84991 35.9135 8.62004C35.879 8.56986 35.8426 8.52015 35.8042 8.47236L35.6763 8.32183L35.6059 8.5063C35.5857 8.56413 35.568 8.6229 35.5522 8.68216C35.5033 8.86615 35.4736 9.05684 35.4726 9.24752C35.4726 9.24752 35.6073 9.38658 35.6658 9.46065C35.8311 9.67188 35.9514 9.91465 36.0338 10.1694C36.0951 10.2009 36.1555 10.2348 36.2144 10.2712ZM34.1917 9.5309C33.9502 9.41382 33.7265 9.25994 33.5405 9.06591C33.4528 8.97368 33.3742 8.8738 33.3048 8.76771L33.3014 8.76244L33.1097 8.75146C33.0944 8.75098 33.0791 8.75098 33.0637 8.75098C32.8687 8.75241 32.6742 8.77583 32.4834 8.81884H32.482C32.5481 8.90534 32.6205 8.98753 32.6966 9.06543C32.9286 9.30103 33.2075 9.49841 33.5242 9.60115C33.5784 9.61836 33.633 9.63318 33.6881 9.64561C33.759 9.63939 33.8304 9.63556 33.9014 9.63413C33.9325 9.63365 33.9641 9.63365 33.9953 9.63413C34.0743 9.63556 34.1534 9.63987 34.2325 9.648L34.1917 9.5309ZM34.5818 8.70176C34.4979 8.55409 34.3964 8.41645 34.2751 8.29697C34.0758 8.10104 33.83 7.95624 33.5707 7.85301C33.5137 7.83055 33.4557 7.80952 33.3972 7.79089L33.207 7.73736L33.2516 7.92948C33.2674 7.98874 33.2851 8.04751 33.3052 8.10534C33.402 8.38443 33.5463 8.65063 33.7514 8.8652C33.8549 8.97321 33.9713 9.06639 34.0973 9.1462L34.0959 9.13856C34.0796 9.04537 34.0676 8.95122 34.0609 8.8566V8.84991C34.0197 8.79973 33.979 8.74907 33.9397 8.69698C33.8372 8.56364 33.7394 8.42553 33.6536 8.275L33.6546 8.27405C33.806 8.35911 33.9445 8.45612 34.0787 8.55791L34.0859 8.56365L34.2425 8.5971C34.3139 8.61335 34.3839 8.6339 34.4529 8.65636C34.4965 8.6707 34.5392 8.68551 34.5818 8.70176ZM35.1487 8.98993C35.2095 8.67595 35.2143 8.34621 35.1257 8.03653C35.0485 7.76843 34.9053 7.52183 34.7304 7.30535C34.692 7.25756 34.6518 7.21119 34.6101 7.16627L34.4706 7.02625L34.4146 7.21598C34.3992 7.27476 34.3863 7.33497 34.3753 7.39519C34.3408 7.58252 34.3264 7.77511 34.3403 7.96531C34.4141 8.02601 34.4845 8.09149 34.5492 8.1627C34.7443 8.37488 34.8899 8.6272 34.9944 8.89482C35.0466 8.92493 35.0984 8.95648 35.1487 8.98993ZM14.1332 8.41215C14.1274 8.51298 14.1154 8.61335 14.1001 8.71276C14.0944 8.75194 14.0877 8.79112 14.081 8.8303C14.1931 8.74189 14.2961 8.64154 14.3848 8.52876C14.5577 8.30845 14.6747 8.048 14.748 7.77894C14.7643 7.71968 14.7782 7.65946 14.7902 7.59925L14.8223 7.40331C14.8213 7.40379 14.8208 7.40379 14.8199 7.40379C14.7576 7.42386 14.6953 7.44585 14.6344 7.46974C14.5774 7.4922 14.5209 7.51705 14.4653 7.54333C14.1974 7.67093 13.9473 7.84489 13.7565 8.07332C13.6832 8.16078 13.6195 8.25493 13.5644 8.35385L13.5735 8.35146C13.6904 8.31705 13.8092 8.28694 13.9295 8.264L13.9841 8.25445C14.1025 8.14166 14.2252 8.03223 14.3613 7.93378L14.3622 7.93425C14.2966 8.08909 14.2185 8.2339 14.1346 8.3744L14.1332 8.41215Z" fill="#4E4E4E"/>
</svg>