<svg xmlns="http://www.w3.org/2000/svg" width="48" height="48" viewBox="0 0 48 48" fill="none">
  <path fill-rule="evenodd" clip-rule="evenodd" d="M26.1324 0L13.8283 7.58904C13.4335 8.18399 13.1798 8.88961 13.1798 9.74722C13.1798 11.7878 14.8506 12.6283 16.5275 13.3737L22.2238 15.9034C21.2905 15.4553 20.2433 14.9187 20.2433 14.2228C20.2433 13.6116 20.7861 13.213 21.1897 12.9668L25.7468 10.1895C27.8162 8.9332 29.0419 7.29715 29.0419 4.84708C29.0419 2.55798 27.6075 0.844099 26.1324 0ZM27.482 27.225C28.3846 27.6384 28.6914 27.9644 28.6914 28.481C28.6914 28.9775 28.259 29.4339 26.9211 30.1792L25.3262 31.0814L34.6857 35.274C35.3245 34.7262 35.7724 33.9273 35.7724 33.1335C35.7724 31.7372 35.1216 30.626 33.0381 29.6839L27.482 27.225ZM8.5 41.9078L14.4593 38.3167L23.7487 42.5092L17.8245 46.2949C16.5802 47.043 15.4514 47.4801 14.2665 47.4801C11.2003 47.4801 8.6473 44.9553 8.5 41.9078Z" fill="#80B0D5"/>
  <path fill-rule="evenodd" clip-rule="evenodd" d="M24.8896 15.6203L35.8091 8.98657C37.2845 9.84546 38.7361 11.5279 38.7361 13.816C38.7361 16.2658 37.5436 17.952 35.4235 19.1584L34.2842 19.8129L24.8896 15.6203ZM13.0938 25.0491C13.0938 23.9072 13.4285 23.3094 13.9701 22.7141L23.3647 26.8889L21.0336 28.2334C20.3931 28.6312 19.9469 28.991 19.9469 29.4894C19.9469 30.0284 20.5616 30.4753 21.3841 30.8515L16.9497 28.8879C16.865 28.8497 16.7805 28.8117 16.6963 28.7739C14.8099 27.9274 13.0938 27.1572 13.0938 25.0491Z" fill="#A2D993"/>
  <path d="M13.8276 7.58911C11.2526 9.17732 9.62109 11.334 9.62109 14.6298C9.62109 18.2091 11.8444 20.2578 15.4051 21.8473L33.0375 29.684C35.1193 30.626 35.7718 31.7391 35.7718 33.1336C35.7718 33.9283 35.3238 34.7263 34.6851 35.2741L35.7192 34.6195C37.9371 33.2267 39.3298 31.3356 39.3298 28.3396C39.3298 24.4976 36.8031 22.391 33.686 20.9982L16.5268 13.3738C14.85 12.6284 13.1791 11.7879 13.1791 9.7473C13.1791 8.88968 13.4329 8.18406 13.8276 7.58911Z" fill="#086DA9"/>
  <path d="M37.3942 47.9358C35.0285 46.0969 32.5048 44.8531 29.4365 43.4482L15.2568 37.1161C11.6943 35.5138 9.33203 33.3774 9.33203 29.7825C9.33203 26.2881 11.008 24.5963 13.1865 23.2065L13.9739 22.7083C13.4322 23.3036 13.0888 23.9016 13.0888 25.0436C13.0888 27.2458 14.9609 27.9911 16.9442 28.8855L33.4409 36.2228C36.3105 37.4662 38.9366 39.6054 38.9366 43.2481C38.9366 45.2507 38.1817 47.0425 37.3942 47.9358Z" fill="#35AF3B"/>
</svg>