<svg width="20" height="14" viewBox="0 0 20 14" fill="none" xmlns="http://www.w3.org/2000/svg">
<path fill-rule="evenodd" clip-rule="evenodd" d="M17.5 0.125C18.8807 0.125 20 1.24429 20 2.625V11.375C20 12.7557 18.8807 13.875 17.5 13.875H2.5C1.11929 13.875 0 12.7557 0 11.375V2.625C0 1.24429 1.11929 0.125 2.5 0.125H17.5ZM17.5 1.375H2.5C1.85896 1.375 1.33062 1.85755 1.25841 2.47922L1.25 2.625V11.375C1.25 12.016 1.73255 12.5444 2.35422 12.6166L2.5 12.625H17.5C18.141 12.625 18.6694 12.1425 18.7416 11.5208L18.75 11.375V2.625C18.75 1.98396 18.2675 1.45562 17.6458 1.38341L17.5 1.375ZM5.625 3.25C7.00571 3.25 8.125 4.36929 8.125 5.75C8.125 6.4502 7.83714 7.08317 7.37331 7.53702C8.15106 8.06063 8.67893 8.92692 8.74335 9.91953L8.75 10.125H7.5C7.5 9.08947 6.66053 8.25 5.625 8.25C4.65038 8.25 3.84944 8.99361 3.75858 9.94443L3.75 10.125H2.5C2.5 9.04707 3.04577 8.0966 3.87606 7.53487C3.41286 7.08317 3.125 6.4502 3.125 5.75C3.125 4.36929 4.24429 3.25 5.625 3.25ZM13.75 7.625V8.875H10V7.625H13.75ZM5.625 4.5C4.93464 4.5 4.375 5.05964 4.375 5.75C4.375 6.44036 4.93464 7 5.625 7C6.31536 7 6.875 6.44036 6.875 5.75C6.875 5.05964 6.31536 4.5 5.625 4.5ZM17.5 5.125V6.375H10V5.125H17.5Z" fill="#656570"/>
</svg>
