<svg width="24" height="24" viewBox="0 0 24 24" fill="none" xmlns="http://www.w3.org/2000/svg">
<g id="note-square-svgrepo-com 1">
<path id="Vector" d="M22 10.0002V9.00015C22 4.00015 20 2.00015 15 2.00015H9C4 2.00015 2 4.00015 2 9.00015V15.0002C2 20.0002 4 22.0002 9 22.0002H11" stroke="#313131" stroke-width="2" stroke-linecap="round" stroke-linejoin="round"/>
<path id="Vector_2" d="M20.4632 12.6595L13.3375 18.2905M20.4632 12.6595L22.2229 14.8863M20.4632 12.6595L21.3539 11.9556C21.5999 11.7612 21.9569 11.8031 22.1512 12.049L23.207 13.3851C23.4014 13.6311 23.3596 13.988 23.1136 14.1824L22.2229 14.8863M13.3375 18.2905L15.0972 20.5174M13.3375 18.2905L12.4359 20.8117L15.0972 20.5174M22.2229 14.8863L15.0972 20.5174" stroke="#313131" stroke-linecap="round" stroke-linejoin="round"/>
<path id="Vector_3" d="M7.5 13.5002H12" stroke="#313131" stroke-width="1.5" stroke-linecap="round" stroke-linejoin="round"/>
<path id="Vector_4" d="M7.5 9.00015H15" stroke="#313131" stroke-width="1.5" stroke-linecap="round" stroke-linejoin="round"/>
</g>
</svg>
