<svg width="24" height="24" viewBox="0 0 24 24" fill="none" xmlns="http://www.w3.org/2000/svg">
<path d="M4.45369 8.10938H20.123C20.7199 8.10938 21.2037 8.5932 21.2037 9.19002V17.2949C21.2037 17.8917 20.7199 18.3755 20.123 18.3755H4.45369C3.85687 18.3755 3.37305 17.8917 3.37305 17.2949V9.19002C3.37305 8.5932 3.85687 8.10938 4.45369 8.10938Z" stroke="#444444" stroke-width="1.40484"/>
<path d="M14.2422 16.6566C14.2422 16.9029 14.4418 17.1025 14.6881 17.1025H14.7143H14.7405C14.9868 17.1025 15.1864 16.9029 15.1864 16.6566C15.1864 16.4104 14.9868 16.2107 14.7405 16.2107H14.7143H14.6881C14.4418 16.2107 14.2422 16.4104 14.2422 16.6566Z" fill="#444444"/>
<rect width="13" height="12" transform="translate(10 3)" fill="white"/>
<path d="M14.6667 7.66667L12 10.3333M12 10.3333L14.6667 13M12 10.3333H19.3333C20.0406 10.3333 20.7189 10.0524 21.219 9.55229C21.719 9.05219 22 8.37391 22 7.66667C22 6.95942 21.719 6.28115 21.219 5.78105C20.7189 5.28095 20.0406 5 19.3333 5H18.6667" stroke="#444444" stroke-width="1.5" stroke-linecap="round" stroke-linejoin="round"/>
<path d="M8.23608 11.3506H4.99414M10.3974 12.9716H4.99414" stroke="#444444" stroke-width="1.08065" stroke-linecap="round" stroke-linejoin="round"/>
<path d="M19.5818 16.7539H16.3398" stroke="#444444" stroke-width="1.08065" stroke-linecap="round" stroke-linejoin="round"/>
</svg>
