<svg width="24" height="24" viewBox="0 0 24 24" fill="none" xmlns="http://www.w3.org/2000/svg">
<path d="M4.45369 8.10938H20.123C20.7199 8.10938 21.2037 8.59319 21.2037 9.19002V13.2424V17.2949C21.2037 17.8917 20.7199 18.3755 20.123 18.3755H4.45369C3.85687 18.3755 3.37305 17.8917 3.37305 17.2949V9.19002C3.37305 8.5932 3.85687 8.10938 4.45369 8.10938Z" stroke="#444444" stroke-width="1.40484"/>
<path d="M14.2422 16.6566C14.2422 16.9029 14.4418 17.1025 14.6881 17.1025H14.7143H14.7405C14.9868 17.1025 15.1864 16.9029 15.1864 16.6566C15.1864 16.4104 14.9868 16.2107 14.7405 16.2107H14.7143H14.6881C14.4418 16.2107 14.2422 16.4104 14.2422 16.6566Z" fill="#444444"/>
<g clip-path="url(#clip0_1459_21047)">
<rect width="13" height="11" transform="translate(9 3)" fill="white"/>
<path d="M18.9609 4L21.2261 5.91667L18.9609 7.83334" stroke="#6A6A6A" stroke-width="1.5" stroke-linecap="round" stroke-linejoin="round"/>
<path d="M15.5645 5.91602H21.2273" stroke="#6A6A6A" stroke-width="1.5" stroke-linecap="round" stroke-linejoin="round"/>
<path d="M14.4312 8.79102L12.166 10.7077L14.4312 12.6244" stroke="#6A6A6A" stroke-width="1.5" stroke-linecap="round" stroke-linejoin="round"/>
<path d="M12.166 10.709H17.2626" stroke="#6A6A6A" stroke-width="1.5" stroke-linecap="round" stroke-linejoin="round"/>
</g>
<path d="M8.23608 11.3506H4.99414M10.3974 12.9716H4.99414" stroke="#444444" stroke-width="1.08065" stroke-linecap="round" stroke-linejoin="round"/>
<path d="M19.5818 16.7539H16.3398" stroke="#444444" stroke-width="1.08065" stroke-linecap="round" stroke-linejoin="round"/>
<line x1="21.998" y1="3.70711" x2="12.7052" y2="13" stroke="#444444" stroke-linecap="round"/>
<defs>
<clipPath id="clip0_1459_21047">
<rect width="13" height="11" fill="white" transform="translate(9 3)"/>
</clipPath>
</defs>
</svg>
