<svg width="24" height="24" viewBox="0 0 24 24" fill="none" xmlns="http://www.w3.org/2000/svg">
<g id="sound-off-svgrepo-com 1">
<g id="Page-1">
<g id="icon">
<path id="Combined-Shape" fill-rule="evenodd" clip-rule="evenodd" d="M4.20711 2.79291L21.2071 19.7929L19.7929 21.2071L10.9882 12.4024L10.9883 20.0947L5.79785 16.0889H2V8.08888H5.79199L6.28592 7.70016L2.79289 4.20712L4.20711 2.79291ZM18.9359 4.10609C22.1112 7.65169 22.803 12.6083 21.0115 16.7688L19.467 15.2242C20.5858 11.8959 19.8887 8.10048 17.3756 5.35426L18.9359 4.10609ZM7.7105 9.12469L6.48535 10.0889H4V14.0889H6.47949L8.98828 16.0244L8.98827 10.4025L7.7105 9.12469ZM14.9803 7.27058C16.3221 8.76703 16.9282 10.6816 16.7985 12.5558L14.4905 10.2478C14.2576 9.62412 13.9001 9.03571 13.4182 8.52021L14.9803 7.27058ZM10.9883 4.00001L10.9882 6.74564L9.45167 5.20908L10.9883 4.00001Z" fill="#313131"/>
</g>
</g>
</g>
</svg>
