<svg xmlns="http://www.w3.org/2000/svg" width="48" height="48" viewBox="0 0 48 48" fill="none">
  <path fill-rule="evenodd" clip-rule="evenodd" d="M25.9003 2.6H28.7243V8.1L33.7153 8.094L36.6193 11H34.8793L33.5793 13.245L34.6963 13.25L34.7033 14.891L36.5363 14.902L36.5283 17.36L38.4023 17.354L38.3833 20.829C38.7991 20.9185 39.1843 21.1154 39.5003 21.4C39.5802 21.469 39.6538 21.545 39.7203 21.627C39.8214 21.7542 39.9061 21.8936 39.9723 22.042L39.9953 22.096L40.0093 22.133H40.1743C40.3556 22.1445 40.5345 22.1781 40.7073 22.233C40.8035 22.2641 40.8974 22.3018 40.9883 22.346C41.6684 22.7275 42.2013 23.3263 42.5013 24.046C42.5583 24.165 42.6113 24.286 42.6623 24.407L42.6923 24.482C42.6923 24.482 42.9193 25.038 43.0193 25.32C43.1243 25.568 43.2067 25.8251 43.2653 26.088L42.6293 26.288C42.6293 26.288 42.2924 25.6482 41.7763 25.648H38.0663L37.4263 26.634H39.6483V28.264H41.0773V30.1H39.6423V31.344H37.3733L37.3673 32.158H35.5253L35.5343 41.411L27.7123 41.419V45.05H25.9403V48H22.0603V45.058H20.2933V41.427L12.4713 41.419L12.4803 32.166H10.6373L10.6313 31.352H8.35528V30.108H6.92728V28.254H8.35528V26.624H10.5773L9.93728 25.638H6.22728C5.71118 25.6382 5.37428 26.278 5.37428 26.278L4.73828 26.078C4.79688 25.8151 4.87928 25.558 4.98428 25.31C5.08428 25.027 5.31128 24.472 5.31128 24.472L5.34128 24.397C5.39228 24.275 5.44128 24.154 5.50228 24.036C5.80228 23.3163 6.33518 22.7175 7.01528 22.336C7.10618 22.2918 7.20008 22.2541 7.29628 22.223C7.46918 22.168 7.64818 22.1345 7.82928 22.123C7.88428 22.123 7.93928 22.123 7.99428 22.123L8.00928 22.086L8.03228 22.032C8.09848 21.8836 8.18318 21.7442 8.28428 21.617C8.34998 21.5386 8.42218 21.466 8.50028 21.4C8.81488 21.117 9.19778 20.9209 9.61128 20.831L9.59228 17.356L11.4653 17.362L11.4603 14.9L13.2933 14.889L13.3003 13.248L14.4173 13.243L13.1213 11H11.3813L14.2813 8.093L19.2723 8.099V2.599H22.1003V0H25.9003V2.6ZM26.8903 44.258V41.419H25.1223V43.047H22.8793V41.419H21.1113V44.258H22.8753V47.2H25.1253V44.258H26.8903ZM34.6953 40.619L34.6943 31.719H13.3063V40.619H34.6953ZM31.1723 39.55C31.1815 39.5994 31.1777 39.6505 31.1613 39.698C31.1406 39.76 31.1141 39.8199 31.0823 39.877C31.0448 39.9458 30.9954 40.0075 30.9363 40.059C30.9127 40.0876 30.8798 40.1071 30.8433 40.114C30.8056 40.1013 30.7714 40.0801 30.7433 40.052C30.7013 40.0173 30.6573 39.9817 30.6113 39.945C30.5762 39.9185 30.5428 39.8897 30.5113 39.859C30.4888 39.8423 30.4734 39.8176 30.4683 39.79C30.4963 39.731 30.5183 39.685 30.5323 39.653C30.5803 39.5517 30.616 39.4783 30.6393 39.433C30.682 39.3663 30.725 39.2953 30.7683 39.22L30.8113 39.158C30.8245 39.1707 30.8389 39.182 30.8543 39.192L30.9113 39.226C30.9837 39.2789 31.0507 39.3389 31.1113 39.405C31.1447 39.4467 31.1667 39.4963 31.1753 39.549L31.1723 39.55ZM25.8163 38.558C26.1389 38.5589 26.4608 38.5278 26.7773 38.465C27.0577 38.4103 27.3337 38.3355 27.6033 38.241C27.8471 38.1533 28.0779 38.0329 28.2893 37.883C28.4891 37.7452 28.6694 37.581 28.8253 37.395C28.868 37.3397 28.9346 37.2527 29.0253 37.134C29.0683 37.074 29.0993 37.034 29.1183 37.01C29.1373 36.986 29.1423 36.991 29.1473 36.996C29.153 37.0038 29.1555 37.0134 29.1543 37.023L29.1473 37.099C29.1426 37.1403 29.132 37.2287 29.1153 37.364C29.0998 37.4827 29.0914 37.6023 29.0903 37.722C29.0844 37.9005 29.1146 38.0785 29.1793 38.245C29.2308 38.3769 29.363 38.4607 29.5043 38.451C29.6043 38.451 29.702 38.3767 29.7973 38.228C29.9105 38.0329 29.9902 37.8203 30.0333 37.599L30.0513 37.51C30.0574 37.4827 30.061 37.4549 30.0623 37.427C30.0623 37.381 30.0503 37.358 30.0263 37.358C30.0023 37.358 29.9913 37.379 29.9803 37.42C29.9693 37.461 29.9573 37.498 29.9483 37.53C29.8963 37.672 29.8366 37.743 29.7693 37.743C29.6908 37.7452 29.6134 37.7236 29.5473 37.681C29.4325 37.5852 29.3734 37.4376 29.3903 37.289V37.182C29.3903 37.0993 29.3976 36.9767 29.4123 36.814C29.4283 36.6333 29.4496 36.4533 29.4763 36.274L29.6263 35.552C29.633 35.5167 29.64 35.4813 29.6473 35.446L29.8143 35.333L30.4823 34.827C30.6736 34.7037 30.8643 34.579 31.0543 34.453C31.219 34.3437 31.381 34.231 31.5403 34.115C31.7976 33.927 31.9906 33.7837 32.1193 33.685C32.2906 33.5517 32.4123 33.4557 32.4843 33.397C32.5563 33.3383 32.6266 33.274 32.6953 33.204C32.7813 33.122 32.8636 33.037 32.9423 32.949C33.0128 32.8678 33.0773 32.7816 33.1353 32.691C33.1933 32.6123 33.2392 32.5253 33.2713 32.433C33.2809 32.4163 33.2857 32.3973 33.2853 32.378C33.2853 32.386 33.1066 32.5373 32.7493 32.832C32.5633 32.9893 32.375 33.1447 32.1843 33.298C31.9796 33.4607 31.77 33.6183 31.5553 33.771C31.2513 33.983 30.9463 34.1937 30.6403 34.403C30.3451 34.6124 30.0622 34.8388 29.7933 35.081C29.7294 35.136 29.6738 35.2 29.6283 35.271C29.6196 35.2829 29.6116 35.2952 29.6043 35.308C29.5717 35.3629 29.5423 35.4197 29.5163 35.478L29.4843 35.541C29.4237 35.6541 29.3712 35.7714 29.3273 35.892L29.2273 36.284C29.1774 36.4656 29.0976 36.6376 28.9913 36.793C28.8439 36.9884 28.6563 37.15 28.4413 37.267C27.8526 37.5922 27.1971 37.778 26.5253 37.81C26.3633 37.824 26.1466 37.831 25.8753 37.831C25.5488 37.8757 25.2168 37.8027 24.9393 37.625C24.8803 37.5595 24.8451 37.476 24.8393 37.388C24.8323 37.298 24.8213 37.254 24.8073 37.254C24.7693 37.254 24.7396 37.332 24.7183 37.488C24.6973 37.6384 24.6867 37.7901 24.6863 37.942C24.6755 38.0807 24.7149 38.2188 24.7973 38.331C24.9132 38.4354 25.0599 38.4993 25.2153 38.513C25.3807 38.5389 25.5479 38.5506 25.7153 38.548L25.8163 38.558ZM23.7013 37.479V37.485C23.8013 37.387 23.8606 37.327 23.8793 37.305C23.9538 37.2205 24.0143 37.1247 24.0583 37.021C24.1161 36.8766 24.158 36.7264 24.1833 36.573C24.2132 36.4311 24.2309 36.2869 24.2363 36.142C24.2363 36.022 24.2363 35.896 24.2363 35.764C24.2363 35.632 24.2446 35.4987 24.2613 35.364C24.2613 35.239 24.2683 35.164 24.2683 35.13C24.2683 35.124 24.2683 35.118 24.2683 35.113C24.2833 35.105 24.3023 35.093 24.3243 35.079L24.5353 34.935L25.0463 34.589C25.2463 34.4603 25.4436 34.3303 25.6383 34.199C25.809 34.085 25.9756 33.967 26.1383 33.845C26.405 33.645 26.605 33.4943 26.7383 33.393C26.917 33.255 27.0436 33.155 27.1183 33.093C27.193 33.031 27.267 32.9623 27.3403 32.887C27.431 32.7997 27.518 32.709 27.6013 32.615C27.6768 32.527 27.7459 32.4337 27.8083 32.336C27.8712 32.2498 27.9217 32.1552 27.9583 32.055C27.9689 32.0364 27.9747 32.0154 27.9753 31.994C27.9753 32.0033 27.7883 32.1637 27.4143 32.475C27.2196 32.6417 27.023 32.8063 26.8243 32.969C26.611 33.141 26.3926 33.3077 26.1693 33.469C25.854 33.691 25.5376 33.9113 25.2203 34.13C24.9764 34.2919 24.7426 34.4685 24.5203 34.659C24.4529 34.7172 24.394 34.7845 24.3453 34.859C24.2973 34.9335 24.2549 35.0113 24.2183 35.092L24.2063 35.12V35.126L23.9643 35.687C23.9417 35.7433 23.9295 35.8033 23.9283 35.864C23.9236 35.942 23.9213 36.0323 23.9213 36.135L23.9283 36.583C23.935 36.7291 23.9108 36.8749 23.8573 37.011C23.8351 37.0573 23.8076 37.101 23.7753 37.141C23.7527 37.1713 23.7249 37.1973 23.6933 37.218L23.6503 37.238C23.6164 37.2419 23.5821 37.2374 23.5503 37.225C23.5263 37.261 23.5023 37.294 23.4783 37.325C23.4403 37.3751 23.388 37.4124 23.3283 37.432C23.3 37.4474 23.2647 37.442 23.2423 37.419C23.2093 37.45 23.1783 37.482 23.1493 37.513C23.1044 37.5608 23.0428 37.5894 22.9773 37.593C22.9127 37.5933 22.8482 37.5887 22.7843 37.579C22.679 37.6503 22.5763 37.7217 22.4763 37.793C22.3911 37.8477 22.2915 37.8755 22.1903 37.873C22.0204 37.8878 21.8554 37.8082 21.7613 37.666C21.7043 37.5617 21.6773 37.4437 21.6833 37.325C21.6833 37.271 21.6833 37.185 21.6973 37.064C21.7093 36.9207 21.726 36.778 21.7473 36.636L21.8693 35.82L21.8983 35.646C21.9067 35.611 21.9091 35.5748 21.9053 35.539L21.8763 35.552C21.8336 35.6367 21.7766 35.7613 21.7053 35.926C21.634 36.0907 21.596 36.182 21.5913 36.2C21.558 36.4187 21.515 36.734 21.4623 37.146C21.4096 37.558 21.3833 37.7913 21.3833 37.846C21.3844 37.9076 21.3891 37.969 21.3973 38.03C21.4022 38.0882 21.4139 38.1456 21.4323 38.201C21.4822 38.4086 21.6698 38.5558 21.8833 38.555C22.0808 38.5456 22.2598 38.4341 22.3553 38.261C22.4886 38.065 22.596 37.967 22.6773 37.967L22.7773 37.977C22.8045 37.9806 22.8321 37.9806 22.8593 37.977C22.9108 37.9572 22.958 37.9276 22.9983 37.89C23.0391 37.8539 23.0821 37.8205 23.1273 37.79C23.158 37.7728 23.1922 37.7626 23.2273 37.76C23.2577 37.7579 23.2872 37.7487 23.3133 37.733C23.3513 37.697 23.3833 37.669 23.4133 37.649C23.4375 37.63 23.4641 37.6142 23.4923 37.602C23.5183 37.591 23.5723 37.565 23.6533 37.525L23.6963 37.491L23.7013 37.479ZM18.4723 36.7C18.4677 36.7925 18.4556 36.8844 18.4363 36.975C18.4123 37.103 18.3883 37.2153 18.3643 37.312L18.2783 37.649C18.2303 37.777 18.1923 37.871 18.1643 37.931C18.1291 38.0042 18.0897 38.0753 18.0463 38.144C18.0166 38.1922 17.9791 38.2351 17.9353 38.271C17.8745 38.3143 17.8099 38.3522 17.7423 38.384L17.4853 38.484C17.4302 38.5011 17.3741 38.5148 17.3173 38.525C17.2621 38.5385 17.2059 38.5479 17.1493 38.553C17.1253 38.553 17.1113 38.545 17.1063 38.529C17.1024 38.5086 17.1075 38.4874 17.1203 38.471C17.1701 38.4041 17.231 38.3463 17.3003 38.3C17.3983 38.2267 17.495 38.1557 17.5903 38.087C17.6996 37.9903 17.7806 37.9147 17.8333 37.86C17.9152 37.7746 17.9871 37.6799 18.0473 37.578C18.0716 37.5328 18.0921 37.4857 18.1083 37.437C18.1343 37.3663 18.176 37.2507 18.2333 37.09L18.3193 36.842C18.3286 36.8053 18.343 36.7607 18.3623 36.708C18.3813 36.656 18.4053 36.629 18.4343 36.629C18.4522 36.6484 18.4646 36.6722 18.4703 36.698L18.4723 36.7ZM17.7863 34.785C17.7913 34.7698 17.7887 34.753 17.7793 34.74C17.7657 34.7235 17.7486 34.7102 17.7293 34.701C17.641 34.7202 17.5565 34.754 17.4793 34.801C17.3874 34.8478 17.2988 34.9009 17.2143 34.96C17.1236 35.0227 17.0496 35.0777 16.9923 35.125C16.8626 35.2398 16.7407 35.3631 16.6273 35.494C16.4754 35.6646 16.3478 35.8554 16.2483 36.061C16.1699 36.2083 16.1235 36.3705 16.1123 36.537C16.1083 36.6063 16.1284 36.6749 16.1693 36.731C16.2136 36.7828 16.2699 36.823 16.3333 36.848C16.3654 36.8629 16.3989 36.8746 16.4333 36.883C16.462 36.8897 16.5096 36.9027 16.5763 36.922C16.643 36.9413 16.6763 36.9703 16.6763 37.009C16.6718 37.0878 16.6458 37.1639 16.6013 37.229C16.5398 37.325 16.4666 37.4131 16.3833 37.491C16.2789 37.5898 16.1581 37.6697 16.0263 37.727C15.8403 37.8126 15.638 37.857 15.4333 37.857C15.2303 37.8695 15.0286 37.8161 14.8583 37.705C14.7276 37.6098 14.6525 37.4556 14.6583 37.294C14.6823 37.0372 14.7524 36.7869 14.8653 36.555L14.9513 36.374C15.0086 36.2533 15.0516 36.167 15.0803 36.115C15.1323 36.015 15.1673 35.945 15.1803 35.904C15.1933 35.863 15.2193 35.81 15.2483 35.745C15.2588 35.7229 15.2636 35.6985 15.2623 35.674C15.2623 35.635 15.2453 35.616 15.2123 35.616C15.1983 35.616 15.1803 35.633 15.1583 35.668C15.1363 35.703 15.1163 35.737 15.0973 35.768L14.9333 36.086L14.7263 36.494C14.6399 36.6635 14.5657 36.8389 14.5043 37.019C14.4671 37.128 14.4383 37.2396 14.4183 37.353C14.3989 37.4653 14.3892 37.579 14.3893 37.693C14.3904 37.7905 14.4048 37.8874 14.4323 37.981C14.4628 38.0859 14.5138 38.1838 14.5823 38.269C14.7466 38.462 14.9949 38.5635 15.2473 38.541C15.4906 38.546 15.7305 38.4833 15.9403 38.36C16.0463 38.2985 16.1447 38.2247 16.2333 38.14C16.3183 38.0597 16.3972 37.9731 16.4693 37.881C16.6104 37.6802 16.7191 37.4585 16.7913 37.224C16.866 37.0079 16.9072 36.7816 16.9133 36.553C16.9281 36.4447 16.8847 36.3362 16.7993 36.268C16.7764 36.2513 16.7511 36.2382 16.7243 36.229L16.6353 36.197L16.5063 36.138C16.4771 36.1084 16.4594 36.0694 16.4563 36.028C16.4746 35.964 16.509 35.9058 16.5563 35.859C16.6421 35.7556 16.739 35.6621 16.8453 35.58C16.9332 35.5017 17.0319 35.4364 17.1383 35.386C17.2095 35.3493 17.2874 35.3272 17.3673 35.321C17.3838 35.3218 17.3998 35.3274 17.4133 35.337L17.4673 35.373C17.4963 35.373 17.5293 35.347 17.5673 35.295C17.5773 35.282 17.6043 35.231 17.6493 35.143C17.6861 35.0757 17.7195 35.0067 17.7493 34.936C17.7684 34.8868 17.7828 34.8359 17.7923 34.784L17.7863 34.785ZM20.7713 37.563L20.6713 37.817C20.6288 37.908 20.5772 37.9944 20.5173 38.075C20.4772 38.135 20.428 38.1883 20.3713 38.233C20.3034 38.2715 20.2317 38.3026 20.1573 38.326L20.0073 38.381C19.9306 38.405 19.8543 38.4303 19.7783 38.457C19.7041 38.482 19.6273 38.4981 19.5493 38.505L19.5203 38.491C19.5203 38.459 19.606 38.3903 19.7773 38.285L20.0563 38.093C20.1036 38.061 20.156 38.022 20.2133 37.976C20.2798 37.9219 20.3423 37.8631 20.4003 37.8C20.4594 37.7395 20.5045 37.6668 20.5323 37.587C20.533 37.5731 20.5354 37.5594 20.5393 37.546L20.3533 37.56C20.2744 37.5629 20.1974 37.5345 20.1393 37.481C20.0864 37.4393 20.0591 37.3728 20.0673 37.306C20.0743 37.2611 20.0863 37.2171 20.1033 37.175C20.1223 37.125 20.1653 37.033 20.2323 36.9C20.2692 36.8233 20.3124 36.7497 20.3613 36.68C20.4233 36.597 20.4833 36.556 20.5403 36.556C20.6367 36.5566 20.7281 36.5994 20.7903 36.673C20.8614 36.7494 20.8998 36.8507 20.8973 36.955C20.8973 37.0103 20.8926 37.0655 20.8833 37.12L20.8583 37.264C20.8513 37.305 20.8403 37.355 20.8263 37.412C20.8143 37.4628 20.7975 37.5123 20.7763 37.56L20.7713 37.563ZM19.6943 36.646C19.6896 36.7387 19.6775 36.8305 19.6583 36.921C19.6343 37.049 19.6103 37.1613 19.5863 37.258L19.5003 37.6C19.4523 37.7287 19.4143 37.8227 19.3863 37.882C19.3511 37.9552 19.3117 38.0263 19.2683 38.095C19.2384 38.143 19.2009 38.1859 19.1573 38.222C19.0964 38.2653 19.0318 38.3031 18.9643 38.335L18.7073 38.435C18.6522 38.4521 18.5961 38.4658 18.5393 38.476C18.4841 38.4895 18.4279 38.4989 18.3713 38.504C18.3473 38.504 18.3333 38.496 18.3283 38.48C18.3244 38.4596 18.3295 38.4384 18.3423 38.422C18.3925 38.3545 18.4541 38.2963 18.5243 38.25C18.6223 38.1767 18.719 38.1057 18.8143 38.037C18.9236 37.941 19.0046 37.8653 19.0573 37.81C19.1392 37.7245 19.2111 37.6299 19.2713 37.528C19.2956 37.4828 19.316 37.4357 19.3323 37.387C19.3583 37.3157 19.4 37.2 19.4573 37.04L19.5433 36.792C19.5533 36.755 19.5673 36.711 19.5863 36.658C19.6053 36.605 19.6293 36.579 19.6583 36.579C19.6757 36.5978 19.6881 36.6208 19.6943 36.646ZM30.7643 37.19C30.7643 37.135 30.7643 37.046 30.7783 36.922C30.7903 36.7747 30.807 36.628 30.8283 36.482L30.9503 35.643L30.9793 35.464C30.9879 35.428 30.9903 35.3908 30.9863 35.354L30.9573 35.368C30.9146 35.4553 30.8573 35.5837 30.7853 35.753C30.7133 35.9223 30.6753 36.0163 30.6713 36.035C30.638 36.2597 30.595 36.584 30.5423 37.008C30.4896 37.432 30.4633 37.6707 30.4633 37.724C30.4574 37.9025 30.4876 38.0805 30.5523 38.247C30.6038 38.3789 30.736 38.4627 30.8773 38.453C30.9773 38.453 31.075 38.3787 31.1703 38.23C31.2835 38.0349 31.3632 37.8223 31.4063 37.601L31.4243 37.512C31.4304 37.4847 31.434 37.4569 31.4353 37.429C31.4353 37.383 31.4233 37.36 31.3993 37.36C31.3753 37.36 31.3653 37.381 31.3533 37.422L31.3213 37.532C31.2686 37.674 31.209 37.745 31.1423 37.745C31.0638 37.7472 30.9864 37.7256 30.9203 37.683C30.8055 37.5872 30.7464 37.4396 30.7633 37.291V37.191L30.7643 37.19ZM18.8003 35.143C18.8095 35.1926 18.8057 35.2435 18.7893 35.291C18.7684 35.3529 18.742 35.4129 18.7103 35.47C18.6728 35.5388 18.6234 35.6005 18.5643 35.652C18.5407 35.6807 18.5078 35.7002 18.4713 35.707C18.4336 35.6944 18.3993 35.6732 18.3713 35.645C18.3273 35.6083 18.282 35.5727 18.2353 35.538C18.2002 35.5115 18.1668 35.4828 18.1353 35.452C18.1128 35.4353 18.0974 35.4106 18.0923 35.383C18.121 35.3237 18.1423 35.278 18.1563 35.246C18.2043 35.146 18.2393 35.072 18.2633 35.026C18.3063 34.957 18.3493 34.886 18.3923 34.813L18.4353 34.751C18.4485 34.764 18.4629 34.7757 18.4783 34.786L18.5353 34.82C18.6078 34.8728 18.6748 34.9328 18.7353 34.999C18.769 35.0405 18.7914 35.09 18.8003 35.143ZM22.5473 34.229C22.5387 34.1763 22.5166 34.1267 22.4833 34.085C22.4227 34.0188 22.3557 33.9589 22.2833 33.906L22.2263 33.872C22.2109 33.8621 22.1965 33.8507 22.1833 33.838L22.1403 33.9C22.0976 33.9733 22.0546 34.0443 22.0113 34.113C21.9873 34.159 21.9516 34.2323 21.9043 34.333C21.8903 34.365 21.8683 34.411 21.8403 34.47C21.8455 34.4976 21.8608 34.5222 21.8833 34.539C21.9148 34.5697 21.9482 34.5985 21.9833 34.625C22.0293 34.659 22.0746 34.6943 22.1193 34.731C22.1472 34.7593 22.1815 34.7806 22.2193 34.793C22.2558 34.7862 22.2888 34.7668 22.3123 34.738C22.3717 34.6865 22.4214 34.6249 22.4593 34.556C22.4911 34.4989 22.5175 34.439 22.5383 34.377C22.5547 34.3295 22.5585 34.2784 22.5493 34.229H22.5473ZM23.2833 34.188C23.2925 34.2376 23.2887 34.2885 23.2723 34.336C23.2515 34.398 23.2251 34.4579 23.1933 34.515C23.1559 34.5839 23.1065 34.6456 23.0473 34.697C23.0238 34.7258 22.9908 34.7452 22.9543 34.752C22.9166 34.7393 22.8824 34.7181 22.8543 34.69C22.8103 34.6533 22.765 34.6177 22.7183 34.583C22.6832 34.5565 22.6498 34.5278 22.6183 34.497C22.5958 34.4802 22.5805 34.4556 22.5753 34.428C22.6043 34.369 22.6253 34.322 22.6393 34.291C22.674 34.217 22.7096 34.1437 22.7463 34.071C22.783 33.9983 22.826 33.9273 22.8753 33.858L22.9183 33.796C22.9314 33.8088 22.9458 33.8202 22.9613 33.83L23.0183 33.865C23.0907 33.9179 23.1577 33.9779 23.2183 34.044C23.2523 34.0854 23.275 34.1349 23.2843 34.188H23.2833ZM29.8503 34.137C29.8594 34.1866 29.8556 34.2375 29.8393 34.285C29.8186 34.347 29.7921 34.4069 29.7603 34.464C29.7227 34.5328 29.6733 34.5944 29.6143 34.646C29.5907 34.6747 29.5578 34.6942 29.5213 34.701C29.4836 34.6884 29.4494 34.6671 29.4213 34.639C29.3773 34.6023 29.332 34.5667 29.2853 34.532C29.2501 34.5056 29.2167 34.4769 29.1853 34.446C29.1628 34.4293 29.1474 34.4046 29.1423 34.377C29.171 34.3177 29.1923 34.272 29.2063 34.24C29.2543 34.14 29.2893 34.066 29.3133 34.02C29.3563 33.951 29.3993 33.88 29.4423 33.807L29.4853 33.745C29.4985 33.758 29.5129 33.7697 29.5283 33.78L29.5853 33.814C29.6578 33.8668 29.7249 33.9267 29.7853 33.993C29.8194 34.0343 29.8411 34.0839 29.8503 34.137ZM22.9113 33.337C22.9024 33.2842 22.88 33.2346 22.8463 33.193C22.7859 33.1266 22.7189 33.0667 22.6463 33.014L22.5893 32.98C22.5738 32.9702 22.5594 32.9588 22.5463 32.946L22.5033 33.008C22.4603 33.081 22.4173 33.152 22.3743 33.221C22.3503 33.267 22.3143 33.34 22.2673 33.441C22.2533 33.473 22.2313 33.519 22.2023 33.578C22.2074 33.6056 22.2228 33.6303 22.2453 33.647C22.2743 33.675 22.3083 33.704 22.3453 33.737L22.4813 33.844C22.5098 33.8707 22.544 33.8906 22.5813 33.902C22.6178 33.8952 22.6507 33.8757 22.6743 33.847C22.7334 33.7955 22.7828 33.7338 22.8203 33.665C22.852 33.6079 22.8785 33.5479 22.8993 33.486C22.9157 33.4384 22.9194 33.3875 22.9103 33.338L22.9113 33.337ZM19.5613 30.927V24.427L16.7613 21.627L10.5313 21.631C8.98928 21.631 8.65928 22.2 8.64728 23.114C7.50728 22.539 6.59928 23.402 6.04728 24.839H12.9723L16.9313 30.927H19.5613ZM23.6003 30.923V23.506L20.8153 21.48V11.049L19.5443 8.849L14.6793 8.841L13.5793 9.941H15.2873L17.1573 13.18V20.891L20.3573 24.091V30.923H23.6003ZM15.9763 30.923L12.5373 25.635H10.9093L14.3403 30.923H15.9763ZM34.4183 9.95L33.3183 8.85H28.4563L27.1853 11.05V21.481L24.4003 23.506V30.923H27.6433L27.6403 24.1L30.8403 20.9V13.189L32.7103 9.95H34.4183ZM31.0693 30.923L35.0283 24.835L41.9543 24.831C41.4053 23.394 40.4973 22.528 39.3543 23.106C39.3433 22.192 39.0123 21.623 37.4703 21.623H31.2433L28.4433 24.423V30.923H31.0693ZM33.6603 30.923L37.0963 25.635H35.4673L32.0283 30.923H33.6603ZM37.4673 29.492L37.4663 28.582H36.1333L35.5423 29.492H37.4673ZM12.4583 29.492L11.8673 28.582H10.5343V29.492H12.4583ZM25.0793 3.4L25.0803 0.8H22.9213V3.4H20.1003L20.0913 8.2L21.6153 10.836V21.072L23.6003 22.516V20.142L22.8883 19.624V4.836H25.1123V19.625L24.4003 20.143V22.517L26.3853 21.077V10.84L27.9093 8.2L27.9003 3.4H25.0793ZM32.4423 20.827V13.585L34.0813 10.746H33.1743L31.6423 13.4V20.827H32.4423ZM13.9423 20.827H14.7423V18.442H13.9423V20.827ZM14.8303 10.746H13.9233L15.5623 13.585V20.827H16.3623V13.4L14.8303 10.746ZM33.2623 20.827H34.0623V18.442H33.2623V20.827Z" fill="white"/>
</svg>