<svg xmlns="http://www.w3.org/2000/svg" width="48" height="48" viewBox="0 0 48 48" fill="none">
  <path fill-rule="evenodd" clip-rule="evenodd" d="M44.8415 48H24.7581V28.3586C25.0269 25.1931 25.5031 22.2777 26.671 20.1967C27.3652 20.5863 28.6042 22.309 28.9739 25.6423C29.8799 24.0063 30.9832 22.1722 32.985 21.009C33.1199 24.6194 32.905 25.9932 31.8932 28.5066C30.4727 32.0352 26.5639 32.8567 26.5639 32.8567V46.1942H43.0357C43.0357 35.3391 43.2405 24.482 43.034 13.6288C43.0304 13.5199 43.0243 13.4114 43.0154 13.3028C42.9655 12.7787 42.8416 12.2655 42.6363 11.7802C42.1312 10.586 41.1658 9.61259 39.9804 9.09349L39.9789 9.09279C40.3367 8.54469 40.7024 8.05139 41.0642 7.60929C41.712 7.93869 42.3071 8.37029 42.8215 8.88469C43.5484 9.61149 44.11 10.4997 44.4516 11.4694C44.7112 12.2065 44.8366 12.9804 44.8415 13.7611V48ZM23.2397 48H3.15625V13.7611C3.16115 12.9804 3.28655 12.2065 3.54615 11.4694C3.88775 10.4997 4.44925 9.61149 5.17615 8.88469C5.69055 8.37029 6.28575 7.93869 6.93355 7.60929C7.29535 8.05139 7.66105 8.54469 8.01885 9.09279L8.01725 9.09349C6.83185 9.61259 5.86655 10.586 5.36145 11.7802C5.15615 12.2655 5.03225 12.7787 4.98235 13.3028C4.97335 13.4114 4.96725 13.5199 4.96375 13.6288C4.75725 24.482 4.96205 35.3391 4.96205 46.1942H21.4338V32.8567C21.4338 32.8567 17.525 32.0352 16.1046 28.5066C15.0928 25.9932 14.8778 24.6194 15.0127 21.009C17.0145 22.1722 18.1179 24.0063 19.0239 25.6423C19.3934 22.309 20.6325 20.5863 21.3267 20.1967C22.4946 22.2777 22.9708 25.1931 23.2397 28.3586V48ZM42.9804 4.55519C39.808 6.84139 36.0974 11.8376 35.66 17.095C35.304 21.3773 34.5722 23.2484 34.0258 24.0496C34.2679 22.6058 34.2664 20.6425 33.9953 19.0596C33.389 19.3279 32.3829 19.9462 31.4615 20.8622C31.347 20.4876 30.4069 18.5632 27.31 19.4166C27.459 18.9371 27.6233 18.4628 27.8061 17.9947C28.2434 16.875 28.7729 15.7915 29.3818 14.7543C29.386 14.7476 29.3899 14.7409 29.3937 14.7341C30.0492 13.6199 30.7966 12.5594 31.6201 11.565C32.3204 10.7192 33.078 9.91889 33.8891 9.17739C33.9134 9.15859 33.9363 9.13769 33.9577 9.11489C34.5486 8.57909 35.1677 8.07449 35.8133 7.60629C37.621 6.29539 39.6622 5.24999 41.8495 4.75539C42.2236 4.67089 42.6007 4.60509 42.9804 4.55519ZM5.01725 4.55519C8.18965 6.84139 11.9004 11.8376 12.3377 17.095C12.6938 21.3773 13.4255 23.2484 13.9719 24.0496C13.7298 22.6058 13.7312 20.6425 14.0023 19.0596C14.6087 19.3279 15.6149 19.9462 16.5361 20.8622C16.6507 20.4876 17.5907 18.5632 20.6876 19.4166C20.5386 18.9371 20.3743 18.4628 20.1915 17.9947C19.7542 16.875 19.2248 15.7915 18.6159 14.7543C18.6118 14.7476 18.6079 14.7409 18.604 14.7341C17.9485 13.6199 17.201 12.5594 16.3776 11.565C15.6772 10.7192 14.9197 9.91889 14.1086 9.17739C14.0843 9.15859 14.0614 9.13769 14.04 9.11489C13.449 8.57909 12.83 8.07449 12.1844 7.60629C10.3766 6.29539 8.33545 5.24999 6.14815 4.75539C5.77405 4.67089 5.39695 4.60509 5.01725 4.55519ZM25.9167 19.8861C25.5694 19.6322 25.0199 19.176 23.9862 19.1792C22.9524 19.1825 22.4162 19.6411 22.0811 19.8861C21.8231 18.2621 20.7564 16.314 19.8192 14.4305C20.24 13.635 21.4981 10.869 21.8338 9.82179C22.7253 7.04109 23.5032 3.63249 23.9989 1.79459C24.4753 3.63759 25.2537 7.16369 26.164 9.82179C26.5203 10.8622 27.7578 13.635 28.1786 14.4305C27.2414 16.314 26.1747 18.2621 25.9167 19.8861ZM31.5885 1.22859C31.5719 1.39289 31.5494 1.55669 31.5207 1.71979C31.4805 1.94829 31.4289 2.17459 31.3671 2.39809C30.8577 4.23769 29.6737 5.80259 28.3891 7.17789C28.1506 7.43319 27.9069 7.68359 27.6609 7.93159C27.4291 8.16509 27.1952 8.39639 26.9615 8.62779C27.3434 9.74839 27.7841 10.8487 28.2786 11.9243C28.4802 12.3627 28.6912 12.7964 28.91 13.2262C29.5305 12.2664 30.2164 11.3488 30.9587 10.4814C31.5244 9.82039 32.1238 9.18709 32.7556 8.58789C32.2769 7.67899 32.0025 6.67229 31.8278 5.66259C31.5751 4.20119 31.526 2.71009 31.5885 1.22859ZM16.4093 1.22859C16.4258 1.39289 16.4483 1.55669 16.477 1.71979C16.5173 1.94829 16.5688 2.17459 16.6307 2.39809C17.1401 4.23769 18.324 5.80259 19.6087 7.17789C19.8472 7.43319 20.0908 7.68359 20.3368 7.93159C20.5686 8.16509 20.8026 8.39639 21.0363 8.62779C20.6544 9.74839 20.2136 10.8487 19.7192 11.9243C19.5176 12.3627 19.3066 12.7964 19.0878 13.2262C18.4673 12.2664 17.7812 11.3488 17.0391 10.4814C16.4734 9.82039 15.8738 9.18709 15.2421 8.58789C15.7207 7.67899 15.9953 6.67229 16.17 5.66259C16.4227 4.20119 16.4718 2.71009 16.4093 1.22859ZM32.9296 3.22739C33.1695 1.32319 35.3206 1.18269 36.6471 1.62689C38.5533 2.26529 39.2108 4.04589 37.6797 5.03469C36.9408 5.51189 36.147 5.90119 35.4286 6.40259C34.8251 6.82379 34.2429 7.27519 33.6831 7.75299L33.6742 7.73329C33.0295 5.66069 32.7955 4.29069 32.9296 3.22739ZM15.0681 3.22739C14.8282 1.32319 12.677 1.18269 11.3505 1.62689C9.44435 2.26529 8.78685 4.04589 10.318 5.03469C11.0569 5.51189 11.8506 5.90119 12.5691 6.40259C13.1727 6.82379 13.7548 7.27519 14.3146 7.75299L14.3236 7.73329C14.9683 5.66069 15.2021 4.29069 15.0681 3.22739ZM25.4569 2.33879C25.236 0.834591 26.8104 -0.146709 27.9365 0.0179909C28.6766 0.126191 30.6852 0.639091 30.1206 2.36189C29.9004 3.03359 29.5729 3.66849 29.1885 4.26089C28.5155 5.29789 27.6716 6.20649 26.8062 7.08359C26.7213 7.16879 26.636 7.25379 26.5508 7.33869C26.2162 6.21039 25.9401 5.06489 25.7201 3.90869C25.621 3.38719 25.534 2.86379 25.4569 2.33879ZM22.5408 2.33879C22.7617 0.834591 21.1874 -0.146709 20.0613 0.0179909C19.3211 0.126191 17.3125 0.639091 17.8771 2.36189C18.0972 3.03359 18.4247 3.66849 18.8091 4.26089C19.4821 5.29789 20.326 6.20649 21.1915 7.08359C21.2764 7.16879 21.3617 7.25379 21.4468 7.33869C21.7815 6.21039 22.0576 5.06489 22.2775 3.90869C22.3767 3.38719 22.4636 2.86379 22.5408 2.33879Z" fill="white"/>
</svg>