<svg xmlns="http://www.w3.org/2000/svg" width="48" height="48" viewBox="0 0 48 48" fill="none">
  <path d="M14.1862 16.416V23.2809C20.0289 19.0359 26.2101 17.0655 33.0142 16.9369L33.7274 16.9234V23.3708C36.1929 21.4425 38.6583 19.0482 41.1238 16.1047L41.0854 0.0666504C32.9512 9.84575 24.1387 16.0947 14.1862 16.416Z" fill="white"/>
  <path d="M21.2287 41.971C21.2287 45.2917 23.9371 48.0001 27.2578 48.0001C30.5788 48.0001 33.2872 45.2917 33.2872 41.971C33.2872 38.65 30.5788 35.9416 27.2578 35.9416C23.9371 35.9416 21.2287 38.65 21.2287 41.971Z" fill="white"/>
  <path d="M33.0274 31.6507V17.6368C24.0484 17.8066 15.0694 21.2413 6.08984 31.9621L6.12824 48.0001C14.2624 38.221 23.0752 31.972 33.0274 31.6507Z" fill="white"/>
</svg>