<svg xmlns="http://www.w3.org/2000/svg" width="48" height="48" viewBox="0 0 48 48" fill="none">
  <path fill-rule="evenodd" clip-rule="evenodd" d="M37.494 48C35.125 46.1587 32.598 44.9132 29.5256 43.5064L15.3268 37.1658C11.7595 35.5614 9.3941 33.4221 9.3941 29.8224C9.3941 26.3233 11.0723 24.6293 13.2538 23.2376L14.0422 22.7386C13.4998 23.3348 13.156 23.9336 13.156 25.0771C13.156 27.2822 15.0306 28.0285 17.0165 28.9242L33.5353 36.2713C36.4088 37.5164 39.0384 39.6585 39.0384 43.3061C39.0384 45.3113 38.2825 47.1055 37.494 48ZM14.5298 38.3681L8.5625 41.964C8.71 45.0156 11.2664 47.5438 14.3367 47.5438C15.5232 47.5438 16.6535 47.1062 17.8995 46.357L23.8317 42.5663L14.5298 38.3681ZM13.8979 7.5992C11.3194 9.1896 9.6857 11.3491 9.6857 14.6493C9.6857 18.2335 11.912 20.2849 15.4775 21.8765L33.1336 29.7238C35.2182 30.667 35.8715 31.7816 35.8715 33.1779C35.8715 33.9737 35.423 34.7728 34.7834 35.3213L35.8188 34.6659C38.0398 33.2713 39.4343 31.3776 39.4343 28.3775C39.4343 24.5304 36.9043 22.4209 33.783 21.0263L16.6008 13.3916C14.9216 12.6452 13.2486 11.8036 13.2486 9.7603C13.2486 8.9015 13.5026 8.195 13.8979 7.5992ZM28.7592 28.2985C30.1824 28.9326 31.6029 29.5725 33.0191 30.2221C33.1354 30.2769 33.2511 30.3328 33.3652 30.3922C33.4706 30.447 33.5748 30.5042 33.6773 30.5643C34.3102 30.9347 34.915 31.4313 35.1904 32.1314C35.273 32.3413 35.324 32.5625 35.3496 32.7864C35.3729 32.9916 35.3828 33.2033 35.3548 33.4084C35.3213 33.654 35.2379 33.8914 35.1234 34.1106C34.9782 34.3886 34.783 34.6339 34.5577 34.8511C34.4675 34.934 34.3768 35.0164 34.2856 35.0984L25.4112 31.1231L27.0084 30.2197C28.348 29.4733 28.781 29.0164 28.781 28.5192C28.781 28.4417 28.7741 28.3684 28.7592 28.2985ZM14.5163 22.9569L23.4455 26.925L21.1113 28.2712C20.4699 28.6696 20.0232 29.0299 20.0232 29.5289C20.0232 29.5983 20.0333 29.6661 20.0528 29.7324C18.9849 29.257 17.9176 28.7802 16.8513 28.301C16.6129 28.1935 16.3743 28.0861 16.1382 27.9735C15.9979 27.9067 15.8583 27.8383 15.7202 27.767C15.6144 27.7124 15.5094 27.6562 15.4057 27.5978C14.823 27.2694 14.2413 26.8561 13.9233 26.2499C13.8698 26.1479 13.8244 26.0417 13.7875 25.9325C13.7223 25.7399 13.6839 25.5388 13.6671 25.3363C13.6415 25.0268 13.656 24.7076 13.7109 24.4018C13.7492 24.1892 13.8125 23.9812 13.907 23.7866C13.9772 23.6419 14.0643 23.5078 14.1594 23.3784C14.2118 23.31 14.266 23.2434 14.3219 23.1778C14.3865 23.104 14.4513 23.0303 14.5163 22.9569ZM35.9066 8.9986L24.9725 15.6413L34.3797 19.8395L35.5205 19.184C37.6434 17.976 38.8376 16.2876 38.8376 13.8345C38.8376 11.5434 37.384 9.8587 35.9066 8.9986ZM14.8981 6.9824L26.2186 0C27.6956 0.8452 29.132 2.5614 29.132 4.8536C29.132 7.3069 27.9046 8.9452 25.8325 10.2032L21.2693 12.9842C20.8651 13.2307 20.3215 13.6298 20.3215 14.2419C20.3215 14.3442 20.3441 14.443 20.3857 14.5385C19.0868 13.9613 17.7893 13.3808 16.4943 12.7948C16.3426 12.725 16.1911 12.6548 16.0412 12.5812C15.8954 12.5096 15.7514 12.4349 15.6087 12.3573C15.4948 12.2955 15.3828 12.23 15.2727 12.1616C14.7522 11.8386 14.2587 11.4277 13.9868 10.8665C13.9294 10.7478 13.8824 10.6241 13.8464 10.4973C13.7781 10.2574 13.7499 10.0084 13.7493 9.7594C13.7485 9.4734 13.782 9.1865 13.8522 8.9091C13.9408 8.5587 14.0906 8.2308 14.2828 7.9256L14.8981 6.9824Z" fill="white"/>
</svg>